%TF.GenerationSoftware,KiCad,Pcbnew,7.0.10*%
%TF.CreationDate,2024-03-21T17:00:33-05:00*%
%TF.ProjectId,Tair,54616972-2e6b-4696-9361-645f70636258,rev?*%
%TF.SameCoordinates,Original*%
%TF.FileFunction,Soldermask,Top*%
%TF.FilePolarity,Negative*%
%FSLAX46Y46*%
G04 Gerber Fmt 4.6, Leading zero omitted, Abs format (unit mm)*
G04 Created by KiCad (PCBNEW 7.0.10) date 2024-03-21 17:00:33*
%MOMM*%
%LPD*%
G01*
G04 APERTURE LIST*
G04 Aperture macros list*
%AMRoundRect*
0 Rectangle with rounded corners*
0 $1 Rounding radius*
0 $2 $3 $4 $5 $6 $7 $8 $9 X,Y pos of 4 corners*
0 Add a 4 corners polygon primitive as box body*
4,1,4,$2,$3,$4,$5,$6,$7,$8,$9,$2,$3,0*
0 Add four circle primitives for the rounded corners*
1,1,$1+$1,$2,$3*
1,1,$1+$1,$4,$5*
1,1,$1+$1,$6,$7*
1,1,$1+$1,$8,$9*
0 Add four rect primitives between the rounded corners*
20,1,$1+$1,$2,$3,$4,$5,0*
20,1,$1+$1,$4,$5,$6,$7,0*
20,1,$1+$1,$6,$7,$8,$9,0*
20,1,$1+$1,$8,$9,$2,$3,0*%
%AMFreePoly0*
4,1,6,1.000000,0.000000,0.500000,-0.750000,-0.500000,-0.750000,-0.500000,0.750000,0.500000,0.750000,1.000000,0.000000,1.000000,0.000000,$1*%
%AMFreePoly1*
4,1,6,0.500000,-0.750000,-0.650000,-0.750000,-0.150000,0.000000,-0.650000,0.750000,0.500000,0.750000,0.500000,-0.750000,0.500000,-0.750000,$1*%
G04 Aperture macros list end*
%ADD10C,1.900000*%
%ADD11C,3.450000*%
%ADD12C,2.200000*%
%ADD13RoundRect,0.250000X0.250000X0.750000X-0.250000X0.750000X-0.250000X-0.750000X0.250000X-0.750000X0*%
%ADD14FreePoly0,180.000000*%
%ADD15FreePoly1,180.000000*%
%ADD16RoundRect,0.225000X0.375000X-0.225000X0.375000X0.225000X-0.375000X0.225000X-0.375000X-0.225000X0*%
%ADD17FreePoly1,270.000000*%
%ADD18FreePoly0,270.000000*%
%ADD19FreePoly1,0.000000*%
%ADD20FreePoly0,0.000000*%
%ADD21RoundRect,0.225000X0.432559X-0.064367X0.260351X0.351379X-0.432559X0.064367X-0.260351X-0.351379X0*%
%ADD22RoundRect,0.225000X0.424264X0.106066X0.106066X0.424264X-0.424264X-0.106066X-0.106066X-0.424264X0*%
%ADD23R,1.752600X1.752600*%
%ADD24C,1.752600*%
%ADD25RoundRect,0.225000X0.411690X-0.147518X0.323899X0.293836X-0.411690X0.147518X-0.323899X-0.293836X0*%
%ADD26C,1.000000*%
%ADD27RoundRect,0.102000X0.600000X1.250000X-0.600000X1.250000X-0.600000X-1.250000X0.600000X-1.250000X0*%
G04 APERTURE END LIST*
D10*
%TO.C,S25*%
X75278736Y-101648797D03*
D11*
X80778736Y-101648797D03*
D10*
X86278736Y-101648797D03*
D12*
X80778736Y-95748797D03*
X85778736Y-97848797D03*
%TD*%
D10*
%TO.C,S2*%
X56328733Y-45689422D03*
D11*
X61828733Y-45689422D03*
D10*
X67328733Y-45689422D03*
D12*
X61828733Y-39789422D03*
X66828733Y-41889422D03*
%TD*%
D10*
%TO.C,S32*%
X113178733Y-121889422D03*
D11*
X118678733Y-121889422D03*
D10*
X124178733Y-121889422D03*
D12*
X118678733Y-115989422D03*
X123678733Y-118089422D03*
%TD*%
D13*
%TO.C,GND*%
X157288733Y-66880422D03*
%TD*%
D14*
%TO.C,JP4*%
X166525733Y-74357422D03*
D15*
X165075733Y-74357422D03*
%TD*%
D10*
%TO.C,S31*%
X113178733Y-102839422D03*
D11*
X118678733Y-102839422D03*
D10*
X124178733Y-102839422D03*
D12*
X118678733Y-96939422D03*
X123678733Y-99039422D03*
%TD*%
D16*
%TO.C,D15*%
X90530733Y-82108797D03*
X90530733Y-78808797D03*
%TD*%
D10*
%TO.C,S16*%
X94228729Y-81208172D03*
D11*
X99728729Y-81208172D03*
D10*
X105228729Y-81208172D03*
D12*
X99728729Y-75308172D03*
X104728729Y-77408172D03*
%TD*%
D10*
%TO.C,S30*%
X127558547Y-149290612D03*
D11*
X132952866Y-148217615D03*
D10*
X138347185Y-147144618D03*
D12*
X131801833Y-142430982D03*
X137115449Y-143515179D03*
%TD*%
D10*
%TO.C,S12*%
X132328735Y-64739422D03*
D11*
X137828735Y-64739422D03*
D10*
X143328735Y-64739422D03*
D12*
X137828735Y-58839422D03*
X142828735Y-60939422D03*
%TD*%
D16*
%TO.C,D12*%
X147528733Y-64357422D03*
X147528733Y-61057422D03*
%TD*%
%TO.C,D14*%
X71446733Y-83425422D03*
X71446733Y-80125422D03*
%TD*%
D10*
%TO.C,S34*%
X132128732Y-102839422D03*
D11*
X137628732Y-102839422D03*
D10*
X143128732Y-102839422D03*
D12*
X137628732Y-96939422D03*
X142628732Y-99039422D03*
%TD*%
D14*
%TO.C,JP9*%
X161953733Y-92010422D03*
D15*
X160503733Y-92010422D03*
%TD*%
D10*
%TO.C,S26*%
X75278736Y-120698797D03*
D11*
X80778736Y-120698797D03*
D10*
X86278736Y-120698797D03*
D12*
X80778736Y-114798797D03*
X85778736Y-116898797D03*
%TD*%
D10*
%TO.C,S19*%
X37278733Y-102839422D03*
D11*
X42778733Y-102839422D03*
D10*
X48278733Y-102839422D03*
D12*
X42778733Y-96939422D03*
X47778733Y-99039422D03*
%TD*%
D10*
%TO.C,S23*%
X56328732Y-121889422D03*
D11*
X61828732Y-121889422D03*
D10*
X67328732Y-121889422D03*
D12*
X61828732Y-115989422D03*
X66828732Y-118089422D03*
%TD*%
D14*
%TO.C,JP10*%
X161953733Y-95820422D03*
D15*
X160503733Y-95820422D03*
%TD*%
D10*
%TO.C,S4*%
X94428733Y-43308172D03*
D11*
X99928733Y-43308172D03*
D10*
X105428733Y-43308172D03*
D12*
X99928733Y-37408172D03*
X104928733Y-39508172D03*
%TD*%
D16*
%TO.C,D3*%
X90530733Y-43998797D03*
X90530733Y-40698797D03*
%TD*%
D17*
%TO.C,JP5*%
X152246733Y-80929422D03*
D18*
X152246733Y-79479422D03*
%TD*%
D16*
%TO.C,D32*%
X128444733Y-121307422D03*
X128444733Y-118007422D03*
%TD*%
%TO.C,D19*%
X52362733Y-99193422D03*
X52362733Y-102493422D03*
%TD*%
%TO.C,D11*%
X128672733Y-64357422D03*
X128672733Y-61057422D03*
%TD*%
%TO.C,D22*%
X71446733Y-99193422D03*
X71446733Y-102493422D03*
%TD*%
%TO.C,D16*%
X109360733Y-80790172D03*
X109360733Y-77490172D03*
%TD*%
%TO.C,D34*%
X147274733Y-99193422D03*
X147274733Y-102493422D03*
%TD*%
D19*
%TO.C,JP13*%
X166398733Y-100265422D03*
D20*
X164948733Y-100265422D03*
%TD*%
D10*
%TO.C,S11*%
X113378736Y-64739422D03*
D11*
X118878736Y-64739422D03*
D10*
X124378736Y-64739422D03*
D12*
X118878736Y-58839422D03*
X123878736Y-60939422D03*
%TD*%
D16*
%TO.C,D7*%
X52362733Y-64103422D03*
X52362733Y-60803422D03*
%TD*%
%TO.C,D35*%
X147274733Y-121307422D03*
X147274733Y-118007422D03*
%TD*%
D10*
%TO.C,S8*%
X56328732Y-64739422D03*
D11*
X61828732Y-64739422D03*
D10*
X67328732Y-64739422D03*
D12*
X61828732Y-58839422D03*
X66828732Y-60939422D03*
%TD*%
D10*
%TO.C,S36*%
X170930809Y-132129403D03*
D11*
X174819896Y-128240316D03*
D10*
X178708983Y-124351229D03*
D12*
X170647966Y-124068386D03*
X175668424Y-122017776D03*
%TD*%
D16*
%TO.C,D31*%
X128444733Y-99193422D03*
X128444733Y-102493422D03*
%TD*%
D10*
%TO.C,S17*%
X113178733Y-83789422D03*
D11*
X118678733Y-83789422D03*
D10*
X124178733Y-83789422D03*
D12*
X118678733Y-77889422D03*
X123678733Y-79989422D03*
%TD*%
D14*
%TO.C,JP6*%
X161953733Y-80580422D03*
D15*
X160503733Y-80580422D03*
%TD*%
D16*
%TO.C,D21*%
X52616733Y-140375422D03*
X52616733Y-137075422D03*
%TD*%
%TO.C,D9*%
X90530733Y-63166797D03*
X90530733Y-59866797D03*
%TD*%
D10*
%TO.C,S21*%
X37278733Y-140939422D03*
D11*
X42778733Y-140939422D03*
D10*
X48278733Y-140939422D03*
D12*
X42778733Y-135039422D03*
X47778733Y-137139422D03*
%TD*%
D14*
%TO.C,JP8*%
X161953733Y-88200422D03*
D15*
X160503733Y-88200422D03*
%TD*%
D10*
%TO.C,S13*%
X37278733Y-83789422D03*
D11*
X42778733Y-83789422D03*
D10*
X48278733Y-83789422D03*
D12*
X42778733Y-77889422D03*
X47778733Y-79989422D03*
%TD*%
D16*
%TO.C,D1*%
X52218733Y-45189422D03*
X52218733Y-41889422D03*
%TD*%
%TO.C,D23*%
X71700733Y-121307422D03*
X71700733Y-118007422D03*
%TD*%
D21*
%TO.C,D33*%
X163532055Y-136280777D03*
X162269199Y-133231975D03*
%TD*%
D10*
%TO.C,S7*%
X37278733Y-64739422D03*
D11*
X42778733Y-64739422D03*
D10*
X48278733Y-64739422D03*
D12*
X42778733Y-58839422D03*
X47778733Y-60939422D03*
%TD*%
D14*
%TO.C,JP20*%
X166398733Y-88835422D03*
D15*
X164948733Y-88835422D03*
%TD*%
D16*
%TO.C,D17*%
X128444733Y-83425422D03*
X128444733Y-80125422D03*
%TD*%
D10*
%TO.C,S18*%
X132128732Y-83789422D03*
D11*
X137628732Y-83789422D03*
D10*
X143128732Y-83789422D03*
D12*
X137628732Y-77889422D03*
X142628732Y-79989422D03*
%TD*%
D14*
%TO.C,JP11*%
X161953733Y-99630422D03*
D15*
X160503733Y-99630422D03*
%TD*%
D16*
%TO.C,D24*%
X71700733Y-140375422D03*
X71700733Y-137075422D03*
%TD*%
D14*
%TO.C,JP21*%
X166398733Y-85025422D03*
D15*
X164948733Y-85025422D03*
%TD*%
D10*
%TO.C,S3*%
X75378733Y-44498797D03*
D11*
X80878733Y-44498797D03*
D10*
X86378733Y-44498797D03*
D12*
X80878733Y-38598797D03*
X85878733Y-40698797D03*
%TD*%
D16*
%TO.C,D26*%
X90530733Y-120116797D03*
X90530733Y-116816797D03*
%TD*%
%TO.C,D8*%
X71446733Y-64357422D03*
X71446733Y-61057422D03*
%TD*%
D10*
%TO.C,S20*%
X37278733Y-121889422D03*
D11*
X42778733Y-121889422D03*
D10*
X48278733Y-121889422D03*
D12*
X42778733Y-115989422D03*
X47778733Y-118089422D03*
%TD*%
D22*
%TO.C,D36*%
X181241838Y-121020753D03*
X178908386Y-118687301D03*
%TD*%
D10*
%TO.C,S5*%
X113478733Y-45689422D03*
D11*
X118978733Y-45689422D03*
D10*
X124478733Y-45689422D03*
D12*
X118978733Y-39789422D03*
X123978733Y-41889422D03*
%TD*%
D16*
%TO.C,D10*%
X109614733Y-61722172D03*
X109614733Y-58422172D03*
%TD*%
D14*
%TO.C,JP2*%
X161953733Y-72960422D03*
D15*
X160503733Y-72960422D03*
%TD*%
D10*
%TO.C,S9*%
X75378732Y-63548797D03*
D11*
X80878732Y-63548797D03*
D10*
X86378732Y-63548797D03*
D12*
X80878732Y-57648797D03*
X85878732Y-59748797D03*
%TD*%
D14*
%TO.C,JP7*%
X161953733Y-84390422D03*
D15*
X160503733Y-84390422D03*
%TD*%
D16*
%TO.C,D27*%
X90530733Y-139184797D03*
X90530733Y-135884797D03*
%TD*%
D10*
%TO.C,S10*%
X94428732Y-62158172D03*
D11*
X99928732Y-62158172D03*
D10*
X105428732Y-62158172D03*
D12*
X99928732Y-56258172D03*
X104928732Y-58358172D03*
%TD*%
D23*
%TO.C,U1*%
X156018733Y-75135422D03*
D24*
X156018733Y-77675422D03*
X156018733Y-80215422D03*
X156018733Y-82755422D03*
X156018733Y-85295422D03*
X156018733Y-87835422D03*
X156018733Y-90375422D03*
X156018733Y-92915422D03*
X156018733Y-95455422D03*
X156018733Y-97995422D03*
X156018733Y-100535422D03*
X156018733Y-103075422D03*
X171258733Y-103075422D03*
X171258733Y-100535422D03*
X171258733Y-97995422D03*
X171258733Y-95455422D03*
X171258733Y-92915422D03*
X171258733Y-90375422D03*
X171258733Y-87835422D03*
X171258733Y-85295422D03*
X171258733Y-82755422D03*
X171258733Y-80215422D03*
X171258733Y-77675422D03*
X171258733Y-75135422D03*
%TD*%
D25*
%TO.C,D30*%
X141684981Y-142744905D03*
X142328779Y-145981497D03*
%TD*%
D26*
%TO.C,S37*%
X167382733Y-63605422D03*
X160582733Y-63605422D03*
D27*
X166482733Y-66355422D03*
X163982733Y-66355422D03*
X161482733Y-66355422D03*
%TD*%
D10*
%TO.C,S6*%
X132528733Y-45689422D03*
D11*
X138028733Y-45689422D03*
D10*
X143528733Y-45689422D03*
D12*
X138028733Y-39789422D03*
X143028733Y-41889422D03*
%TD*%
D16*
%TO.C,D20*%
X52362733Y-121307422D03*
X52362733Y-118007422D03*
%TD*%
D10*
%TO.C,S28*%
X94228729Y-100258172D03*
D11*
X99728729Y-100258172D03*
D10*
X105228729Y-100258172D03*
D12*
X99728729Y-94358172D03*
X104728729Y-96458172D03*
%TD*%
D16*
%TO.C,D13*%
X52362733Y-83299422D03*
X52362733Y-79999422D03*
%TD*%
D19*
%TO.C,JP12*%
X166398733Y-96455422D03*
D20*
X164948733Y-96455422D03*
%TD*%
D16*
%TO.C,D2*%
X71428733Y-45189422D03*
X71428733Y-41889422D03*
%TD*%
D10*
%TO.C,S22*%
X56328732Y-102839422D03*
D11*
X61828732Y-102839422D03*
D10*
X67328732Y-102839422D03*
D12*
X61828732Y-96939422D03*
X66828732Y-99039422D03*
%TD*%
D10*
%TO.C,S29*%
X94228729Y-119308172D03*
D11*
X99728729Y-119308172D03*
D10*
X105228729Y-119308172D03*
D12*
X99728729Y-113408172D03*
X104728729Y-115508172D03*
%TD*%
D10*
%TO.C,S24*%
X56328732Y-140939422D03*
D11*
X61828732Y-140939422D03*
D10*
X67328732Y-140939422D03*
D12*
X61828732Y-135039422D03*
X66828732Y-137139422D03*
%TD*%
D10*
%TO.C,S33*%
X149741145Y-142878556D03*
D11*
X154822482Y-140773797D03*
D10*
X159903819Y-138669038D03*
D12*
X152564650Y-135322908D03*
X157987683Y-135349638D03*
%TD*%
D16*
%TO.C,D18*%
X146766733Y-83425422D03*
X146766733Y-80125422D03*
%TD*%
%TO.C,D28*%
X109360733Y-99858172D03*
X109360733Y-96558172D03*
%TD*%
D10*
%TO.C,S1*%
X37278733Y-45689422D03*
D11*
X42778733Y-45689422D03*
D10*
X48278733Y-45689422D03*
D12*
X42778733Y-39789422D03*
X47778733Y-41889422D03*
%TD*%
D14*
%TO.C,JP3*%
X161953733Y-76770422D03*
D15*
X160503733Y-76770422D03*
%TD*%
D10*
%TO.C,S27*%
X75278736Y-139748797D03*
D11*
X80778736Y-139748797D03*
D10*
X86278736Y-139748797D03*
D12*
X80778736Y-133848797D03*
X85778736Y-135948797D03*
%TD*%
D16*
%TO.C,D6*%
X147782733Y-45307422D03*
X147782733Y-42007422D03*
%TD*%
%TO.C,D29*%
X109360733Y-118926172D03*
X109360733Y-115626172D03*
%TD*%
D10*
%TO.C,S15*%
X75278736Y-82598797D03*
D11*
X80778736Y-82598797D03*
D10*
X86278736Y-82598797D03*
D12*
X80778736Y-76698797D03*
X85778736Y-78798797D03*
%TD*%
D16*
%TO.C,D4*%
X109614733Y-42672172D03*
X109614733Y-39372172D03*
%TD*%
D10*
%TO.C,S35*%
X132128732Y-121889422D03*
D11*
X137628732Y-121889422D03*
D10*
X143128732Y-121889422D03*
D12*
X137628732Y-115989422D03*
X142628732Y-118089422D03*
%TD*%
D10*
%TO.C,S14*%
X56328732Y-83789422D03*
D11*
X61828732Y-83789422D03*
D10*
X67328732Y-83789422D03*
D12*
X61828732Y-77889422D03*
X66828732Y-79989422D03*
%TD*%
D16*
%TO.C,D5*%
X128698733Y-45307422D03*
X128698733Y-42007422D03*
%TD*%
%TO.C,D25*%
X90530733Y-98002797D03*
X90530733Y-101302797D03*
%TD*%
M02*
