%TF.GenerationSoftware,KiCad,Pcbnew,7.0.10*%
%TF.CreationDate,2024-03-21T17:03:09-05:00*%
%TF.ProjectId,Tair,54616972-2e6b-4696-9361-645f70636258,rev?*%
%TF.SameCoordinates,Original*%
%TF.FileFunction,Legend,Bot*%
%TF.FilePolarity,Positive*%
%FSLAX46Y46*%
G04 Gerber Fmt 4.6, Leading zero omitted, Abs format (unit mm)*
G04 Created by KiCad (PCBNEW 7.0.10) date 2024-03-21 17:03:09*
%MOMM*%
%LPD*%
G01*
G04 APERTURE LIST*
G04 Aperture macros list*
%AMRoundRect*
0 Rectangle with rounded corners*
0 $1 Rounding radius*
0 $2 $3 $4 $5 $6 $7 $8 $9 X,Y pos of 4 corners*
0 Add a 4 corners polygon primitive as box body*
4,1,4,$2,$3,$4,$5,$6,$7,$8,$9,$2,$3,0*
0 Add four circle primitives for the rounded corners*
1,1,$1+$1,$2,$3*
1,1,$1+$1,$4,$5*
1,1,$1+$1,$6,$7*
1,1,$1+$1,$8,$9*
0 Add four rect primitives between the rounded corners*
20,1,$1+$1,$2,$3,$4,$5,0*
20,1,$1+$1,$4,$5,$6,$7,0*
20,1,$1+$1,$6,$7,$8,$9,0*
20,1,$1+$1,$8,$9,$2,$3,0*%
%AMFreePoly0*
4,1,6,0.500000,-0.750000,-0.650000,-0.750000,-0.150000,0.000000,-0.650000,0.750000,0.500000,0.750000,0.500000,-0.750000,0.500000,-0.750000,$1*%
%AMFreePoly1*
4,1,6,1.000000,0.000000,0.500000,-0.750000,-0.500000,-0.750000,-0.500000,0.750000,0.500000,0.750000,1.000000,0.000000,1.000000,0.000000,$1*%
G04 Aperture macros list end*
%ADD10C,0.150000*%
%ADD11C,0.100000*%
%ADD12C,0.127000*%
%ADD13C,0.120000*%
%ADD14C,0.200000*%
%ADD15RoundRect,0.102000X-0.600000X-1.250000X0.600000X-1.250000X0.600000X1.250000X-0.600000X1.250000X0*%
%ADD16C,1.900000*%
%ADD17C,3.450000*%
%ADD18C,2.200000*%
%ADD19RoundRect,0.250000X0.250000X0.750000X-0.250000X0.750000X-0.250000X-0.750000X0.250000X-0.750000X0*%
%ADD20RoundRect,0.225000X0.375000X-0.225000X0.375000X0.225000X-0.375000X0.225000X-0.375000X-0.225000X0*%
%ADD21FreePoly0,270.000000*%
%ADD22FreePoly1,270.000000*%
%ADD23FreePoly1,180.000000*%
%ADD24FreePoly0,180.000000*%
%ADD25RoundRect,0.225000X0.432559X-0.064367X0.260351X0.351379X-0.432559X0.064367X-0.260351X-0.351379X0*%
%ADD26FreePoly0,0.000000*%
%ADD27FreePoly1,0.000000*%
%ADD28RoundRect,0.225000X0.424264X0.106066X0.106066X0.424264X-0.424264X-0.106066X-0.106066X-0.424264X0*%
%ADD29R,1.752600X1.752600*%
%ADD30C,1.752600*%
%ADD31RoundRect,0.225000X0.411690X-0.147518X0.323899X0.293836X-0.411690X0.147518X-0.323899X-0.293836X0*%
%ADD32C,1.000000*%
G04 APERTURE END LIST*
D10*
X119528637Y-94213860D02*
X119623875Y-94166241D01*
X119623875Y-94166241D02*
X119766732Y-94166241D01*
X119766732Y-94166241D02*
X119909589Y-94213860D01*
X119909589Y-94213860D02*
X120004827Y-94309098D01*
X120004827Y-94309098D02*
X120052446Y-94404336D01*
X120052446Y-94404336D02*
X120100065Y-94594812D01*
X120100065Y-94594812D02*
X120100065Y-94737669D01*
X120100065Y-94737669D02*
X120052446Y-94928145D01*
X120052446Y-94928145D02*
X120004827Y-95023383D01*
X120004827Y-95023383D02*
X119909589Y-95118622D01*
X119909589Y-95118622D02*
X119766732Y-95166241D01*
X119766732Y-95166241D02*
X119671494Y-95166241D01*
X119671494Y-95166241D02*
X119528637Y-95118622D01*
X119528637Y-95118622D02*
X119481018Y-95071002D01*
X119481018Y-95071002D02*
X119481018Y-94737669D01*
X119481018Y-94737669D02*
X119671494Y-94737669D01*
X119052446Y-95166241D02*
X119052446Y-94166241D01*
X119052446Y-94166241D02*
X118481018Y-95166241D01*
X118481018Y-95166241D02*
X118481018Y-94166241D01*
X118004827Y-95166241D02*
X118004827Y-94166241D01*
X118004827Y-94166241D02*
X117766732Y-94166241D01*
X117766732Y-94166241D02*
X117623875Y-94213860D01*
X117623875Y-94213860D02*
X117528637Y-94309098D01*
X117528637Y-94309098D02*
X117481018Y-94404336D01*
X117481018Y-94404336D02*
X117433399Y-94594812D01*
X117433399Y-94594812D02*
X117433399Y-94737669D01*
X117433399Y-94737669D02*
X117481018Y-94928145D01*
X117481018Y-94928145D02*
X117528637Y-95023383D01*
X117528637Y-95023383D02*
X117623875Y-95118622D01*
X117623875Y-95118622D02*
X117766732Y-95166241D01*
X117766732Y-95166241D02*
X118004827Y-95166241D01*
X157601734Y-64188051D02*
X157458772Y-64235704D01*
X157458772Y-64235704D02*
X157220503Y-64235704D01*
X157220503Y-64235704D02*
X157125195Y-64188051D01*
X157125195Y-64188051D02*
X157077541Y-64140397D01*
X157077541Y-64140397D02*
X157029887Y-64045089D01*
X157029887Y-64045089D02*
X157029887Y-63949781D01*
X157029887Y-63949781D02*
X157077541Y-63854473D01*
X157077541Y-63854473D02*
X157125195Y-63806819D01*
X157125195Y-63806819D02*
X157220503Y-63759165D01*
X157220503Y-63759165D02*
X157411118Y-63711511D01*
X157411118Y-63711511D02*
X157506426Y-63663858D01*
X157506426Y-63663858D02*
X157554080Y-63616204D01*
X157554080Y-63616204D02*
X157601734Y-63520896D01*
X157601734Y-63520896D02*
X157601734Y-63425588D01*
X157601734Y-63425588D02*
X157554080Y-63330280D01*
X157554080Y-63330280D02*
X157506426Y-63282626D01*
X157506426Y-63282626D02*
X157411118Y-63234972D01*
X157411118Y-63234972D02*
X157172849Y-63234972D01*
X157172849Y-63234972D02*
X157029887Y-63282626D01*
X156696310Y-63234972D02*
X156076809Y-63234972D01*
X156076809Y-63234972D02*
X156410386Y-63616204D01*
X156410386Y-63616204D02*
X156267425Y-63616204D01*
X156267425Y-63616204D02*
X156172117Y-63663858D01*
X156172117Y-63663858D02*
X156124463Y-63711511D01*
X156124463Y-63711511D02*
X156076809Y-63806819D01*
X156076809Y-63806819D02*
X156076809Y-64045089D01*
X156076809Y-64045089D02*
X156124463Y-64140397D01*
X156124463Y-64140397D02*
X156172117Y-64188051D01*
X156172117Y-64188051D02*
X156267425Y-64235704D01*
X156267425Y-64235704D02*
X156553348Y-64235704D01*
X156553348Y-64235704D02*
X156648656Y-64188051D01*
X156648656Y-64188051D02*
X156696310Y-64140397D01*
X155504962Y-63663858D02*
X155600270Y-63616204D01*
X155600270Y-63616204D02*
X155647924Y-63568550D01*
X155647924Y-63568550D02*
X155695578Y-63473242D01*
X155695578Y-63473242D02*
X155695578Y-63425588D01*
X155695578Y-63425588D02*
X155647924Y-63330280D01*
X155647924Y-63330280D02*
X155600270Y-63282626D01*
X155600270Y-63282626D02*
X155504962Y-63234972D01*
X155504962Y-63234972D02*
X155314347Y-63234972D01*
X155314347Y-63234972D02*
X155219039Y-63282626D01*
X155219039Y-63282626D02*
X155171385Y-63330280D01*
X155171385Y-63330280D02*
X155123731Y-63425588D01*
X155123731Y-63425588D02*
X155123731Y-63473242D01*
X155123731Y-63473242D02*
X155171385Y-63568550D01*
X155171385Y-63568550D02*
X155219039Y-63616204D01*
X155219039Y-63616204D02*
X155314347Y-63663858D01*
X155314347Y-63663858D02*
X155504962Y-63663858D01*
X155504962Y-63663858D02*
X155600270Y-63711511D01*
X155600270Y-63711511D02*
X155647924Y-63759165D01*
X155647924Y-63759165D02*
X155695578Y-63854473D01*
X155695578Y-63854473D02*
X155695578Y-64045089D01*
X155695578Y-64045089D02*
X155647924Y-64140397D01*
X155647924Y-64140397D02*
X155600270Y-64188051D01*
X155600270Y-64188051D02*
X155504962Y-64235704D01*
X155504962Y-64235704D02*
X155314347Y-64235704D01*
X155314347Y-64235704D02*
X155219039Y-64188051D01*
X155219039Y-64188051D02*
X155171385Y-64140397D01*
X155171385Y-64140397D02*
X155123731Y-64045089D01*
X155123731Y-64045089D02*
X155123731Y-63854473D01*
X155123731Y-63854473D02*
X155171385Y-63759165D01*
X155171385Y-63759165D02*
X155219039Y-63711511D01*
X155219039Y-63711511D02*
X155314347Y-63663858D01*
D11*
X163730998Y-68981164D02*
X163778617Y-69028783D01*
X163778617Y-69028783D02*
X163873855Y-69076402D01*
X163873855Y-69076402D02*
X164111950Y-69076402D01*
X164111950Y-69076402D02*
X164207188Y-69028783D01*
X164207188Y-69028783D02*
X164254807Y-68981164D01*
X164254807Y-68981164D02*
X164302426Y-68885926D01*
X164302426Y-68885926D02*
X164302426Y-68790688D01*
X164302426Y-68790688D02*
X164254807Y-68647831D01*
X164254807Y-68647831D02*
X163683379Y-68076402D01*
X163683379Y-68076402D02*
X164302426Y-68076402D01*
X166172579Y-69051002D02*
X166791626Y-69051002D01*
X166791626Y-69051002D02*
X166458293Y-68670050D01*
X166458293Y-68670050D02*
X166601150Y-68670050D01*
X166601150Y-68670050D02*
X166696388Y-68622431D01*
X166696388Y-68622431D02*
X166744007Y-68574812D01*
X166744007Y-68574812D02*
X166791626Y-68479574D01*
X166791626Y-68479574D02*
X166791626Y-68241479D01*
X166791626Y-68241479D02*
X166744007Y-68146241D01*
X166744007Y-68146241D02*
X166696388Y-68098622D01*
X166696388Y-68098622D02*
X166601150Y-68051002D01*
X166601150Y-68051002D02*
X166315436Y-68051002D01*
X166315436Y-68051002D02*
X166220198Y-68098622D01*
X166220198Y-68098622D02*
X166172579Y-68146241D01*
X161813226Y-68051002D02*
X161241798Y-68051002D01*
X161527512Y-68051002D02*
X161527512Y-69051002D01*
X161527512Y-69051002D02*
X161432274Y-68908145D01*
X161432274Y-68908145D02*
X161337036Y-68812907D01*
X161337036Y-68812907D02*
X161241798Y-68765288D01*
D10*
X162062066Y-72012241D02*
X162062066Y-72726526D01*
X162062066Y-72726526D02*
X162109685Y-72869383D01*
X162109685Y-72869383D02*
X162204923Y-72964622D01*
X162204923Y-72964622D02*
X162347780Y-73012241D01*
X162347780Y-73012241D02*
X162443018Y-73012241D01*
X161585875Y-73012241D02*
X161585875Y-72012241D01*
X161585875Y-72012241D02*
X161204923Y-72012241D01*
X161204923Y-72012241D02*
X161109685Y-72059860D01*
X161109685Y-72059860D02*
X161062066Y-72107479D01*
X161062066Y-72107479D02*
X161014447Y-72202717D01*
X161014447Y-72202717D02*
X161014447Y-72345574D01*
X161014447Y-72345574D02*
X161062066Y-72440812D01*
X161062066Y-72440812D02*
X161109685Y-72488431D01*
X161109685Y-72488431D02*
X161204923Y-72536050D01*
X161204923Y-72536050D02*
X161585875Y-72536050D01*
X160062066Y-73012241D02*
X160633494Y-73012241D01*
X160347780Y-73012241D02*
X160347780Y-72012241D01*
X160347780Y-72012241D02*
X160443018Y-72155098D01*
X160443018Y-72155098D02*
X160538256Y-72250336D01*
X160538256Y-72250336D02*
X160633494Y-72297955D01*
X166871062Y-100878530D02*
X166871062Y-101592815D01*
X166871062Y-101592815D02*
X166918681Y-101735672D01*
X166918681Y-101735672D02*
X167013919Y-101830911D01*
X167013919Y-101830911D02*
X167156776Y-101878530D01*
X167156776Y-101878530D02*
X167252014Y-101878530D01*
X166394871Y-101878530D02*
X166394871Y-100878530D01*
X166394871Y-100878530D02*
X166013919Y-100878530D01*
X166013919Y-100878530D02*
X165918681Y-100926149D01*
X165918681Y-100926149D02*
X165871062Y-100973768D01*
X165871062Y-100973768D02*
X165823443Y-101069006D01*
X165823443Y-101069006D02*
X165823443Y-101211863D01*
X165823443Y-101211863D02*
X165871062Y-101307101D01*
X165871062Y-101307101D02*
X165918681Y-101354720D01*
X165918681Y-101354720D02*
X166013919Y-101402339D01*
X166013919Y-101402339D02*
X166394871Y-101402339D01*
X165490109Y-100878530D02*
X164871062Y-100878530D01*
X164871062Y-100878530D02*
X165204395Y-101259482D01*
X165204395Y-101259482D02*
X165061538Y-101259482D01*
X165061538Y-101259482D02*
X164966300Y-101307101D01*
X164966300Y-101307101D02*
X164918681Y-101354720D01*
X164918681Y-101354720D02*
X164871062Y-101449958D01*
X164871062Y-101449958D02*
X164871062Y-101688053D01*
X164871062Y-101688053D02*
X164918681Y-101783291D01*
X164918681Y-101783291D02*
X164966300Y-101830911D01*
X164966300Y-101830911D02*
X165061538Y-101878530D01*
X165061538Y-101878530D02*
X165347252Y-101878530D01*
X165347252Y-101878530D02*
X165442490Y-101830911D01*
X165442490Y-101830911D02*
X165490109Y-101783291D01*
X164394871Y-101878530D02*
X164204395Y-101878530D01*
X164204395Y-101878530D02*
X164109157Y-101830911D01*
X164109157Y-101830911D02*
X164061538Y-101783291D01*
X164061538Y-101783291D02*
X163966300Y-101640434D01*
X163966300Y-101640434D02*
X163918681Y-101449958D01*
X163918681Y-101449958D02*
X163918681Y-101069006D01*
X163918681Y-101069006D02*
X163966300Y-100973768D01*
X163966300Y-100973768D02*
X164013919Y-100926149D01*
X164013919Y-100926149D02*
X164109157Y-100878530D01*
X164109157Y-100878530D02*
X164299633Y-100878530D01*
X164299633Y-100878530D02*
X164394871Y-100926149D01*
X164394871Y-100926149D02*
X164442490Y-100973768D01*
X164442490Y-100973768D02*
X164490109Y-101069006D01*
X164490109Y-101069006D02*
X164490109Y-101307101D01*
X164490109Y-101307101D02*
X164442490Y-101402339D01*
X164442490Y-101402339D02*
X164394871Y-101449958D01*
X164394871Y-101449958D02*
X164299633Y-101497577D01*
X164299633Y-101497577D02*
X164109157Y-101497577D01*
X164109157Y-101497577D02*
X164013919Y-101449958D01*
X164013919Y-101449958D02*
X163966300Y-101402339D01*
X163966300Y-101402339D02*
X163918681Y-101307101D01*
X162426062Y-97808530D02*
X162426062Y-98522815D01*
X162426062Y-98522815D02*
X162473681Y-98665672D01*
X162473681Y-98665672D02*
X162568919Y-98760911D01*
X162568919Y-98760911D02*
X162711776Y-98808530D01*
X162711776Y-98808530D02*
X162807014Y-98808530D01*
X161949871Y-98808530D02*
X161949871Y-97808530D01*
X161949871Y-97808530D02*
X161568919Y-97808530D01*
X161568919Y-97808530D02*
X161473681Y-97856149D01*
X161473681Y-97856149D02*
X161426062Y-97903768D01*
X161426062Y-97903768D02*
X161378443Y-97999006D01*
X161378443Y-97999006D02*
X161378443Y-98141863D01*
X161378443Y-98141863D02*
X161426062Y-98237101D01*
X161426062Y-98237101D02*
X161473681Y-98284720D01*
X161473681Y-98284720D02*
X161568919Y-98332339D01*
X161568919Y-98332339D02*
X161949871Y-98332339D01*
X161045109Y-97808530D02*
X160426062Y-97808530D01*
X160426062Y-97808530D02*
X160759395Y-98189482D01*
X160759395Y-98189482D02*
X160616538Y-98189482D01*
X160616538Y-98189482D02*
X160521300Y-98237101D01*
X160521300Y-98237101D02*
X160473681Y-98284720D01*
X160473681Y-98284720D02*
X160426062Y-98379958D01*
X160426062Y-98379958D02*
X160426062Y-98618053D01*
X160426062Y-98618053D02*
X160473681Y-98713291D01*
X160473681Y-98713291D02*
X160521300Y-98760911D01*
X160521300Y-98760911D02*
X160616538Y-98808530D01*
X160616538Y-98808530D02*
X160902252Y-98808530D01*
X160902252Y-98808530D02*
X160997490Y-98760911D01*
X160997490Y-98760911D02*
X161045109Y-98713291D01*
X159854633Y-98237101D02*
X159949871Y-98189482D01*
X159949871Y-98189482D02*
X159997490Y-98141863D01*
X159997490Y-98141863D02*
X160045109Y-98046625D01*
X160045109Y-98046625D02*
X160045109Y-97999006D01*
X160045109Y-97999006D02*
X159997490Y-97903768D01*
X159997490Y-97903768D02*
X159949871Y-97856149D01*
X159949871Y-97856149D02*
X159854633Y-97808530D01*
X159854633Y-97808530D02*
X159664157Y-97808530D01*
X159664157Y-97808530D02*
X159568919Y-97856149D01*
X159568919Y-97856149D02*
X159521300Y-97903768D01*
X159521300Y-97903768D02*
X159473681Y-97999006D01*
X159473681Y-97999006D02*
X159473681Y-98046625D01*
X159473681Y-98046625D02*
X159521300Y-98141863D01*
X159521300Y-98141863D02*
X159568919Y-98189482D01*
X159568919Y-98189482D02*
X159664157Y-98237101D01*
X159664157Y-98237101D02*
X159854633Y-98237101D01*
X159854633Y-98237101D02*
X159949871Y-98284720D01*
X159949871Y-98284720D02*
X159997490Y-98332339D01*
X159997490Y-98332339D02*
X160045109Y-98427577D01*
X160045109Y-98427577D02*
X160045109Y-98618053D01*
X160045109Y-98618053D02*
X159997490Y-98713291D01*
X159997490Y-98713291D02*
X159949871Y-98760911D01*
X159949871Y-98760911D02*
X159854633Y-98808530D01*
X159854633Y-98808530D02*
X159664157Y-98808530D01*
X159664157Y-98808530D02*
X159568919Y-98760911D01*
X159568919Y-98760911D02*
X159521300Y-98713291D01*
X159521300Y-98713291D02*
X159473681Y-98618053D01*
X159473681Y-98618053D02*
X159473681Y-98427577D01*
X159473681Y-98427577D02*
X159521300Y-98332339D01*
X159521300Y-98332339D02*
X159568919Y-98284720D01*
X159568919Y-98284720D02*
X159664157Y-98237101D01*
X158729208Y-77967717D02*
X158729208Y-77167717D01*
X158729208Y-77167717D02*
X158538732Y-77167717D01*
X158538732Y-77167717D02*
X158424446Y-77205812D01*
X158424446Y-77205812D02*
X158348256Y-77282002D01*
X158348256Y-77282002D02*
X158310161Y-77358193D01*
X158310161Y-77358193D02*
X158272065Y-77510574D01*
X158272065Y-77510574D02*
X158272065Y-77624860D01*
X158272065Y-77624860D02*
X158310161Y-77777241D01*
X158310161Y-77777241D02*
X158348256Y-77853431D01*
X158348256Y-77853431D02*
X158424446Y-77929622D01*
X158424446Y-77929622D02*
X158538732Y-77967717D01*
X158538732Y-77967717D02*
X158729208Y-77967717D01*
X157776827Y-77167717D02*
X157700637Y-77167717D01*
X157700637Y-77167717D02*
X157624446Y-77205812D01*
X157624446Y-77205812D02*
X157586351Y-77243907D01*
X157586351Y-77243907D02*
X157548256Y-77320098D01*
X157548256Y-77320098D02*
X157510161Y-77472479D01*
X157510161Y-77472479D02*
X157510161Y-77662955D01*
X157510161Y-77662955D02*
X157548256Y-77815336D01*
X157548256Y-77815336D02*
X157586351Y-77891526D01*
X157586351Y-77891526D02*
X157624446Y-77929622D01*
X157624446Y-77929622D02*
X157700637Y-77967717D01*
X157700637Y-77967717D02*
X157776827Y-77967717D01*
X157776827Y-77967717D02*
X157853018Y-77929622D01*
X157853018Y-77929622D02*
X157891113Y-77891526D01*
X157891113Y-77891526D02*
X157929208Y-77815336D01*
X157929208Y-77815336D02*
X157967304Y-77662955D01*
X157967304Y-77662955D02*
X157967304Y-77472479D01*
X157967304Y-77472479D02*
X157929208Y-77320098D01*
X157929208Y-77320098D02*
X157891113Y-77243907D01*
X157891113Y-77243907D02*
X157853018Y-77205812D01*
X157853018Y-77205812D02*
X157776827Y-77167717D01*
X169498828Y-75008669D02*
X169384542Y-75046764D01*
X169384542Y-75046764D02*
X169346447Y-75084860D01*
X169346447Y-75084860D02*
X169308351Y-75161050D01*
X169308351Y-75161050D02*
X169308351Y-75275336D01*
X169308351Y-75275336D02*
X169346447Y-75351526D01*
X169346447Y-75351526D02*
X169384542Y-75389622D01*
X169384542Y-75389622D02*
X169460732Y-75427717D01*
X169460732Y-75427717D02*
X169765494Y-75427717D01*
X169765494Y-75427717D02*
X169765494Y-74627717D01*
X169765494Y-74627717D02*
X169498828Y-74627717D01*
X169498828Y-74627717D02*
X169422637Y-74665812D01*
X169422637Y-74665812D02*
X169384542Y-74703907D01*
X169384542Y-74703907D02*
X169346447Y-74780098D01*
X169346447Y-74780098D02*
X169346447Y-74856288D01*
X169346447Y-74856288D02*
X169384542Y-74932479D01*
X169384542Y-74932479D02*
X169422637Y-74970574D01*
X169422637Y-74970574D02*
X169498828Y-75008669D01*
X169498828Y-75008669D02*
X169765494Y-75008669D01*
X168965494Y-75122955D02*
X168355971Y-75122955D01*
X168660732Y-75427717D02*
X168660732Y-74818193D01*
X169821161Y-95677717D02*
X169821161Y-94877717D01*
X169821161Y-94877717D02*
X169630685Y-94877717D01*
X169630685Y-94877717D02*
X169516399Y-94915812D01*
X169516399Y-94915812D02*
X169440209Y-94992002D01*
X169440209Y-94992002D02*
X169402114Y-95068193D01*
X169402114Y-95068193D02*
X169364018Y-95220574D01*
X169364018Y-95220574D02*
X169364018Y-95334860D01*
X169364018Y-95334860D02*
X169402114Y-95487241D01*
X169402114Y-95487241D02*
X169440209Y-95563431D01*
X169440209Y-95563431D02*
X169516399Y-95639622D01*
X169516399Y-95639622D02*
X169630685Y-95677717D01*
X169630685Y-95677717D02*
X169821161Y-95677717D01*
X168602114Y-95677717D02*
X169059257Y-95677717D01*
X168830685Y-95677717D02*
X168830685Y-94877717D01*
X168830685Y-94877717D02*
X168906876Y-94992002D01*
X168906876Y-94992002D02*
X168983066Y-95068193D01*
X168983066Y-95068193D02*
X169059257Y-95106288D01*
X167878304Y-94877717D02*
X168259256Y-94877717D01*
X168259256Y-94877717D02*
X168297352Y-95258669D01*
X168297352Y-95258669D02*
X168259256Y-95220574D01*
X168259256Y-95220574D02*
X168183066Y-95182479D01*
X168183066Y-95182479D02*
X167992590Y-95182479D01*
X167992590Y-95182479D02*
X167916399Y-95220574D01*
X167916399Y-95220574D02*
X167878304Y-95258669D01*
X167878304Y-95258669D02*
X167840209Y-95334860D01*
X167840209Y-95334860D02*
X167840209Y-95525336D01*
X167840209Y-95525336D02*
X167878304Y-95601526D01*
X167878304Y-95601526D02*
X167916399Y-95639622D01*
X167916399Y-95639622D02*
X167992590Y-95677717D01*
X167992590Y-95677717D02*
X168183066Y-95677717D01*
X168183066Y-95677717D02*
X168259256Y-95639622D01*
X168259256Y-95639622D02*
X168297352Y-95601526D01*
X159190208Y-75427717D02*
X159190208Y-74627717D01*
X159190208Y-74627717D02*
X158999732Y-74627717D01*
X158999732Y-74627717D02*
X158885446Y-74665812D01*
X158885446Y-74665812D02*
X158809256Y-74742002D01*
X158809256Y-74742002D02*
X158771161Y-74818193D01*
X158771161Y-74818193D02*
X158733065Y-74970574D01*
X158733065Y-74970574D02*
X158733065Y-75084860D01*
X158733065Y-75084860D02*
X158771161Y-75237241D01*
X158771161Y-75237241D02*
X158809256Y-75313431D01*
X158809256Y-75313431D02*
X158885446Y-75389622D01*
X158885446Y-75389622D02*
X158999732Y-75427717D01*
X158999732Y-75427717D02*
X159190208Y-75427717D01*
X157971161Y-75427717D02*
X158428304Y-75427717D01*
X158199732Y-75427717D02*
X158199732Y-74627717D01*
X158199732Y-74627717D02*
X158275923Y-74742002D01*
X158275923Y-74742002D02*
X158352113Y-74818193D01*
X158352113Y-74818193D02*
X158428304Y-74856288D01*
X169821161Y-85517717D02*
X169821161Y-84717717D01*
X169821161Y-84717717D02*
X169630685Y-84717717D01*
X169630685Y-84717717D02*
X169516399Y-84755812D01*
X169516399Y-84755812D02*
X169440209Y-84832002D01*
X169440209Y-84832002D02*
X169402114Y-84908193D01*
X169402114Y-84908193D02*
X169364018Y-85060574D01*
X169364018Y-85060574D02*
X169364018Y-85174860D01*
X169364018Y-85174860D02*
X169402114Y-85327241D01*
X169402114Y-85327241D02*
X169440209Y-85403431D01*
X169440209Y-85403431D02*
X169516399Y-85479622D01*
X169516399Y-85479622D02*
X169630685Y-85517717D01*
X169630685Y-85517717D02*
X169821161Y-85517717D01*
X169059257Y-84793907D02*
X169021161Y-84755812D01*
X169021161Y-84755812D02*
X168944971Y-84717717D01*
X168944971Y-84717717D02*
X168754495Y-84717717D01*
X168754495Y-84717717D02*
X168678304Y-84755812D01*
X168678304Y-84755812D02*
X168640209Y-84793907D01*
X168640209Y-84793907D02*
X168602114Y-84870098D01*
X168602114Y-84870098D02*
X168602114Y-84946288D01*
X168602114Y-84946288D02*
X168640209Y-85060574D01*
X168640209Y-85060574D02*
X169097352Y-85517717D01*
X169097352Y-85517717D02*
X168602114Y-85517717D01*
X167840209Y-85517717D02*
X168297352Y-85517717D01*
X168068780Y-85517717D02*
X168068780Y-84717717D01*
X168068780Y-84717717D02*
X168144971Y-84832002D01*
X168144971Y-84832002D02*
X168221161Y-84908193D01*
X168221161Y-84908193D02*
X168297352Y-84946288D01*
X169821161Y-88057717D02*
X169821161Y-87257717D01*
X169821161Y-87257717D02*
X169630685Y-87257717D01*
X169630685Y-87257717D02*
X169516399Y-87295812D01*
X169516399Y-87295812D02*
X169440209Y-87372002D01*
X169440209Y-87372002D02*
X169402114Y-87448193D01*
X169402114Y-87448193D02*
X169364018Y-87600574D01*
X169364018Y-87600574D02*
X169364018Y-87714860D01*
X169364018Y-87714860D02*
X169402114Y-87867241D01*
X169402114Y-87867241D02*
X169440209Y-87943431D01*
X169440209Y-87943431D02*
X169516399Y-88019622D01*
X169516399Y-88019622D02*
X169630685Y-88057717D01*
X169630685Y-88057717D02*
X169821161Y-88057717D01*
X169059257Y-87333907D02*
X169021161Y-87295812D01*
X169021161Y-87295812D02*
X168944971Y-87257717D01*
X168944971Y-87257717D02*
X168754495Y-87257717D01*
X168754495Y-87257717D02*
X168678304Y-87295812D01*
X168678304Y-87295812D02*
X168640209Y-87333907D01*
X168640209Y-87333907D02*
X168602114Y-87410098D01*
X168602114Y-87410098D02*
X168602114Y-87486288D01*
X168602114Y-87486288D02*
X168640209Y-87600574D01*
X168640209Y-87600574D02*
X169097352Y-88057717D01*
X169097352Y-88057717D02*
X168602114Y-88057717D01*
X168106875Y-87257717D02*
X168030685Y-87257717D01*
X168030685Y-87257717D02*
X167954494Y-87295812D01*
X167954494Y-87295812D02*
X167916399Y-87333907D01*
X167916399Y-87333907D02*
X167878304Y-87410098D01*
X167878304Y-87410098D02*
X167840209Y-87562479D01*
X167840209Y-87562479D02*
X167840209Y-87752955D01*
X167840209Y-87752955D02*
X167878304Y-87905336D01*
X167878304Y-87905336D02*
X167916399Y-87981526D01*
X167916399Y-87981526D02*
X167954494Y-88019622D01*
X167954494Y-88019622D02*
X168030685Y-88057717D01*
X168030685Y-88057717D02*
X168106875Y-88057717D01*
X168106875Y-88057717D02*
X168183066Y-88019622D01*
X168183066Y-88019622D02*
X168221161Y-87981526D01*
X168221161Y-87981526D02*
X168259256Y-87905336D01*
X168259256Y-87905336D02*
X168297352Y-87752955D01*
X168297352Y-87752955D02*
X168297352Y-87562479D01*
X168297352Y-87562479D02*
X168259256Y-87410098D01*
X168259256Y-87410098D02*
X168221161Y-87333907D01*
X168221161Y-87333907D02*
X168183066Y-87295812D01*
X168183066Y-87295812D02*
X168106875Y-87257717D01*
X158729208Y-103367717D02*
X158729208Y-102567717D01*
X158729208Y-102567717D02*
X158538732Y-102567717D01*
X158538732Y-102567717D02*
X158424446Y-102605812D01*
X158424446Y-102605812D02*
X158348256Y-102682002D01*
X158348256Y-102682002D02*
X158310161Y-102758193D01*
X158310161Y-102758193D02*
X158272065Y-102910574D01*
X158272065Y-102910574D02*
X158272065Y-103024860D01*
X158272065Y-103024860D02*
X158310161Y-103177241D01*
X158310161Y-103177241D02*
X158348256Y-103253431D01*
X158348256Y-103253431D02*
X158424446Y-103329622D01*
X158424446Y-103329622D02*
X158538732Y-103367717D01*
X158538732Y-103367717D02*
X158729208Y-103367717D01*
X157891113Y-103367717D02*
X157738732Y-103367717D01*
X157738732Y-103367717D02*
X157662542Y-103329622D01*
X157662542Y-103329622D02*
X157624446Y-103291526D01*
X157624446Y-103291526D02*
X157548256Y-103177241D01*
X157548256Y-103177241D02*
X157510161Y-103024860D01*
X157510161Y-103024860D02*
X157510161Y-102720098D01*
X157510161Y-102720098D02*
X157548256Y-102643907D01*
X157548256Y-102643907D02*
X157586351Y-102605812D01*
X157586351Y-102605812D02*
X157662542Y-102567717D01*
X157662542Y-102567717D02*
X157814923Y-102567717D01*
X157814923Y-102567717D02*
X157891113Y-102605812D01*
X157891113Y-102605812D02*
X157929208Y-102643907D01*
X157929208Y-102643907D02*
X157967304Y-102720098D01*
X157967304Y-102720098D02*
X157967304Y-102910574D01*
X157967304Y-102910574D02*
X157929208Y-102986764D01*
X157929208Y-102986764D02*
X157891113Y-103024860D01*
X157891113Y-103024860D02*
X157814923Y-103062955D01*
X157814923Y-103062955D02*
X157662542Y-103062955D01*
X157662542Y-103062955D02*
X157586351Y-103024860D01*
X157586351Y-103024860D02*
X157548256Y-102986764D01*
X157548256Y-102986764D02*
X157510161Y-102910574D01*
X158729208Y-100827717D02*
X158729208Y-100027717D01*
X158729208Y-100027717D02*
X158538732Y-100027717D01*
X158538732Y-100027717D02*
X158424446Y-100065812D01*
X158424446Y-100065812D02*
X158348256Y-100142002D01*
X158348256Y-100142002D02*
X158310161Y-100218193D01*
X158310161Y-100218193D02*
X158272065Y-100370574D01*
X158272065Y-100370574D02*
X158272065Y-100484860D01*
X158272065Y-100484860D02*
X158310161Y-100637241D01*
X158310161Y-100637241D02*
X158348256Y-100713431D01*
X158348256Y-100713431D02*
X158424446Y-100789622D01*
X158424446Y-100789622D02*
X158538732Y-100827717D01*
X158538732Y-100827717D02*
X158729208Y-100827717D01*
X157814923Y-100370574D02*
X157891113Y-100332479D01*
X157891113Y-100332479D02*
X157929208Y-100294383D01*
X157929208Y-100294383D02*
X157967304Y-100218193D01*
X157967304Y-100218193D02*
X157967304Y-100180098D01*
X157967304Y-100180098D02*
X157929208Y-100103907D01*
X157929208Y-100103907D02*
X157891113Y-100065812D01*
X157891113Y-100065812D02*
X157814923Y-100027717D01*
X157814923Y-100027717D02*
X157662542Y-100027717D01*
X157662542Y-100027717D02*
X157586351Y-100065812D01*
X157586351Y-100065812D02*
X157548256Y-100103907D01*
X157548256Y-100103907D02*
X157510161Y-100180098D01*
X157510161Y-100180098D02*
X157510161Y-100218193D01*
X157510161Y-100218193D02*
X157548256Y-100294383D01*
X157548256Y-100294383D02*
X157586351Y-100332479D01*
X157586351Y-100332479D02*
X157662542Y-100370574D01*
X157662542Y-100370574D02*
X157814923Y-100370574D01*
X157814923Y-100370574D02*
X157891113Y-100408669D01*
X157891113Y-100408669D02*
X157929208Y-100446764D01*
X157929208Y-100446764D02*
X157967304Y-100522955D01*
X157967304Y-100522955D02*
X157967304Y-100675336D01*
X157967304Y-100675336D02*
X157929208Y-100751526D01*
X157929208Y-100751526D02*
X157891113Y-100789622D01*
X157891113Y-100789622D02*
X157814923Y-100827717D01*
X157814923Y-100827717D02*
X157662542Y-100827717D01*
X157662542Y-100827717D02*
X157586351Y-100789622D01*
X157586351Y-100789622D02*
X157548256Y-100751526D01*
X157548256Y-100751526D02*
X157510161Y-100675336D01*
X157510161Y-100675336D02*
X157510161Y-100522955D01*
X157510161Y-100522955D02*
X157548256Y-100446764D01*
X157548256Y-100446764D02*
X157586351Y-100408669D01*
X157586351Y-100408669D02*
X157662542Y-100370574D01*
X169459256Y-77135812D02*
X169535446Y-77097717D01*
X169535446Y-77097717D02*
X169649732Y-77097717D01*
X169649732Y-77097717D02*
X169764018Y-77135812D01*
X169764018Y-77135812D02*
X169840208Y-77212002D01*
X169840208Y-77212002D02*
X169878303Y-77288193D01*
X169878303Y-77288193D02*
X169916399Y-77440574D01*
X169916399Y-77440574D02*
X169916399Y-77554860D01*
X169916399Y-77554860D02*
X169878303Y-77707241D01*
X169878303Y-77707241D02*
X169840208Y-77783431D01*
X169840208Y-77783431D02*
X169764018Y-77859622D01*
X169764018Y-77859622D02*
X169649732Y-77897717D01*
X169649732Y-77897717D02*
X169573541Y-77897717D01*
X169573541Y-77897717D02*
X169459256Y-77859622D01*
X169459256Y-77859622D02*
X169421160Y-77821526D01*
X169421160Y-77821526D02*
X169421160Y-77554860D01*
X169421160Y-77554860D02*
X169573541Y-77554860D01*
X169078303Y-77897717D02*
X169078303Y-77097717D01*
X169078303Y-77097717D02*
X168621160Y-77897717D01*
X168621160Y-77897717D02*
X168621160Y-77097717D01*
X168240208Y-77897717D02*
X168240208Y-77097717D01*
X168240208Y-77097717D02*
X168049732Y-77097717D01*
X168049732Y-77097717D02*
X167935446Y-77135812D01*
X167935446Y-77135812D02*
X167859256Y-77212002D01*
X167859256Y-77212002D02*
X167821161Y-77288193D01*
X167821161Y-77288193D02*
X167783065Y-77440574D01*
X167783065Y-77440574D02*
X167783065Y-77554860D01*
X167783065Y-77554860D02*
X167821161Y-77707241D01*
X167821161Y-77707241D02*
X167859256Y-77783431D01*
X167859256Y-77783431D02*
X167935446Y-77859622D01*
X167935446Y-77859622D02*
X168049732Y-77897717D01*
X168049732Y-77897717D02*
X168240208Y-77897717D01*
X169821161Y-93137717D02*
X169821161Y-92337717D01*
X169821161Y-92337717D02*
X169630685Y-92337717D01*
X169630685Y-92337717D02*
X169516399Y-92375812D01*
X169516399Y-92375812D02*
X169440209Y-92452002D01*
X169440209Y-92452002D02*
X169402114Y-92528193D01*
X169402114Y-92528193D02*
X169364018Y-92680574D01*
X169364018Y-92680574D02*
X169364018Y-92794860D01*
X169364018Y-92794860D02*
X169402114Y-92947241D01*
X169402114Y-92947241D02*
X169440209Y-93023431D01*
X169440209Y-93023431D02*
X169516399Y-93099622D01*
X169516399Y-93099622D02*
X169630685Y-93137717D01*
X169630685Y-93137717D02*
X169821161Y-93137717D01*
X168602114Y-93137717D02*
X169059257Y-93137717D01*
X168830685Y-93137717D02*
X168830685Y-92337717D01*
X168830685Y-92337717D02*
X168906876Y-92452002D01*
X168906876Y-92452002D02*
X168983066Y-92528193D01*
X168983066Y-92528193D02*
X169059257Y-92566288D01*
X168144971Y-92680574D02*
X168221161Y-92642479D01*
X168221161Y-92642479D02*
X168259256Y-92604383D01*
X168259256Y-92604383D02*
X168297352Y-92528193D01*
X168297352Y-92528193D02*
X168297352Y-92490098D01*
X168297352Y-92490098D02*
X168259256Y-92413907D01*
X168259256Y-92413907D02*
X168221161Y-92375812D01*
X168221161Y-92375812D02*
X168144971Y-92337717D01*
X168144971Y-92337717D02*
X167992590Y-92337717D01*
X167992590Y-92337717D02*
X167916399Y-92375812D01*
X167916399Y-92375812D02*
X167878304Y-92413907D01*
X167878304Y-92413907D02*
X167840209Y-92490098D01*
X167840209Y-92490098D02*
X167840209Y-92528193D01*
X167840209Y-92528193D02*
X167878304Y-92604383D01*
X167878304Y-92604383D02*
X167916399Y-92642479D01*
X167916399Y-92642479D02*
X167992590Y-92680574D01*
X167992590Y-92680574D02*
X168144971Y-92680574D01*
X168144971Y-92680574D02*
X168221161Y-92718669D01*
X168221161Y-92718669D02*
X168259256Y-92756764D01*
X168259256Y-92756764D02*
X168297352Y-92832955D01*
X168297352Y-92832955D02*
X168297352Y-92985336D01*
X168297352Y-92985336D02*
X168259256Y-93061526D01*
X168259256Y-93061526D02*
X168221161Y-93099622D01*
X168221161Y-93099622D02*
X168144971Y-93137717D01*
X168144971Y-93137717D02*
X167992590Y-93137717D01*
X167992590Y-93137717D02*
X167916399Y-93099622D01*
X167916399Y-93099622D02*
X167878304Y-93061526D01*
X167878304Y-93061526D02*
X167840209Y-92985336D01*
X167840209Y-92985336D02*
X167840209Y-92832955D01*
X167840209Y-92832955D02*
X167878304Y-92756764D01*
X167878304Y-92756764D02*
X167916399Y-92718669D01*
X167916399Y-92718669D02*
X167992590Y-92680574D01*
X158729208Y-85587717D02*
X158729208Y-84787717D01*
X158729208Y-84787717D02*
X158538732Y-84787717D01*
X158538732Y-84787717D02*
X158424446Y-84825812D01*
X158424446Y-84825812D02*
X158348256Y-84902002D01*
X158348256Y-84902002D02*
X158310161Y-84978193D01*
X158310161Y-84978193D02*
X158272065Y-85130574D01*
X158272065Y-85130574D02*
X158272065Y-85244860D01*
X158272065Y-85244860D02*
X158310161Y-85397241D01*
X158310161Y-85397241D02*
X158348256Y-85473431D01*
X158348256Y-85473431D02*
X158424446Y-85549622D01*
X158424446Y-85549622D02*
X158538732Y-85587717D01*
X158538732Y-85587717D02*
X158729208Y-85587717D01*
X157967304Y-84863907D02*
X157929208Y-84825812D01*
X157929208Y-84825812D02*
X157853018Y-84787717D01*
X157853018Y-84787717D02*
X157662542Y-84787717D01*
X157662542Y-84787717D02*
X157586351Y-84825812D01*
X157586351Y-84825812D02*
X157548256Y-84863907D01*
X157548256Y-84863907D02*
X157510161Y-84940098D01*
X157510161Y-84940098D02*
X157510161Y-85016288D01*
X157510161Y-85016288D02*
X157548256Y-85130574D01*
X157548256Y-85130574D02*
X158005399Y-85587717D01*
X158005399Y-85587717D02*
X157510161Y-85587717D01*
X158729208Y-88127717D02*
X158729208Y-87327717D01*
X158729208Y-87327717D02*
X158538732Y-87327717D01*
X158538732Y-87327717D02*
X158424446Y-87365812D01*
X158424446Y-87365812D02*
X158348256Y-87442002D01*
X158348256Y-87442002D02*
X158310161Y-87518193D01*
X158310161Y-87518193D02*
X158272065Y-87670574D01*
X158272065Y-87670574D02*
X158272065Y-87784860D01*
X158272065Y-87784860D02*
X158310161Y-87937241D01*
X158310161Y-87937241D02*
X158348256Y-88013431D01*
X158348256Y-88013431D02*
X158424446Y-88089622D01*
X158424446Y-88089622D02*
X158538732Y-88127717D01*
X158538732Y-88127717D02*
X158729208Y-88127717D01*
X158005399Y-87327717D02*
X157510161Y-87327717D01*
X157510161Y-87327717D02*
X157776827Y-87632479D01*
X157776827Y-87632479D02*
X157662542Y-87632479D01*
X157662542Y-87632479D02*
X157586351Y-87670574D01*
X157586351Y-87670574D02*
X157548256Y-87708669D01*
X157548256Y-87708669D02*
X157510161Y-87784860D01*
X157510161Y-87784860D02*
X157510161Y-87975336D01*
X157510161Y-87975336D02*
X157548256Y-88051526D01*
X157548256Y-88051526D02*
X157586351Y-88089622D01*
X157586351Y-88089622D02*
X157662542Y-88127717D01*
X157662542Y-88127717D02*
X157891113Y-88127717D01*
X157891113Y-88127717D02*
X157967304Y-88089622D01*
X157967304Y-88089622D02*
X158005399Y-88051526D01*
X169992590Y-82177717D02*
X169497352Y-82177717D01*
X169497352Y-82177717D02*
X169764018Y-82482479D01*
X169764018Y-82482479D02*
X169649733Y-82482479D01*
X169649733Y-82482479D02*
X169573542Y-82520574D01*
X169573542Y-82520574D02*
X169535447Y-82558669D01*
X169535447Y-82558669D02*
X169497352Y-82634860D01*
X169497352Y-82634860D02*
X169497352Y-82825336D01*
X169497352Y-82825336D02*
X169535447Y-82901526D01*
X169535447Y-82901526D02*
X169573542Y-82939622D01*
X169573542Y-82939622D02*
X169649733Y-82977717D01*
X169649733Y-82977717D02*
X169878304Y-82977717D01*
X169878304Y-82977717D02*
X169954495Y-82939622D01*
X169954495Y-82939622D02*
X169992590Y-82901526D01*
X169154494Y-82901526D02*
X169116399Y-82939622D01*
X169116399Y-82939622D02*
X169154494Y-82977717D01*
X169154494Y-82977717D02*
X169192590Y-82939622D01*
X169192590Y-82939622D02*
X169154494Y-82901526D01*
X169154494Y-82901526D02*
X169154494Y-82977717D01*
X168849733Y-82177717D02*
X168354495Y-82177717D01*
X168354495Y-82177717D02*
X168621161Y-82482479D01*
X168621161Y-82482479D02*
X168506876Y-82482479D01*
X168506876Y-82482479D02*
X168430685Y-82520574D01*
X168430685Y-82520574D02*
X168392590Y-82558669D01*
X168392590Y-82558669D02*
X168354495Y-82634860D01*
X168354495Y-82634860D02*
X168354495Y-82825336D01*
X168354495Y-82825336D02*
X168392590Y-82901526D01*
X168392590Y-82901526D02*
X168430685Y-82939622D01*
X168430685Y-82939622D02*
X168506876Y-82977717D01*
X168506876Y-82977717D02*
X168735447Y-82977717D01*
X168735447Y-82977717D02*
X168811638Y-82939622D01*
X168811638Y-82939622D02*
X168849733Y-82901526D01*
X168087828Y-82444383D02*
X167897352Y-82977717D01*
X167897352Y-82977717D02*
X167706875Y-82444383D01*
X158959256Y-82285812D02*
X159035446Y-82247717D01*
X159035446Y-82247717D02*
X159149732Y-82247717D01*
X159149732Y-82247717D02*
X159264018Y-82285812D01*
X159264018Y-82285812D02*
X159340208Y-82362002D01*
X159340208Y-82362002D02*
X159378303Y-82438193D01*
X159378303Y-82438193D02*
X159416399Y-82590574D01*
X159416399Y-82590574D02*
X159416399Y-82704860D01*
X159416399Y-82704860D02*
X159378303Y-82857241D01*
X159378303Y-82857241D02*
X159340208Y-82933431D01*
X159340208Y-82933431D02*
X159264018Y-83009622D01*
X159264018Y-83009622D02*
X159149732Y-83047717D01*
X159149732Y-83047717D02*
X159073541Y-83047717D01*
X159073541Y-83047717D02*
X158959256Y-83009622D01*
X158959256Y-83009622D02*
X158921160Y-82971526D01*
X158921160Y-82971526D02*
X158921160Y-82704860D01*
X158921160Y-82704860D02*
X159073541Y-82704860D01*
X158578303Y-83047717D02*
X158578303Y-82247717D01*
X158578303Y-82247717D02*
X158121160Y-83047717D01*
X158121160Y-83047717D02*
X158121160Y-82247717D01*
X157740208Y-83047717D02*
X157740208Y-82247717D01*
X157740208Y-82247717D02*
X157549732Y-82247717D01*
X157549732Y-82247717D02*
X157435446Y-82285812D01*
X157435446Y-82285812D02*
X157359256Y-82362002D01*
X157359256Y-82362002D02*
X157321161Y-82438193D01*
X157321161Y-82438193D02*
X157283065Y-82590574D01*
X157283065Y-82590574D02*
X157283065Y-82704860D01*
X157283065Y-82704860D02*
X157321161Y-82857241D01*
X157321161Y-82857241D02*
X157359256Y-82933431D01*
X157359256Y-82933431D02*
X157435446Y-83009622D01*
X157435446Y-83009622D02*
X157549732Y-83047717D01*
X157549732Y-83047717D02*
X157740208Y-83047717D01*
X169821161Y-98217717D02*
X169821161Y-97417717D01*
X169821161Y-97417717D02*
X169630685Y-97417717D01*
X169630685Y-97417717D02*
X169516399Y-97455812D01*
X169516399Y-97455812D02*
X169440209Y-97532002D01*
X169440209Y-97532002D02*
X169402114Y-97608193D01*
X169402114Y-97608193D02*
X169364018Y-97760574D01*
X169364018Y-97760574D02*
X169364018Y-97874860D01*
X169364018Y-97874860D02*
X169402114Y-98027241D01*
X169402114Y-98027241D02*
X169440209Y-98103431D01*
X169440209Y-98103431D02*
X169516399Y-98179622D01*
X169516399Y-98179622D02*
X169630685Y-98217717D01*
X169630685Y-98217717D02*
X169821161Y-98217717D01*
X168602114Y-98217717D02*
X169059257Y-98217717D01*
X168830685Y-98217717D02*
X168830685Y-97417717D01*
X168830685Y-97417717D02*
X168906876Y-97532002D01*
X168906876Y-97532002D02*
X168983066Y-97608193D01*
X168983066Y-97608193D02*
X169059257Y-97646288D01*
X167916399Y-97684383D02*
X167916399Y-98217717D01*
X168106875Y-97379622D02*
X168297352Y-97951050D01*
X168297352Y-97951050D02*
X167802113Y-97951050D01*
X169821161Y-100757717D02*
X169821161Y-99957717D01*
X169821161Y-99957717D02*
X169630685Y-99957717D01*
X169630685Y-99957717D02*
X169516399Y-99995812D01*
X169516399Y-99995812D02*
X169440209Y-100072002D01*
X169440209Y-100072002D02*
X169402114Y-100148193D01*
X169402114Y-100148193D02*
X169364018Y-100300574D01*
X169364018Y-100300574D02*
X169364018Y-100414860D01*
X169364018Y-100414860D02*
X169402114Y-100567241D01*
X169402114Y-100567241D02*
X169440209Y-100643431D01*
X169440209Y-100643431D02*
X169516399Y-100719622D01*
X169516399Y-100719622D02*
X169630685Y-100757717D01*
X169630685Y-100757717D02*
X169821161Y-100757717D01*
X168602114Y-100757717D02*
X169059257Y-100757717D01*
X168830685Y-100757717D02*
X168830685Y-99957717D01*
X168830685Y-99957717D02*
X168906876Y-100072002D01*
X168906876Y-100072002D02*
X168983066Y-100148193D01*
X168983066Y-100148193D02*
X169059257Y-100186288D01*
X167916399Y-99957717D02*
X168068780Y-99957717D01*
X168068780Y-99957717D02*
X168144971Y-99995812D01*
X168144971Y-99995812D02*
X168183066Y-100033907D01*
X168183066Y-100033907D02*
X168259256Y-100148193D01*
X168259256Y-100148193D02*
X168297352Y-100300574D01*
X168297352Y-100300574D02*
X168297352Y-100605336D01*
X168297352Y-100605336D02*
X168259256Y-100681526D01*
X168259256Y-100681526D02*
X168221161Y-100719622D01*
X168221161Y-100719622D02*
X168144971Y-100757717D01*
X168144971Y-100757717D02*
X167992590Y-100757717D01*
X167992590Y-100757717D02*
X167916399Y-100719622D01*
X167916399Y-100719622D02*
X167878304Y-100681526D01*
X167878304Y-100681526D02*
X167840209Y-100605336D01*
X167840209Y-100605336D02*
X167840209Y-100414860D01*
X167840209Y-100414860D02*
X167878304Y-100338669D01*
X167878304Y-100338669D02*
X167916399Y-100300574D01*
X167916399Y-100300574D02*
X167992590Y-100262479D01*
X167992590Y-100262479D02*
X168144971Y-100262479D01*
X168144971Y-100262479D02*
X168221161Y-100300574D01*
X168221161Y-100300574D02*
X168259256Y-100338669D01*
X168259256Y-100338669D02*
X168297352Y-100414860D01*
X158729208Y-95747717D02*
X158729208Y-94947717D01*
X158729208Y-94947717D02*
X158538732Y-94947717D01*
X158538732Y-94947717D02*
X158424446Y-94985812D01*
X158424446Y-94985812D02*
X158348256Y-95062002D01*
X158348256Y-95062002D02*
X158310161Y-95138193D01*
X158310161Y-95138193D02*
X158272065Y-95290574D01*
X158272065Y-95290574D02*
X158272065Y-95404860D01*
X158272065Y-95404860D02*
X158310161Y-95557241D01*
X158310161Y-95557241D02*
X158348256Y-95633431D01*
X158348256Y-95633431D02*
X158424446Y-95709622D01*
X158424446Y-95709622D02*
X158538732Y-95747717D01*
X158538732Y-95747717D02*
X158729208Y-95747717D01*
X157586351Y-94947717D02*
X157738732Y-94947717D01*
X157738732Y-94947717D02*
X157814923Y-94985812D01*
X157814923Y-94985812D02*
X157853018Y-95023907D01*
X157853018Y-95023907D02*
X157929208Y-95138193D01*
X157929208Y-95138193D02*
X157967304Y-95290574D01*
X157967304Y-95290574D02*
X157967304Y-95595336D01*
X157967304Y-95595336D02*
X157929208Y-95671526D01*
X157929208Y-95671526D02*
X157891113Y-95709622D01*
X157891113Y-95709622D02*
X157814923Y-95747717D01*
X157814923Y-95747717D02*
X157662542Y-95747717D01*
X157662542Y-95747717D02*
X157586351Y-95709622D01*
X157586351Y-95709622D02*
X157548256Y-95671526D01*
X157548256Y-95671526D02*
X157510161Y-95595336D01*
X157510161Y-95595336D02*
X157510161Y-95404860D01*
X157510161Y-95404860D02*
X157548256Y-95328669D01*
X157548256Y-95328669D02*
X157586351Y-95290574D01*
X157586351Y-95290574D02*
X157662542Y-95252479D01*
X157662542Y-95252479D02*
X157814923Y-95252479D01*
X157814923Y-95252479D02*
X157891113Y-95290574D01*
X157891113Y-95290574D02*
X157929208Y-95328669D01*
X157929208Y-95328669D02*
X157967304Y-95404860D01*
X158959256Y-79745812D02*
X159035446Y-79707717D01*
X159035446Y-79707717D02*
X159149732Y-79707717D01*
X159149732Y-79707717D02*
X159264018Y-79745812D01*
X159264018Y-79745812D02*
X159340208Y-79822002D01*
X159340208Y-79822002D02*
X159378303Y-79898193D01*
X159378303Y-79898193D02*
X159416399Y-80050574D01*
X159416399Y-80050574D02*
X159416399Y-80164860D01*
X159416399Y-80164860D02*
X159378303Y-80317241D01*
X159378303Y-80317241D02*
X159340208Y-80393431D01*
X159340208Y-80393431D02*
X159264018Y-80469622D01*
X159264018Y-80469622D02*
X159149732Y-80507717D01*
X159149732Y-80507717D02*
X159073541Y-80507717D01*
X159073541Y-80507717D02*
X158959256Y-80469622D01*
X158959256Y-80469622D02*
X158921160Y-80431526D01*
X158921160Y-80431526D02*
X158921160Y-80164860D01*
X158921160Y-80164860D02*
X159073541Y-80164860D01*
X158578303Y-80507717D02*
X158578303Y-79707717D01*
X158578303Y-79707717D02*
X158121160Y-80507717D01*
X158121160Y-80507717D02*
X158121160Y-79707717D01*
X157740208Y-80507717D02*
X157740208Y-79707717D01*
X157740208Y-79707717D02*
X157549732Y-79707717D01*
X157549732Y-79707717D02*
X157435446Y-79745812D01*
X157435446Y-79745812D02*
X157359256Y-79822002D01*
X157359256Y-79822002D02*
X157321161Y-79898193D01*
X157321161Y-79898193D02*
X157283065Y-80050574D01*
X157283065Y-80050574D02*
X157283065Y-80164860D01*
X157283065Y-80164860D02*
X157321161Y-80317241D01*
X157321161Y-80317241D02*
X157359256Y-80393431D01*
X157359256Y-80393431D02*
X157435446Y-80469622D01*
X157435446Y-80469622D02*
X157549732Y-80507717D01*
X157549732Y-80507717D02*
X157740208Y-80507717D01*
X169821161Y-103297717D02*
X169821161Y-102497717D01*
X169821161Y-102497717D02*
X169630685Y-102497717D01*
X169630685Y-102497717D02*
X169516399Y-102535812D01*
X169516399Y-102535812D02*
X169440209Y-102612002D01*
X169440209Y-102612002D02*
X169402114Y-102688193D01*
X169402114Y-102688193D02*
X169364018Y-102840574D01*
X169364018Y-102840574D02*
X169364018Y-102954860D01*
X169364018Y-102954860D02*
X169402114Y-103107241D01*
X169402114Y-103107241D02*
X169440209Y-103183431D01*
X169440209Y-103183431D02*
X169516399Y-103259622D01*
X169516399Y-103259622D02*
X169630685Y-103297717D01*
X169630685Y-103297717D02*
X169821161Y-103297717D01*
X168602114Y-103297717D02*
X169059257Y-103297717D01*
X168830685Y-103297717D02*
X168830685Y-102497717D01*
X168830685Y-102497717D02*
X168906876Y-102612002D01*
X168906876Y-102612002D02*
X168983066Y-102688193D01*
X168983066Y-102688193D02*
X169059257Y-102726288D01*
X168106875Y-102497717D02*
X168030685Y-102497717D01*
X168030685Y-102497717D02*
X167954494Y-102535812D01*
X167954494Y-102535812D02*
X167916399Y-102573907D01*
X167916399Y-102573907D02*
X167878304Y-102650098D01*
X167878304Y-102650098D02*
X167840209Y-102802479D01*
X167840209Y-102802479D02*
X167840209Y-102992955D01*
X167840209Y-102992955D02*
X167878304Y-103145336D01*
X167878304Y-103145336D02*
X167916399Y-103221526D01*
X167916399Y-103221526D02*
X167954494Y-103259622D01*
X167954494Y-103259622D02*
X168030685Y-103297717D01*
X168030685Y-103297717D02*
X168106875Y-103297717D01*
X168106875Y-103297717D02*
X168183066Y-103259622D01*
X168183066Y-103259622D02*
X168221161Y-103221526D01*
X168221161Y-103221526D02*
X168259256Y-103145336D01*
X168259256Y-103145336D02*
X168297352Y-102992955D01*
X168297352Y-102992955D02*
X168297352Y-102802479D01*
X168297352Y-102802479D02*
X168259256Y-102650098D01*
X168259256Y-102650098D02*
X168221161Y-102573907D01*
X168221161Y-102573907D02*
X168183066Y-102535812D01*
X168183066Y-102535812D02*
X168106875Y-102497717D01*
X158729208Y-98287717D02*
X158729208Y-97487717D01*
X158729208Y-97487717D02*
X158538732Y-97487717D01*
X158538732Y-97487717D02*
X158424446Y-97525812D01*
X158424446Y-97525812D02*
X158348256Y-97602002D01*
X158348256Y-97602002D02*
X158310161Y-97678193D01*
X158310161Y-97678193D02*
X158272065Y-97830574D01*
X158272065Y-97830574D02*
X158272065Y-97944860D01*
X158272065Y-97944860D02*
X158310161Y-98097241D01*
X158310161Y-98097241D02*
X158348256Y-98173431D01*
X158348256Y-98173431D02*
X158424446Y-98249622D01*
X158424446Y-98249622D02*
X158538732Y-98287717D01*
X158538732Y-98287717D02*
X158729208Y-98287717D01*
X158005399Y-97487717D02*
X157472065Y-97487717D01*
X157472065Y-97487717D02*
X157814923Y-98287717D01*
X169821161Y-90597717D02*
X169821161Y-89797717D01*
X169821161Y-89797717D02*
X169630685Y-89797717D01*
X169630685Y-89797717D02*
X169516399Y-89835812D01*
X169516399Y-89835812D02*
X169440209Y-89912002D01*
X169440209Y-89912002D02*
X169402114Y-89988193D01*
X169402114Y-89988193D02*
X169364018Y-90140574D01*
X169364018Y-90140574D02*
X169364018Y-90254860D01*
X169364018Y-90254860D02*
X169402114Y-90407241D01*
X169402114Y-90407241D02*
X169440209Y-90483431D01*
X169440209Y-90483431D02*
X169516399Y-90559622D01*
X169516399Y-90559622D02*
X169630685Y-90597717D01*
X169630685Y-90597717D02*
X169821161Y-90597717D01*
X168602114Y-90597717D02*
X169059257Y-90597717D01*
X168830685Y-90597717D02*
X168830685Y-89797717D01*
X168830685Y-89797717D02*
X168906876Y-89912002D01*
X168906876Y-89912002D02*
X168983066Y-89988193D01*
X168983066Y-89988193D02*
X169059257Y-90026288D01*
X168221161Y-90597717D02*
X168068780Y-90597717D01*
X168068780Y-90597717D02*
X167992590Y-90559622D01*
X167992590Y-90559622D02*
X167954494Y-90521526D01*
X167954494Y-90521526D02*
X167878304Y-90407241D01*
X167878304Y-90407241D02*
X167840209Y-90254860D01*
X167840209Y-90254860D02*
X167840209Y-89950098D01*
X167840209Y-89950098D02*
X167878304Y-89873907D01*
X167878304Y-89873907D02*
X167916399Y-89835812D01*
X167916399Y-89835812D02*
X167992590Y-89797717D01*
X167992590Y-89797717D02*
X168144971Y-89797717D01*
X168144971Y-89797717D02*
X168221161Y-89835812D01*
X168221161Y-89835812D02*
X168259256Y-89873907D01*
X168259256Y-89873907D02*
X168297352Y-89950098D01*
X168297352Y-89950098D02*
X168297352Y-90140574D01*
X168297352Y-90140574D02*
X168259256Y-90216764D01*
X168259256Y-90216764D02*
X168221161Y-90254860D01*
X168221161Y-90254860D02*
X168144971Y-90292955D01*
X168144971Y-90292955D02*
X167992590Y-90292955D01*
X167992590Y-90292955D02*
X167916399Y-90254860D01*
X167916399Y-90254860D02*
X167878304Y-90216764D01*
X167878304Y-90216764D02*
X167840209Y-90140574D01*
X158729208Y-93207717D02*
X158729208Y-92407717D01*
X158729208Y-92407717D02*
X158538732Y-92407717D01*
X158538732Y-92407717D02*
X158424446Y-92445812D01*
X158424446Y-92445812D02*
X158348256Y-92522002D01*
X158348256Y-92522002D02*
X158310161Y-92598193D01*
X158310161Y-92598193D02*
X158272065Y-92750574D01*
X158272065Y-92750574D02*
X158272065Y-92864860D01*
X158272065Y-92864860D02*
X158310161Y-93017241D01*
X158310161Y-93017241D02*
X158348256Y-93093431D01*
X158348256Y-93093431D02*
X158424446Y-93169622D01*
X158424446Y-93169622D02*
X158538732Y-93207717D01*
X158538732Y-93207717D02*
X158729208Y-93207717D01*
X157548256Y-92407717D02*
X157929208Y-92407717D01*
X157929208Y-92407717D02*
X157967304Y-92788669D01*
X157967304Y-92788669D02*
X157929208Y-92750574D01*
X157929208Y-92750574D02*
X157853018Y-92712479D01*
X157853018Y-92712479D02*
X157662542Y-92712479D01*
X157662542Y-92712479D02*
X157586351Y-92750574D01*
X157586351Y-92750574D02*
X157548256Y-92788669D01*
X157548256Y-92788669D02*
X157510161Y-92864860D01*
X157510161Y-92864860D02*
X157510161Y-93055336D01*
X157510161Y-93055336D02*
X157548256Y-93131526D01*
X157548256Y-93131526D02*
X157586351Y-93169622D01*
X157586351Y-93169622D02*
X157662542Y-93207717D01*
X157662542Y-93207717D02*
X157853018Y-93207717D01*
X157853018Y-93207717D02*
X157929208Y-93169622D01*
X157929208Y-93169622D02*
X157967304Y-93131526D01*
X169326827Y-80407717D02*
X169593494Y-80026764D01*
X169783970Y-80407717D02*
X169783970Y-79607717D01*
X169783970Y-79607717D02*
X169479208Y-79607717D01*
X169479208Y-79607717D02*
X169403018Y-79645812D01*
X169403018Y-79645812D02*
X169364923Y-79683907D01*
X169364923Y-79683907D02*
X169326827Y-79760098D01*
X169326827Y-79760098D02*
X169326827Y-79874383D01*
X169326827Y-79874383D02*
X169364923Y-79950574D01*
X169364923Y-79950574D02*
X169403018Y-79988669D01*
X169403018Y-79988669D02*
X169479208Y-80026764D01*
X169479208Y-80026764D02*
X169783970Y-80026764D01*
X169022066Y-80369622D02*
X168907780Y-80407717D01*
X168907780Y-80407717D02*
X168717304Y-80407717D01*
X168717304Y-80407717D02*
X168641113Y-80369622D01*
X168641113Y-80369622D02*
X168603018Y-80331526D01*
X168603018Y-80331526D02*
X168564923Y-80255336D01*
X168564923Y-80255336D02*
X168564923Y-80179145D01*
X168564923Y-80179145D02*
X168603018Y-80102955D01*
X168603018Y-80102955D02*
X168641113Y-80064860D01*
X168641113Y-80064860D02*
X168717304Y-80026764D01*
X168717304Y-80026764D02*
X168869685Y-79988669D01*
X168869685Y-79988669D02*
X168945875Y-79950574D01*
X168945875Y-79950574D02*
X168983970Y-79912479D01*
X168983970Y-79912479D02*
X169022066Y-79836288D01*
X169022066Y-79836288D02*
X169022066Y-79760098D01*
X169022066Y-79760098D02*
X168983970Y-79683907D01*
X168983970Y-79683907D02*
X168945875Y-79645812D01*
X168945875Y-79645812D02*
X168869685Y-79607717D01*
X168869685Y-79607717D02*
X168679208Y-79607717D01*
X168679208Y-79607717D02*
X168564923Y-79645812D01*
X168336351Y-79607717D02*
X167879208Y-79607717D01*
X168107780Y-80407717D02*
X168107780Y-79607717D01*
X158729208Y-90667717D02*
X158729208Y-89867717D01*
X158729208Y-89867717D02*
X158538732Y-89867717D01*
X158538732Y-89867717D02*
X158424446Y-89905812D01*
X158424446Y-89905812D02*
X158348256Y-89982002D01*
X158348256Y-89982002D02*
X158310161Y-90058193D01*
X158310161Y-90058193D02*
X158272065Y-90210574D01*
X158272065Y-90210574D02*
X158272065Y-90324860D01*
X158272065Y-90324860D02*
X158310161Y-90477241D01*
X158310161Y-90477241D02*
X158348256Y-90553431D01*
X158348256Y-90553431D02*
X158424446Y-90629622D01*
X158424446Y-90629622D02*
X158538732Y-90667717D01*
X158538732Y-90667717D02*
X158729208Y-90667717D01*
X157586351Y-90134383D02*
X157586351Y-90667717D01*
X157776827Y-89829622D02*
X157967304Y-90401050D01*
X157967304Y-90401050D02*
X157472065Y-90401050D01*
X162643062Y-89934530D02*
X162643062Y-90648815D01*
X162643062Y-90648815D02*
X162690681Y-90791672D01*
X162690681Y-90791672D02*
X162785919Y-90886911D01*
X162785919Y-90886911D02*
X162928776Y-90934530D01*
X162928776Y-90934530D02*
X163024014Y-90934530D01*
X162166871Y-90934530D02*
X162166871Y-89934530D01*
X162166871Y-89934530D02*
X161785919Y-89934530D01*
X161785919Y-89934530D02*
X161690681Y-89982149D01*
X161690681Y-89982149D02*
X161643062Y-90029768D01*
X161643062Y-90029768D02*
X161595443Y-90125006D01*
X161595443Y-90125006D02*
X161595443Y-90267863D01*
X161595443Y-90267863D02*
X161643062Y-90363101D01*
X161643062Y-90363101D02*
X161690681Y-90410720D01*
X161690681Y-90410720D02*
X161785919Y-90458339D01*
X161785919Y-90458339D02*
X162166871Y-90458339D01*
X161262109Y-89934530D02*
X160643062Y-89934530D01*
X160643062Y-89934530D02*
X160976395Y-90315482D01*
X160976395Y-90315482D02*
X160833538Y-90315482D01*
X160833538Y-90315482D02*
X160738300Y-90363101D01*
X160738300Y-90363101D02*
X160690681Y-90410720D01*
X160690681Y-90410720D02*
X160643062Y-90505958D01*
X160643062Y-90505958D02*
X160643062Y-90744053D01*
X160643062Y-90744053D02*
X160690681Y-90839291D01*
X160690681Y-90839291D02*
X160738300Y-90886911D01*
X160738300Y-90886911D02*
X160833538Y-90934530D01*
X160833538Y-90934530D02*
X161119252Y-90934530D01*
X161119252Y-90934530D02*
X161214490Y-90886911D01*
X161214490Y-90886911D02*
X161262109Y-90839291D01*
X160024014Y-89934530D02*
X159928776Y-89934530D01*
X159928776Y-89934530D02*
X159833538Y-89982149D01*
X159833538Y-89982149D02*
X159785919Y-90029768D01*
X159785919Y-90029768D02*
X159738300Y-90125006D01*
X159738300Y-90125006D02*
X159690681Y-90315482D01*
X159690681Y-90315482D02*
X159690681Y-90553577D01*
X159690681Y-90553577D02*
X159738300Y-90744053D01*
X159738300Y-90744053D02*
X159785919Y-90839291D01*
X159785919Y-90839291D02*
X159833538Y-90886911D01*
X159833538Y-90886911D02*
X159928776Y-90934530D01*
X159928776Y-90934530D02*
X160024014Y-90934530D01*
X160024014Y-90934530D02*
X160119252Y-90886911D01*
X160119252Y-90886911D02*
X160166871Y-90839291D01*
X160166871Y-90839291D02*
X160214490Y-90744053D01*
X160214490Y-90744053D02*
X160262109Y-90553577D01*
X160262109Y-90553577D02*
X160262109Y-90315482D01*
X160262109Y-90315482D02*
X160214490Y-90125006D01*
X160214490Y-90125006D02*
X160166871Y-90029768D01*
X160166871Y-90029768D02*
X160119252Y-89982149D01*
X160119252Y-89982149D02*
X160024014Y-89934530D01*
X162516062Y-101618530D02*
X162516062Y-102332815D01*
X162516062Y-102332815D02*
X162563681Y-102475672D01*
X162563681Y-102475672D02*
X162658919Y-102570911D01*
X162658919Y-102570911D02*
X162801776Y-102618530D01*
X162801776Y-102618530D02*
X162897014Y-102618530D01*
X162039871Y-102618530D02*
X162039871Y-101618530D01*
X162039871Y-101618530D02*
X161658919Y-101618530D01*
X161658919Y-101618530D02*
X161563681Y-101666149D01*
X161563681Y-101666149D02*
X161516062Y-101713768D01*
X161516062Y-101713768D02*
X161468443Y-101809006D01*
X161468443Y-101809006D02*
X161468443Y-101951863D01*
X161468443Y-101951863D02*
X161516062Y-102047101D01*
X161516062Y-102047101D02*
X161563681Y-102094720D01*
X161563681Y-102094720D02*
X161658919Y-102142339D01*
X161658919Y-102142339D02*
X162039871Y-102142339D01*
X161135109Y-101618530D02*
X160516062Y-101618530D01*
X160516062Y-101618530D02*
X160849395Y-101999482D01*
X160849395Y-101999482D02*
X160706538Y-101999482D01*
X160706538Y-101999482D02*
X160611300Y-102047101D01*
X160611300Y-102047101D02*
X160563681Y-102094720D01*
X160563681Y-102094720D02*
X160516062Y-102189958D01*
X160516062Y-102189958D02*
X160516062Y-102428053D01*
X160516062Y-102428053D02*
X160563681Y-102523291D01*
X160563681Y-102523291D02*
X160611300Y-102570911D01*
X160611300Y-102570911D02*
X160706538Y-102618530D01*
X160706538Y-102618530D02*
X160992252Y-102618530D01*
X160992252Y-102618530D02*
X161087490Y-102570911D01*
X161087490Y-102570911D02*
X161135109Y-102523291D01*
X160182728Y-101618530D02*
X159516062Y-101618530D01*
X159516062Y-101618530D02*
X159944633Y-102618530D01*
X162643062Y-86251530D02*
X162643062Y-86965815D01*
X162643062Y-86965815D02*
X162690681Y-87108672D01*
X162690681Y-87108672D02*
X162785919Y-87203911D01*
X162785919Y-87203911D02*
X162928776Y-87251530D01*
X162928776Y-87251530D02*
X163024014Y-87251530D01*
X162166871Y-87251530D02*
X162166871Y-86251530D01*
X162166871Y-86251530D02*
X161785919Y-86251530D01*
X161785919Y-86251530D02*
X161690681Y-86299149D01*
X161690681Y-86299149D02*
X161643062Y-86346768D01*
X161643062Y-86346768D02*
X161595443Y-86442006D01*
X161595443Y-86442006D02*
X161595443Y-86584863D01*
X161595443Y-86584863D02*
X161643062Y-86680101D01*
X161643062Y-86680101D02*
X161690681Y-86727720D01*
X161690681Y-86727720D02*
X161785919Y-86775339D01*
X161785919Y-86775339D02*
X162166871Y-86775339D01*
X161214490Y-86346768D02*
X161166871Y-86299149D01*
X161166871Y-86299149D02*
X161071633Y-86251530D01*
X161071633Y-86251530D02*
X160833538Y-86251530D01*
X160833538Y-86251530D02*
X160738300Y-86299149D01*
X160738300Y-86299149D02*
X160690681Y-86346768D01*
X160690681Y-86346768D02*
X160643062Y-86442006D01*
X160643062Y-86442006D02*
X160643062Y-86537244D01*
X160643062Y-86537244D02*
X160690681Y-86680101D01*
X160690681Y-86680101D02*
X161262109Y-87251530D01*
X161262109Y-87251530D02*
X160643062Y-87251530D01*
X160166871Y-87251530D02*
X159976395Y-87251530D01*
X159976395Y-87251530D02*
X159881157Y-87203911D01*
X159881157Y-87203911D02*
X159833538Y-87156291D01*
X159833538Y-87156291D02*
X159738300Y-87013434D01*
X159738300Y-87013434D02*
X159690681Y-86822958D01*
X159690681Y-86822958D02*
X159690681Y-86442006D01*
X159690681Y-86442006D02*
X159738300Y-86346768D01*
X159738300Y-86346768D02*
X159785919Y-86299149D01*
X159785919Y-86299149D02*
X159881157Y-86251530D01*
X159881157Y-86251530D02*
X160071633Y-86251530D01*
X160071633Y-86251530D02*
X160166871Y-86299149D01*
X160166871Y-86299149D02*
X160214490Y-86346768D01*
X160214490Y-86346768D02*
X160262109Y-86442006D01*
X160262109Y-86442006D02*
X160262109Y-86680101D01*
X160262109Y-86680101D02*
X160214490Y-86775339D01*
X160214490Y-86775339D02*
X160166871Y-86822958D01*
X160166871Y-86822958D02*
X160071633Y-86870577D01*
X160071633Y-86870577D02*
X159881157Y-86870577D01*
X159881157Y-86870577D02*
X159785919Y-86822958D01*
X159785919Y-86822958D02*
X159738300Y-86775339D01*
X159738300Y-86775339D02*
X159690681Y-86680101D01*
X166871062Y-97068530D02*
X166871062Y-97782815D01*
X166871062Y-97782815D02*
X166918681Y-97925672D01*
X166918681Y-97925672D02*
X167013919Y-98020911D01*
X167013919Y-98020911D02*
X167156776Y-98068530D01*
X167156776Y-98068530D02*
X167252014Y-98068530D01*
X166394871Y-98068530D02*
X166394871Y-97068530D01*
X166394871Y-97068530D02*
X166013919Y-97068530D01*
X166013919Y-97068530D02*
X165918681Y-97116149D01*
X165918681Y-97116149D02*
X165871062Y-97163768D01*
X165871062Y-97163768D02*
X165823443Y-97259006D01*
X165823443Y-97259006D02*
X165823443Y-97401863D01*
X165823443Y-97401863D02*
X165871062Y-97497101D01*
X165871062Y-97497101D02*
X165918681Y-97544720D01*
X165918681Y-97544720D02*
X166013919Y-97592339D01*
X166013919Y-97592339D02*
X166394871Y-97592339D01*
X164966300Y-97401863D02*
X164966300Y-98068530D01*
X165204395Y-97020911D02*
X165442490Y-97735196D01*
X165442490Y-97735196D02*
X164823443Y-97735196D01*
X164252014Y-97068530D02*
X164156776Y-97068530D01*
X164156776Y-97068530D02*
X164061538Y-97116149D01*
X164061538Y-97116149D02*
X164013919Y-97163768D01*
X164013919Y-97163768D02*
X163966300Y-97259006D01*
X163966300Y-97259006D02*
X163918681Y-97449482D01*
X163918681Y-97449482D02*
X163918681Y-97687577D01*
X163918681Y-97687577D02*
X163966300Y-97878053D01*
X163966300Y-97878053D02*
X164013919Y-97973291D01*
X164013919Y-97973291D02*
X164061538Y-98020911D01*
X164061538Y-98020911D02*
X164156776Y-98068530D01*
X164156776Y-98068530D02*
X164252014Y-98068530D01*
X164252014Y-98068530D02*
X164347252Y-98020911D01*
X164347252Y-98020911D02*
X164394871Y-97973291D01*
X164394871Y-97973291D02*
X164442490Y-97878053D01*
X164442490Y-97878053D02*
X164490109Y-97687577D01*
X164490109Y-97687577D02*
X164490109Y-97449482D01*
X164490109Y-97449482D02*
X164442490Y-97259006D01*
X164442490Y-97259006D02*
X164394871Y-97163768D01*
X164394871Y-97163768D02*
X164347252Y-97116149D01*
X164347252Y-97116149D02*
X164252014Y-97068530D01*
X166812256Y-93426241D02*
X166812256Y-94140526D01*
X166812256Y-94140526D02*
X166859875Y-94283383D01*
X166859875Y-94283383D02*
X166955113Y-94378622D01*
X166955113Y-94378622D02*
X167097970Y-94426241D01*
X167097970Y-94426241D02*
X167193208Y-94426241D01*
X166336065Y-94426241D02*
X166336065Y-93426241D01*
X166336065Y-93426241D02*
X165955113Y-93426241D01*
X165955113Y-93426241D02*
X165859875Y-93473860D01*
X165859875Y-93473860D02*
X165812256Y-93521479D01*
X165812256Y-93521479D02*
X165764637Y-93616717D01*
X165764637Y-93616717D02*
X165764637Y-93759574D01*
X165764637Y-93759574D02*
X165812256Y-93854812D01*
X165812256Y-93854812D02*
X165859875Y-93902431D01*
X165859875Y-93902431D02*
X165955113Y-93950050D01*
X165955113Y-93950050D02*
X166336065Y-93950050D01*
X164907494Y-93759574D02*
X164907494Y-94426241D01*
X165145589Y-93378622D02*
X165383684Y-94092907D01*
X165383684Y-94092907D02*
X164764637Y-94092907D01*
X163859875Y-94426241D02*
X164431303Y-94426241D01*
X164145589Y-94426241D02*
X164145589Y-93426241D01*
X164145589Y-93426241D02*
X164240827Y-93569098D01*
X164240827Y-93569098D02*
X164336065Y-93664336D01*
X164336065Y-93664336D02*
X164431303Y-93711955D01*
X166998062Y-81955530D02*
X166998062Y-82669815D01*
X166998062Y-82669815D02*
X167045681Y-82812672D01*
X167045681Y-82812672D02*
X167140919Y-82907911D01*
X167140919Y-82907911D02*
X167283776Y-82955530D01*
X167283776Y-82955530D02*
X167379014Y-82955530D01*
X166521871Y-82955530D02*
X166521871Y-81955530D01*
X166521871Y-81955530D02*
X166140919Y-81955530D01*
X166140919Y-81955530D02*
X166045681Y-82003149D01*
X166045681Y-82003149D02*
X165998062Y-82050768D01*
X165998062Y-82050768D02*
X165950443Y-82146006D01*
X165950443Y-82146006D02*
X165950443Y-82288863D01*
X165950443Y-82288863D02*
X165998062Y-82384101D01*
X165998062Y-82384101D02*
X166045681Y-82431720D01*
X166045681Y-82431720D02*
X166140919Y-82479339D01*
X166140919Y-82479339D02*
X166521871Y-82479339D01*
X165093300Y-82288863D02*
X165093300Y-82955530D01*
X165331395Y-81907911D02*
X165569490Y-82622196D01*
X165569490Y-82622196D02*
X164950443Y-82622196D01*
X164140919Y-82288863D02*
X164140919Y-82955530D01*
X164379014Y-81907911D02*
X164617109Y-82622196D01*
X164617109Y-82622196D02*
X163998062Y-82622196D01*
X167110256Y-78025241D02*
X167110256Y-78739526D01*
X167110256Y-78739526D02*
X167157875Y-78882383D01*
X167157875Y-78882383D02*
X167253113Y-78977622D01*
X167253113Y-78977622D02*
X167395970Y-79025241D01*
X167395970Y-79025241D02*
X167491208Y-79025241D01*
X166634065Y-79025241D02*
X166634065Y-78025241D01*
X166634065Y-78025241D02*
X166253113Y-78025241D01*
X166253113Y-78025241D02*
X166157875Y-78072860D01*
X166157875Y-78072860D02*
X166110256Y-78120479D01*
X166110256Y-78120479D02*
X166062637Y-78215717D01*
X166062637Y-78215717D02*
X166062637Y-78358574D01*
X166062637Y-78358574D02*
X166110256Y-78453812D01*
X166110256Y-78453812D02*
X166157875Y-78501431D01*
X166157875Y-78501431D02*
X166253113Y-78549050D01*
X166253113Y-78549050D02*
X166634065Y-78549050D01*
X165205494Y-78358574D02*
X165205494Y-79025241D01*
X165443589Y-77977622D02*
X165681684Y-78691907D01*
X165681684Y-78691907D02*
X165062637Y-78691907D01*
X164776922Y-78025241D02*
X164110256Y-78025241D01*
X164110256Y-78025241D02*
X164538827Y-79025241D01*
X167234256Y-74209241D02*
X167234256Y-74923526D01*
X167234256Y-74923526D02*
X167281875Y-75066383D01*
X167281875Y-75066383D02*
X167377113Y-75161622D01*
X167377113Y-75161622D02*
X167519970Y-75209241D01*
X167519970Y-75209241D02*
X167615208Y-75209241D01*
X166758065Y-75209241D02*
X166758065Y-74209241D01*
X166758065Y-74209241D02*
X166377113Y-74209241D01*
X166377113Y-74209241D02*
X166281875Y-74256860D01*
X166281875Y-74256860D02*
X166234256Y-74304479D01*
X166234256Y-74304479D02*
X166186637Y-74399717D01*
X166186637Y-74399717D02*
X166186637Y-74542574D01*
X166186637Y-74542574D02*
X166234256Y-74637812D01*
X166234256Y-74637812D02*
X166281875Y-74685431D01*
X166281875Y-74685431D02*
X166377113Y-74733050D01*
X166377113Y-74733050D02*
X166758065Y-74733050D01*
X165329494Y-74542574D02*
X165329494Y-75209241D01*
X165567589Y-74161622D02*
X165805684Y-74875907D01*
X165805684Y-74875907D02*
X165186637Y-74875907D01*
X164662827Y-74637812D02*
X164758065Y-74590193D01*
X164758065Y-74590193D02*
X164805684Y-74542574D01*
X164805684Y-74542574D02*
X164853303Y-74447336D01*
X164853303Y-74447336D02*
X164853303Y-74399717D01*
X164853303Y-74399717D02*
X164805684Y-74304479D01*
X164805684Y-74304479D02*
X164758065Y-74256860D01*
X164758065Y-74256860D02*
X164662827Y-74209241D01*
X164662827Y-74209241D02*
X164472351Y-74209241D01*
X164472351Y-74209241D02*
X164377113Y-74256860D01*
X164377113Y-74256860D02*
X164329494Y-74304479D01*
X164329494Y-74304479D02*
X164281875Y-74399717D01*
X164281875Y-74399717D02*
X164281875Y-74447336D01*
X164281875Y-74447336D02*
X164329494Y-74542574D01*
X164329494Y-74542574D02*
X164377113Y-74590193D01*
X164377113Y-74590193D02*
X164472351Y-74637812D01*
X164472351Y-74637812D02*
X164662827Y-74637812D01*
X164662827Y-74637812D02*
X164758065Y-74685431D01*
X164758065Y-74685431D02*
X164805684Y-74733050D01*
X164805684Y-74733050D02*
X164853303Y-74828288D01*
X164853303Y-74828288D02*
X164853303Y-75018764D01*
X164853303Y-75018764D02*
X164805684Y-75114002D01*
X164805684Y-75114002D02*
X164758065Y-75161622D01*
X164758065Y-75161622D02*
X164662827Y-75209241D01*
X164662827Y-75209241D02*
X164472351Y-75209241D01*
X164472351Y-75209241D02*
X164377113Y-75161622D01*
X164377113Y-75161622D02*
X164329494Y-75114002D01*
X164329494Y-75114002D02*
X164281875Y-75018764D01*
X164281875Y-75018764D02*
X164281875Y-74828288D01*
X164281875Y-74828288D02*
X164329494Y-74733050D01*
X164329494Y-74733050D02*
X164377113Y-74685431D01*
X164377113Y-74685431D02*
X164472351Y-74637812D01*
X167066256Y-89870241D02*
X167066256Y-90584526D01*
X167066256Y-90584526D02*
X167113875Y-90727383D01*
X167113875Y-90727383D02*
X167209113Y-90822622D01*
X167209113Y-90822622D02*
X167351970Y-90870241D01*
X167351970Y-90870241D02*
X167447208Y-90870241D01*
X166590065Y-90870241D02*
X166590065Y-89870241D01*
X166590065Y-89870241D02*
X166209113Y-89870241D01*
X166209113Y-89870241D02*
X166113875Y-89917860D01*
X166113875Y-89917860D02*
X166066256Y-89965479D01*
X166066256Y-89965479D02*
X166018637Y-90060717D01*
X166018637Y-90060717D02*
X166018637Y-90203574D01*
X166018637Y-90203574D02*
X166066256Y-90298812D01*
X166066256Y-90298812D02*
X166113875Y-90346431D01*
X166113875Y-90346431D02*
X166209113Y-90394050D01*
X166209113Y-90394050D02*
X166590065Y-90394050D01*
X165161494Y-90203574D02*
X165161494Y-90870241D01*
X165399589Y-89822622D02*
X165637684Y-90536907D01*
X165637684Y-90536907D02*
X165018637Y-90536907D01*
X164685303Y-89965479D02*
X164637684Y-89917860D01*
X164637684Y-89917860D02*
X164542446Y-89870241D01*
X164542446Y-89870241D02*
X164304351Y-89870241D01*
X164304351Y-89870241D02*
X164209113Y-89917860D01*
X164209113Y-89917860D02*
X164161494Y-89965479D01*
X164161494Y-89965479D02*
X164113875Y-90060717D01*
X164113875Y-90060717D02*
X164113875Y-90155955D01*
X164113875Y-90155955D02*
X164161494Y-90298812D01*
X164161494Y-90298812D02*
X164732922Y-90870241D01*
X164732922Y-90870241D02*
X164113875Y-90870241D01*
X166871062Y-85638530D02*
X166871062Y-86352815D01*
X166871062Y-86352815D02*
X166918681Y-86495672D01*
X166918681Y-86495672D02*
X167013919Y-86590911D01*
X167013919Y-86590911D02*
X167156776Y-86638530D01*
X167156776Y-86638530D02*
X167252014Y-86638530D01*
X166394871Y-86638530D02*
X166394871Y-85638530D01*
X166394871Y-85638530D02*
X166013919Y-85638530D01*
X166013919Y-85638530D02*
X165918681Y-85686149D01*
X165918681Y-85686149D02*
X165871062Y-85733768D01*
X165871062Y-85733768D02*
X165823443Y-85829006D01*
X165823443Y-85829006D02*
X165823443Y-85971863D01*
X165823443Y-85971863D02*
X165871062Y-86067101D01*
X165871062Y-86067101D02*
X165918681Y-86114720D01*
X165918681Y-86114720D02*
X166013919Y-86162339D01*
X166013919Y-86162339D02*
X166394871Y-86162339D01*
X164966300Y-85971863D02*
X164966300Y-86638530D01*
X165204395Y-85590911D02*
X165442490Y-86305196D01*
X165442490Y-86305196D02*
X164823443Y-86305196D01*
X164537728Y-85638530D02*
X163918681Y-85638530D01*
X163918681Y-85638530D02*
X164252014Y-86019482D01*
X164252014Y-86019482D02*
X164109157Y-86019482D01*
X164109157Y-86019482D02*
X164013919Y-86067101D01*
X164013919Y-86067101D02*
X163966300Y-86114720D01*
X163966300Y-86114720D02*
X163918681Y-86209958D01*
X163918681Y-86209958D02*
X163918681Y-86448053D01*
X163918681Y-86448053D02*
X163966300Y-86543291D01*
X163966300Y-86543291D02*
X164013919Y-86590911D01*
X164013919Y-86590911D02*
X164109157Y-86638530D01*
X164109157Y-86638530D02*
X164394871Y-86638530D01*
X164394871Y-86638530D02*
X164490109Y-86590911D01*
X164490109Y-86590911D02*
X164537728Y-86543291D01*
%TO.C,G\u002A\u002A\u002A*%
G36*
X99455313Y-139138058D02*
G01*
X99461457Y-139144313D01*
X99467506Y-139156615D01*
X99467714Y-139158045D01*
X99472824Y-139172606D01*
X99483386Y-139197533D01*
X99497537Y-139228370D01*
X99522806Y-139281709D01*
X99550295Y-139339968D01*
X99571400Y-139385091D01*
X99586839Y-139418666D01*
X99597328Y-139442283D01*
X99603586Y-139457531D01*
X99606329Y-139466000D01*
X99606276Y-139469278D01*
X99602197Y-139471744D01*
X99584683Y-139481210D01*
X99555929Y-139496313D01*
X99518651Y-139515629D01*
X99475568Y-139537735D01*
X99452395Y-139549590D01*
X99405778Y-139573541D01*
X99363052Y-139595621D01*
X99328166Y-139613785D01*
X99305069Y-139625990D01*
X99287087Y-139635306D01*
X99265581Y-139645348D01*
X99254019Y-139649248D01*
X99253335Y-139649070D01*
X99245329Y-139639552D01*
X99233075Y-139618411D01*
X99218933Y-139589655D01*
X99209960Y-139570177D01*
X99191096Y-139529630D01*
X99169667Y-139483912D01*
X99148789Y-139439691D01*
X99134375Y-139409138D01*
X99116241Y-139369268D01*
X99105095Y-139341110D01*
X99100431Y-139322080D01*
X99101743Y-139309593D01*
X99108527Y-139301065D01*
X99120276Y-139293913D01*
X99120489Y-139293802D01*
X99201833Y-139251555D01*
X99268976Y-139217017D01*
X99323273Y-139189557D01*
X99366082Y-139168542D01*
X99398761Y-139153341D01*
X99422666Y-139143324D01*
X99439155Y-139137859D01*
X99449585Y-139136314D01*
X99455313Y-139138058D01*
G37*
G36*
X98208960Y-140489102D02*
G01*
X98215089Y-140506193D01*
X98221989Y-140534524D01*
X98228441Y-140569326D01*
X98229021Y-140572957D01*
X98235908Y-140615931D01*
X98242861Y-140659150D01*
X98248460Y-140693772D01*
X98256793Y-140745073D01*
X98144769Y-140857101D01*
X98141151Y-140860725D01*
X98080139Y-140924160D01*
X98030188Y-140981603D01*
X97988188Y-141037150D01*
X97951026Y-141094899D01*
X97915595Y-141158945D01*
X97891008Y-141208328D01*
X97869915Y-141256926D01*
X97853751Y-141303995D01*
X97841901Y-141352725D01*
X97833752Y-141406308D01*
X97828692Y-141467932D01*
X97826105Y-141540790D01*
X97825379Y-141628070D01*
X97825356Y-141664710D01*
X97825125Y-141721346D01*
X97824523Y-141763472D01*
X97823399Y-141793141D01*
X97821602Y-141812409D01*
X97818980Y-141823332D01*
X97815383Y-141827965D01*
X97810660Y-141828362D01*
X97806469Y-141826257D01*
X97798409Y-141814632D01*
X97789784Y-141791699D01*
X97780146Y-141755911D01*
X97769046Y-141705718D01*
X97756038Y-141639575D01*
X97753768Y-141624926D01*
X97749924Y-141583009D01*
X97747435Y-141530360D01*
X97746306Y-141471656D01*
X97746544Y-141411574D01*
X97748156Y-141354791D01*
X97751148Y-141305986D01*
X97755526Y-141269835D01*
X97757747Y-141257623D01*
X97776427Y-141167407D01*
X97798047Y-141085719D01*
X97824722Y-141004444D01*
X97843181Y-140959392D01*
X97872211Y-140899823D01*
X97907369Y-140835435D01*
X97945967Y-140770904D01*
X97985314Y-140710910D01*
X98022721Y-140660127D01*
X98028343Y-140653159D01*
X98057816Y-140618829D01*
X98089980Y-140584280D01*
X98122441Y-140551755D01*
X98152806Y-140523503D01*
X98178683Y-140501766D01*
X98197678Y-140488792D01*
X98207399Y-140486826D01*
X98208960Y-140489102D01*
G37*
G36*
X114326724Y-140165074D02*
G01*
X114334796Y-140181904D01*
X114342053Y-140207659D01*
X114343044Y-140212312D01*
X114350911Y-140250704D01*
X114359040Y-140292512D01*
X114366676Y-140333591D01*
X114373065Y-140369798D01*
X114377451Y-140396989D01*
X114379081Y-140411019D01*
X114375769Y-140417109D01*
X114361855Y-140434475D01*
X114338972Y-140460249D01*
X114309181Y-140492131D01*
X114274540Y-140527819D01*
X114190663Y-140617567D01*
X114118328Y-140706467D01*
X114060807Y-140791627D01*
X114017235Y-140874338D01*
X113986743Y-140955887D01*
X113980831Y-140975334D01*
X113970717Y-141007162D01*
X113962639Y-141030930D01*
X113961200Y-141036813D01*
X113958201Y-141061069D01*
X113955369Y-141099351D01*
X113952838Y-141149195D01*
X113950746Y-141208139D01*
X113949229Y-141273718D01*
X113948394Y-141317622D01*
X113947091Y-141374303D01*
X113945701Y-141423540D01*
X113944306Y-141462779D01*
X113942989Y-141489469D01*
X113941833Y-141501055D01*
X113939914Y-141505102D01*
X113929812Y-141512091D01*
X113928324Y-141511638D01*
X113920691Y-141499112D01*
X113911428Y-141470017D01*
X113900733Y-141425158D01*
X113888801Y-141365343D01*
X113875830Y-141291375D01*
X113873223Y-141271392D01*
X113870039Y-141223678D01*
X113868887Y-141166042D01*
X113869620Y-141103072D01*
X113872094Y-141039360D01*
X113876165Y-140979495D01*
X113881686Y-140928069D01*
X113888514Y-140889672D01*
X113894099Y-140866833D01*
X113903414Y-140828640D01*
X113911111Y-140796971D01*
X113922694Y-140755275D01*
X113950232Y-140677670D01*
X113985549Y-140596094D01*
X114026081Y-140516271D01*
X114069264Y-140443926D01*
X114089137Y-140415064D01*
X114119602Y-140374379D01*
X114153788Y-140331655D01*
X114189640Y-140289192D01*
X114225099Y-140249289D01*
X114258111Y-140214249D01*
X114286618Y-140186372D01*
X114308563Y-140167958D01*
X114321890Y-140161309D01*
X114326724Y-140165074D01*
G37*
G36*
X98553319Y-137275537D02*
G01*
X98586550Y-137286850D01*
X98588290Y-137287601D01*
X98617677Y-137300300D01*
X98647777Y-137313336D01*
X98653405Y-137315699D01*
X98676662Y-137323972D01*
X98692362Y-137327315D01*
X98697024Y-137327750D01*
X98713099Y-137334685D01*
X98719202Y-137338442D01*
X98739027Y-137347438D01*
X98765630Y-137357589D01*
X98780545Y-137362932D01*
X98811932Y-137374664D01*
X98836259Y-137384360D01*
X98853538Y-137391280D01*
X98883838Y-137402931D01*
X98922208Y-137417404D01*
X98964274Y-137433035D01*
X98979103Y-137438505D01*
X99023520Y-137454925D01*
X99055807Y-137466981D01*
X99079448Y-137476023D01*
X99097930Y-137483402D01*
X99114736Y-137490469D01*
X99133352Y-137498574D01*
X99139547Y-137501226D01*
X99161070Y-137509417D01*
X99173932Y-137512717D01*
X99174100Y-137512719D01*
X99187576Y-137516420D01*
X99207912Y-137525053D01*
X99211979Y-137526848D01*
X99232273Y-137535090D01*
X99266370Y-137548520D01*
X99312383Y-137566407D01*
X99368426Y-137588024D01*
X99432612Y-137612641D01*
X99503054Y-137639530D01*
X99577864Y-137667961D01*
X99607761Y-137679323D01*
X99682319Y-137707878D01*
X99752466Y-137735046D01*
X99816183Y-137760023D01*
X99871448Y-137782011D01*
X99916240Y-137800206D01*
X99948539Y-137813807D01*
X99966325Y-137822014D01*
X99971202Y-137824610D01*
X99988375Y-137834294D01*
X100001083Y-137844076D01*
X100011486Y-137857235D01*
X100021743Y-137877046D01*
X100034011Y-137906787D01*
X100050449Y-137949734D01*
X100059060Y-137972813D01*
X100073116Y-138012920D01*
X100082253Y-138042732D01*
X100085511Y-138059257D01*
X100085323Y-138061998D01*
X100080189Y-138065292D01*
X100065647Y-138056647D01*
X100056934Y-138050670D01*
X100043054Y-138042327D01*
X100025261Y-138032960D01*
X100002293Y-138022053D01*
X99972888Y-138009090D01*
X99935782Y-137993554D01*
X99889714Y-137974929D01*
X99833421Y-137952698D01*
X99765641Y-137926344D01*
X99685110Y-137895353D01*
X99590567Y-137859206D01*
X99480749Y-137817387D01*
X99410818Y-137790780D01*
X99326699Y-137758736D01*
X99248400Y-137728867D01*
X99177450Y-137701759D01*
X99115374Y-137677996D01*
X99063698Y-137658163D01*
X99023951Y-137642843D01*
X98997658Y-137632621D01*
X98986346Y-137628083D01*
X98984439Y-137627244D01*
X98965464Y-137619639D01*
X98936316Y-137608581D01*
X98902473Y-137596156D01*
X98897953Y-137594519D01*
X98862513Y-137581450D01*
X98831001Y-137569461D01*
X98809773Y-137560967D01*
X98799441Y-137556729D01*
X98770476Y-137545570D01*
X98739144Y-137534162D01*
X98722487Y-137527995D01*
X98699270Y-137518224D01*
X98686613Y-137511258D01*
X98683055Y-137508771D01*
X98665876Y-137503888D01*
X98661926Y-137503771D01*
X98628792Y-137493666D01*
X98600309Y-137469612D01*
X98580587Y-137434933D01*
X98576212Y-137422806D01*
X98556738Y-137370218D01*
X98541382Y-137331277D01*
X98530764Y-137307571D01*
X98530020Y-137306103D01*
X98524322Y-137285435D01*
X98532332Y-137275156D01*
X98553319Y-137275537D01*
G37*
G36*
X115571786Y-144168616D02*
G01*
X115584524Y-144185923D01*
X115598883Y-144210502D01*
X115606557Y-144225046D01*
X115628780Y-144266828D01*
X115644282Y-144295275D01*
X115654091Y-144312246D01*
X115659234Y-144319599D01*
X115660876Y-144321595D01*
X115666656Y-144330763D01*
X115676673Y-144348613D01*
X115692217Y-144377479D01*
X115714580Y-144419695D01*
X115719268Y-144428107D01*
X115732546Y-144447792D01*
X115742780Y-144457539D01*
X115743756Y-144457609D01*
X115756803Y-144452999D01*
X115781291Y-144441401D01*
X115814117Y-144424511D01*
X115852178Y-144404022D01*
X115892371Y-144381628D01*
X115931595Y-144359025D01*
X115966746Y-144337906D01*
X115994722Y-144319965D01*
X115997592Y-144318040D01*
X116032937Y-144296576D01*
X116065727Y-144280353D01*
X116092918Y-144270492D01*
X116111465Y-144268119D01*
X116118323Y-144274355D01*
X116121127Y-144282758D01*
X116130262Y-144304533D01*
X116144334Y-144336291D01*
X116161894Y-144374879D01*
X116181491Y-144417146D01*
X116201675Y-144459941D01*
X116220997Y-144500113D01*
X116238007Y-144534508D01*
X116243709Y-144546061D01*
X116255726Y-144575669D01*
X116257203Y-144595883D01*
X116247625Y-144610723D01*
X116226474Y-144624210D01*
X116203522Y-144636743D01*
X116171190Y-144655207D01*
X116138032Y-144674775D01*
X116134400Y-144676955D01*
X116107627Y-144692708D01*
X116087796Y-144703840D01*
X116078970Y-144708059D01*
X116075323Y-144709656D01*
X116059224Y-144718492D01*
X116033588Y-144733329D01*
X116001875Y-144752185D01*
X115982312Y-144763842D01*
X115953495Y-144780558D01*
X115932663Y-144792050D01*
X115923358Y-144796329D01*
X115923128Y-144796238D01*
X115916661Y-144787329D01*
X115903316Y-144765513D01*
X115884473Y-144733153D01*
X115861510Y-144692614D01*
X115835807Y-144646259D01*
X115833200Y-144641521D01*
X115807254Y-144595539D01*
X115783612Y-144555634D01*
X115763769Y-144524186D01*
X115749219Y-144503572D01*
X115741459Y-144496172D01*
X115737504Y-144496804D01*
X115719488Y-144504014D01*
X115696580Y-144516681D01*
X115688712Y-144521523D01*
X115665938Y-144534940D01*
X115650405Y-144543243D01*
X115646767Y-144544966D01*
X115637431Y-144549834D01*
X115623712Y-144557584D01*
X115603472Y-144569482D01*
X115574575Y-144586790D01*
X115534882Y-144610773D01*
X115482258Y-144642696D01*
X115480653Y-144643670D01*
X115444149Y-144665281D01*
X115412709Y-144682944D01*
X115389638Y-144694859D01*
X115378244Y-144699230D01*
X115371588Y-144696838D01*
X115361891Y-144683780D01*
X115359704Y-144678306D01*
X115350281Y-144656938D01*
X115335142Y-144623825D01*
X115315575Y-144581727D01*
X115292867Y-144533405D01*
X115268306Y-144481621D01*
X115243178Y-144429135D01*
X115231019Y-144400859D01*
X115223307Y-144376611D01*
X115222168Y-144362638D01*
X115222273Y-144362384D01*
X115232552Y-144351831D01*
X115253963Y-144336673D01*
X115282016Y-144320102D01*
X115311557Y-144303677D01*
X115339939Y-144287156D01*
X115359060Y-144275189D01*
X115363725Y-144272041D01*
X115393656Y-144253051D01*
X115428920Y-144232168D01*
X115466109Y-144211229D01*
X115501815Y-144192071D01*
X115532631Y-144176532D01*
X115555148Y-144166448D01*
X115565959Y-144163656D01*
X115571786Y-144168616D01*
G37*
G36*
X95670778Y-139081286D02*
G01*
X95698085Y-139087884D01*
X95733266Y-139099385D01*
X95772720Y-139114793D01*
X95780294Y-139117954D01*
X95808594Y-139129496D01*
X95838935Y-139141601D01*
X95849061Y-139145618D01*
X95880508Y-139158381D01*
X95906484Y-139169286D01*
X95908281Y-139170055D01*
X95929810Y-139178044D01*
X95944126Y-139181330D01*
X95951525Y-139182504D01*
X95969277Y-139189252D01*
X95975253Y-139192127D01*
X95997272Y-139201660D01*
X96024336Y-139212523D01*
X96034374Y-139216436D01*
X96065865Y-139229056D01*
X96091886Y-139239915D01*
X96093683Y-139240685D01*
X96115211Y-139248673D01*
X96129527Y-139251959D01*
X96136927Y-139253133D01*
X96154679Y-139259881D01*
X96160655Y-139262757D01*
X96182673Y-139272289D01*
X96209738Y-139283152D01*
X96219775Y-139287066D01*
X96251266Y-139299685D01*
X96277287Y-139310544D01*
X96278684Y-139311143D01*
X96301221Y-139319246D01*
X96317457Y-139322588D01*
X96322119Y-139323023D01*
X96338195Y-139329958D01*
X96344298Y-139333714D01*
X96364122Y-139342711D01*
X96390725Y-139352862D01*
X96405639Y-139358206D01*
X96437027Y-139369951D01*
X96461354Y-139379667D01*
X96463307Y-139380488D01*
X96486219Y-139389591D01*
X96518585Y-139401903D01*
X96554055Y-139415003D01*
X96558318Y-139416557D01*
X96594056Y-139429901D01*
X96626145Y-139442375D01*
X96648090Y-139451458D01*
X96649609Y-139452126D01*
X96672081Y-139460426D01*
X96688260Y-139463846D01*
X96692922Y-139464281D01*
X96708998Y-139471216D01*
X96715101Y-139474973D01*
X96734925Y-139483969D01*
X96761528Y-139494120D01*
X96776442Y-139499464D01*
X96807830Y-139511209D01*
X96832157Y-139520925D01*
X96834091Y-139521738D01*
X96857000Y-139530818D01*
X96889374Y-139543081D01*
X96924858Y-139556114D01*
X96927470Y-139557058D01*
X96966052Y-139571105D01*
X96994353Y-139581844D01*
X97018389Y-139591748D01*
X97044175Y-139603288D01*
X97077726Y-139618936D01*
X97094640Y-139626944D01*
X97109098Y-139634919D01*
X97121186Y-139644468D01*
X97132127Y-139657728D01*
X97143143Y-139676836D01*
X97155457Y-139703931D01*
X97170290Y-139741150D01*
X97188866Y-139790632D01*
X97212405Y-139854514D01*
X97214208Y-139861480D01*
X97209785Y-139869238D01*
X97194356Y-139865190D01*
X97169264Y-139849494D01*
X97161928Y-139844481D01*
X97132527Y-139827559D01*
X97101431Y-139812980D01*
X97090899Y-139808726D01*
X97060144Y-139796298D01*
X97035216Y-139786217D01*
X97034916Y-139786096D01*
X97007221Y-139775279D01*
X96977830Y-139764309D01*
X96947852Y-139752829D01*
X96919109Y-139740913D01*
X96917654Y-139740282D01*
X96895148Y-139732085D01*
X96878939Y-139728706D01*
X96874277Y-139728271D01*
X96858202Y-139721336D01*
X96852099Y-139717579D01*
X96832274Y-139708583D01*
X96805671Y-139698432D01*
X96790757Y-139693088D01*
X96759370Y-139681343D01*
X96735042Y-139671627D01*
X96733090Y-139670806D01*
X96710177Y-139661702D01*
X96677812Y-139649391D01*
X96642341Y-139636291D01*
X96637779Y-139634629D01*
X96602354Y-139621498D01*
X96570858Y-139609475D01*
X96549641Y-139600976D01*
X96547706Y-139600164D01*
X96524797Y-139591095D01*
X96492423Y-139578839D01*
X96456940Y-139565808D01*
X96450768Y-139563572D01*
X96417364Y-139551236D01*
X96389637Y-139540638D01*
X96373068Y-139533866D01*
X96372005Y-139533407D01*
X96357285Y-139527541D01*
X96328486Y-139516340D01*
X96287637Y-139500583D01*
X96236768Y-139481043D01*
X96177909Y-139458498D01*
X96113090Y-139433723D01*
X96044341Y-139407495D01*
X95973693Y-139380589D01*
X95903175Y-139353783D01*
X95834818Y-139327850D01*
X95770651Y-139303569D01*
X95754032Y-139297140D01*
X95739057Y-139289734D01*
X95727204Y-139279829D01*
X95716583Y-139264626D01*
X95705306Y-139241328D01*
X95691485Y-139207138D01*
X95673232Y-139159258D01*
X95668510Y-139146404D01*
X95658500Y-139115519D01*
X95652967Y-139092521D01*
X95653013Y-139081638D01*
X95654948Y-139080589D01*
X95670778Y-139081286D01*
G37*
G36*
X103314996Y-139517067D02*
G01*
X103316653Y-139517863D01*
X103332254Y-139524300D01*
X103362493Y-139536264D01*
X103405941Y-139553206D01*
X103461174Y-139574577D01*
X103526764Y-139599827D01*
X103601286Y-139628407D01*
X103683311Y-139659766D01*
X103771415Y-139693355D01*
X103864170Y-139728626D01*
X103893815Y-139739888D01*
X103985271Y-139774697D01*
X104071634Y-139807659D01*
X104151475Y-139838223D01*
X104223368Y-139865840D01*
X104285884Y-139889958D01*
X104337596Y-139910028D01*
X104377077Y-139925500D01*
X104402898Y-139935822D01*
X104413633Y-139940445D01*
X104423424Y-139945271D01*
X104438784Y-139949422D01*
X104439519Y-139949450D01*
X104454752Y-139953353D01*
X104476426Y-139961832D01*
X104486941Y-139966326D01*
X104516650Y-139978090D01*
X104548389Y-139989777D01*
X104565046Y-139995944D01*
X104588263Y-140005715D01*
X104600920Y-140012681D01*
X104604587Y-140015225D01*
X104621803Y-140020051D01*
X104624056Y-140020232D01*
X104642877Y-140025819D01*
X104670819Y-140037387D01*
X104702819Y-140052458D01*
X104733815Y-140068551D01*
X104758743Y-140083187D01*
X104772541Y-140093885D01*
X104781153Y-140108257D01*
X104793083Y-140134389D01*
X104806443Y-140167761D01*
X104819861Y-140204448D01*
X104831967Y-140240530D01*
X104841387Y-140272083D01*
X104846751Y-140295185D01*
X104846688Y-140305914D01*
X104846388Y-140306157D01*
X104835905Y-140304454D01*
X104818659Y-140294676D01*
X104818181Y-140294342D01*
X104797182Y-140281724D01*
X104767879Y-140266477D01*
X104735042Y-140250797D01*
X104703446Y-140236879D01*
X104677863Y-140226918D01*
X104663067Y-140223110D01*
X104658322Y-140222510D01*
X104645504Y-140214281D01*
X104641857Y-140210505D01*
X104626453Y-140205452D01*
X104625850Y-140205441D01*
X104608094Y-140201743D01*
X104585038Y-140193408D01*
X104577450Y-140190174D01*
X104548317Y-140178210D01*
X104517489Y-140166016D01*
X104505605Y-140161343D01*
X104479752Y-140150643D01*
X104462430Y-140142745D01*
X104452970Y-140138609D01*
X104437278Y-140134823D01*
X104436594Y-140134799D01*
X104421366Y-140131026D01*
X104399637Y-140122779D01*
X104392048Y-140119545D01*
X104362916Y-140107581D01*
X104332088Y-140095387D01*
X104320203Y-140090714D01*
X104294350Y-140080014D01*
X104277028Y-140072116D01*
X104267568Y-140067979D01*
X104251877Y-140064194D01*
X104251193Y-140064170D01*
X104235964Y-140060397D01*
X104214235Y-140052150D01*
X104206647Y-140048916D01*
X104177515Y-140036952D01*
X104146686Y-140024758D01*
X104134802Y-140020084D01*
X104108949Y-140009385D01*
X104091627Y-140001487D01*
X104082167Y-139997350D01*
X104066475Y-139993565D01*
X104065791Y-139993540D01*
X104050563Y-139989768D01*
X104028834Y-139981521D01*
X104021245Y-139978287D01*
X103992113Y-139966322D01*
X103961285Y-139954129D01*
X103949400Y-139949455D01*
X103923547Y-139938755D01*
X103906225Y-139930858D01*
X103896765Y-139926721D01*
X103881074Y-139922936D01*
X103880390Y-139922911D01*
X103865161Y-139919139D01*
X103843432Y-139910892D01*
X103835844Y-139907658D01*
X103806712Y-139895693D01*
X103775883Y-139883500D01*
X103763999Y-139878826D01*
X103738146Y-139868126D01*
X103720824Y-139860229D01*
X103711364Y-139856092D01*
X103695672Y-139852307D01*
X103694166Y-139852198D01*
X103678180Y-139847831D01*
X103655824Y-139839064D01*
X103626199Y-139825998D01*
X103595769Y-139812578D01*
X103592390Y-139811124D01*
X103568985Y-139802752D01*
X103552147Y-139799335D01*
X103545802Y-139798536D01*
X103533515Y-139791185D01*
X103533281Y-139790841D01*
X103521182Y-139783406D01*
X103500177Y-139776820D01*
X103476406Y-139770445D01*
X103458342Y-139763640D01*
X103435048Y-139752471D01*
X103408004Y-139740875D01*
X103384899Y-139732150D01*
X103371710Y-139728706D01*
X103370708Y-139728536D01*
X103361738Y-139719210D01*
X103352289Y-139700013D01*
X103352197Y-139699770D01*
X103342540Y-139674432D01*
X103334423Y-139653662D01*
X103327669Y-139636590D01*
X103308393Y-139583888D01*
X103297554Y-139546054D01*
X103295086Y-139522618D01*
X103300922Y-139513112D01*
X103314996Y-139517067D01*
G37*
G36*
X106499559Y-136622900D02*
G01*
X106521706Y-136630357D01*
X106556714Y-136642783D01*
X106602554Y-136659414D01*
X106657193Y-136679486D01*
X106718600Y-136702234D01*
X106784743Y-136726896D01*
X106853591Y-136752706D01*
X106923111Y-136778901D01*
X106991272Y-136804717D01*
X107056043Y-136829389D01*
X107115391Y-136852154D01*
X107167286Y-136872248D01*
X107209695Y-136888907D01*
X107240588Y-136901366D01*
X107257931Y-136908863D01*
X107258433Y-136909103D01*
X107278706Y-136917653D01*
X107291912Y-136921198D01*
X107292604Y-136921231D01*
X107306874Y-136925089D01*
X107328077Y-136933406D01*
X107356785Y-136945307D01*
X107386797Y-136956802D01*
X107389992Y-136957962D01*
X107419281Y-136968932D01*
X107453045Y-136982257D01*
X107497155Y-137000251D01*
X107504222Y-137003080D01*
X107532695Y-137013731D01*
X107563370Y-137024440D01*
X107573086Y-137027749D01*
X107604255Y-137038977D01*
X107629585Y-137048891D01*
X107637090Y-137052015D01*
X107665414Y-137063464D01*
X107695800Y-137075406D01*
X107707930Y-137080161D01*
X107732953Y-137090388D01*
X107749061Y-137097554D01*
X107766743Y-137104124D01*
X107790896Y-137110570D01*
X107792079Y-137110836D01*
X107812821Y-137117553D01*
X107824235Y-137124936D01*
X107827354Y-137128211D01*
X107842179Y-137133085D01*
X107858694Y-137136477D01*
X107885099Y-137147086D01*
X107914783Y-137162230D01*
X107942822Y-137179146D01*
X107964295Y-137195070D01*
X107974280Y-137207239D01*
X107977999Y-137219271D01*
X107986992Y-137243443D01*
X107991566Y-137254381D01*
X108004843Y-137288495D01*
X108017912Y-137324868D01*
X108029198Y-137358832D01*
X108037125Y-137385719D01*
X108040117Y-137400860D01*
X108040101Y-137402541D01*
X108038414Y-137410470D01*
X108031794Y-137410805D01*
X108017193Y-137402526D01*
X107991559Y-137384613D01*
X107984271Y-137379993D01*
X107958420Y-137366684D01*
X107923728Y-137351237D01*
X107885616Y-137336132D01*
X107865702Y-137328611D01*
X107833308Y-137315761D01*
X107809291Y-137305423D01*
X107797771Y-137299324D01*
X107794214Y-137296854D01*
X107777033Y-137292001D01*
X107776358Y-137291984D01*
X107759447Y-137288203D01*
X107736863Y-137279793D01*
X107708155Y-137267891D01*
X107678143Y-137256397D01*
X107677794Y-137256271D01*
X107648326Y-137245265D01*
X107620756Y-137234489D01*
X107613228Y-137231464D01*
X107584913Y-137220260D01*
X107554542Y-137208421D01*
X107542657Y-137203748D01*
X107516804Y-137193048D01*
X107499482Y-137185151D01*
X107490022Y-137181014D01*
X107474331Y-137177228D01*
X107473647Y-137177204D01*
X107458418Y-137173431D01*
X107436689Y-137165185D01*
X107429029Y-137161912D01*
X107399922Y-137149857D01*
X107369140Y-137137500D01*
X107359014Y-137133482D01*
X107327567Y-137120720D01*
X107301591Y-137109815D01*
X107299794Y-137109045D01*
X107278265Y-137101057D01*
X107263950Y-137097771D01*
X107256550Y-137096597D01*
X107238798Y-137089848D01*
X107232866Y-137087005D01*
X107210838Y-137077571D01*
X107183739Y-137066870D01*
X107171926Y-137062308D01*
X107146031Y-137051743D01*
X107128679Y-137043892D01*
X107119219Y-137039756D01*
X107103528Y-137035970D01*
X107102844Y-137035946D01*
X107087615Y-137032173D01*
X107065886Y-137023926D01*
X107058298Y-137020692D01*
X107029166Y-137008728D01*
X106998337Y-136996534D01*
X106986453Y-136991861D01*
X106960600Y-136981161D01*
X106943278Y-136973263D01*
X106933818Y-136969126D01*
X106918126Y-136965341D01*
X106917442Y-136965317D01*
X106902214Y-136961544D01*
X106880485Y-136953297D01*
X106872896Y-136950063D01*
X106843764Y-136938099D01*
X106812936Y-136925905D01*
X106801051Y-136921231D01*
X106775198Y-136910532D01*
X106757877Y-136902634D01*
X106748416Y-136898497D01*
X106732725Y-136894712D01*
X106732041Y-136894687D01*
X106716812Y-136890915D01*
X106695083Y-136882668D01*
X106687458Y-136879414D01*
X106658339Y-136867403D01*
X106627534Y-136855125D01*
X106606224Y-136846752D01*
X106579211Y-136834760D01*
X106561084Y-136822308D01*
X106548110Y-136805364D01*
X106536556Y-136779894D01*
X106522688Y-136741868D01*
X106515320Y-136721426D01*
X106502512Y-136686980D01*
X106492028Y-136660134D01*
X106485614Y-136645423D01*
X106479291Y-136632108D01*
X106479876Y-136623058D01*
X106492515Y-136621024D01*
X106499559Y-136622900D01*
G37*
G36*
X113758215Y-134321923D02*
G01*
X113773776Y-134327192D01*
X113792744Y-134333997D01*
X113812408Y-134341750D01*
X113836608Y-134352047D01*
X113869187Y-134366486D01*
X113913986Y-134386663D01*
X113917962Y-134388449D01*
X113948155Y-134401321D01*
X113972149Y-134410416D01*
X113985057Y-134413864D01*
X113988636Y-134414216D01*
X114004305Y-134421736D01*
X114009653Y-134424889D01*
X114029889Y-134433523D01*
X114061158Y-134445332D01*
X114099816Y-134459062D01*
X114142221Y-134473461D01*
X114184728Y-134487275D01*
X114223696Y-134499251D01*
X114255480Y-134508135D01*
X114274113Y-134512981D01*
X114308137Y-134522098D01*
X114334938Y-134529593D01*
X114405243Y-134548469D01*
X114493242Y-134569011D01*
X114586522Y-134588151D01*
X114678633Y-134604575D01*
X114763127Y-134616965D01*
X114764169Y-134617097D01*
X114806348Y-134622803D01*
X114849258Y-134629170D01*
X114883764Y-134634844D01*
X114899924Y-134636741D01*
X114932050Y-134638796D01*
X114974985Y-134640520D01*
X115025882Y-134641894D01*
X115081896Y-134642899D01*
X115140181Y-134643518D01*
X115197891Y-134643732D01*
X115252180Y-134643522D01*
X115300203Y-134642869D01*
X115339113Y-134641755D01*
X115366066Y-134640161D01*
X115378214Y-134638069D01*
X115379285Y-134637541D01*
X115394493Y-134633713D01*
X115421367Y-134629224D01*
X115454864Y-134624936D01*
X115479052Y-134621606D01*
X115521041Y-134614209D01*
X115568856Y-134604509D01*
X115617852Y-134593559D01*
X115663381Y-134582410D01*
X115700795Y-134572113D01*
X115725449Y-134563719D01*
X115740487Y-134557994D01*
X115765178Y-134550111D01*
X115770125Y-134548618D01*
X115794933Y-134539558D01*
X115822564Y-134527842D01*
X115871991Y-134506520D01*
X115922256Y-134487214D01*
X115968140Y-134471840D01*
X116005820Y-134461678D01*
X116031468Y-134458007D01*
X116067009Y-134461270D01*
X116102112Y-134475491D01*
X116135234Y-134503754D01*
X116143146Y-134512589D01*
X116168440Y-134544690D01*
X116198460Y-134586788D01*
X116230573Y-134634873D01*
X116262150Y-134684934D01*
X116290558Y-134732962D01*
X116313167Y-134774947D01*
X116323749Y-134796656D01*
X116340836Y-134836321D01*
X116347884Y-134861638D01*
X116344965Y-134872525D01*
X116332148Y-134868898D01*
X116309503Y-134850676D01*
X116277100Y-134817774D01*
X116271347Y-134811662D01*
X116242824Y-134783810D01*
X116215258Y-134760257D01*
X116193905Y-134745566D01*
X116182688Y-134739900D01*
X116164098Y-134733641D01*
X116144412Y-134733858D01*
X116115765Y-134739989D01*
X116090082Y-134747547D01*
X116051118Y-134761440D01*
X116013971Y-134776883D01*
X116013755Y-134776981D01*
X115984249Y-134789750D01*
X115960386Y-134798853D01*
X115947315Y-134802324D01*
X115943836Y-134802651D01*
X115928066Y-134810046D01*
X115923568Y-134812774D01*
X115903952Y-134820834D01*
X115873475Y-134831415D01*
X115836258Y-134843232D01*
X115796421Y-134855000D01*
X115758085Y-134865435D01*
X115725370Y-134873251D01*
X115725060Y-134873317D01*
X115698781Y-134877974D01*
X115660170Y-134883694D01*
X115614372Y-134889757D01*
X115566533Y-134895444D01*
X115559846Y-134896194D01*
X115516371Y-134901274D01*
X115479145Y-134905957D01*
X115451938Y-134909752D01*
X115438518Y-134912164D01*
X115425379Y-134914133D01*
X115394746Y-134915341D01*
X115351628Y-134915123D01*
X115298918Y-134913644D01*
X115239508Y-134911068D01*
X115176293Y-134907560D01*
X115112165Y-134903285D01*
X115050017Y-134898406D01*
X114992742Y-134893089D01*
X114943234Y-134887497D01*
X114904385Y-134881796D01*
X114843650Y-134870971D01*
X114728731Y-134849160D01*
X114626012Y-134827525D01*
X114531851Y-134805176D01*
X114442608Y-134781219D01*
X114354641Y-134754761D01*
X114264309Y-134724911D01*
X114195042Y-134697443D01*
X114106017Y-134653398D01*
X114011288Y-134597925D01*
X113999359Y-134590419D01*
X113970627Y-134572091D01*
X113950596Y-134558629D01*
X113934473Y-134546720D01*
X113917466Y-134533050D01*
X113907590Y-134525045D01*
X113887406Y-134508817D01*
X113862594Y-134488949D01*
X113862306Y-134488719D01*
X113833965Y-134464583D01*
X113802169Y-134435248D01*
X113770270Y-134404078D01*
X113741618Y-134374435D01*
X113719561Y-134349683D01*
X113707452Y-134333187D01*
X113703667Y-134323729D01*
X113707471Y-134313721D01*
X113725523Y-134313148D01*
X113758215Y-134321923D01*
G37*
G36*
X115173687Y-145596566D02*
G01*
X115198685Y-145604184D01*
X115231205Y-145615191D01*
X115267396Y-145628182D01*
X115303407Y-145641751D01*
X115335389Y-145654492D01*
X115359491Y-145664997D01*
X115371862Y-145671861D01*
X115375419Y-145674341D01*
X115392599Y-145679210D01*
X115400826Y-145680581D01*
X115423708Y-145688018D01*
X115453016Y-145699953D01*
X115482951Y-145714144D01*
X115500630Y-145720827D01*
X115524786Y-145727324D01*
X115525968Y-145727590D01*
X115546710Y-145734306D01*
X115558124Y-145741689D01*
X115561624Y-145745197D01*
X115576756Y-145749839D01*
X115577390Y-145749851D01*
X115595144Y-145753607D01*
X115618171Y-145762047D01*
X115646878Y-145773948D01*
X115676891Y-145785443D01*
X115677240Y-145785569D01*
X115706707Y-145796574D01*
X115734277Y-145807350D01*
X115741875Y-145810412D01*
X115770166Y-145821709D01*
X115800492Y-145833711D01*
X115810618Y-145837728D01*
X115842065Y-145850491D01*
X115868041Y-145861396D01*
X115869839Y-145862165D01*
X115891367Y-145870154D01*
X115905683Y-145873440D01*
X115913083Y-145874614D01*
X115930834Y-145881362D01*
X115936810Y-145884237D01*
X115958829Y-145893770D01*
X115985894Y-145904633D01*
X115995931Y-145908546D01*
X116027422Y-145921165D01*
X116053443Y-145932025D01*
X116055240Y-145932794D01*
X116076768Y-145940783D01*
X116091084Y-145944069D01*
X116098484Y-145945243D01*
X116116236Y-145951991D01*
X116122212Y-145954866D01*
X116144230Y-145964399D01*
X116171295Y-145975262D01*
X116181332Y-145979175D01*
X116212824Y-145991795D01*
X116238844Y-146002654D01*
X116240641Y-146003424D01*
X116262170Y-146011412D01*
X116276486Y-146014698D01*
X116283886Y-146015872D01*
X116301637Y-146022620D01*
X116307613Y-146025496D01*
X116329632Y-146035028D01*
X116356697Y-146045891D01*
X116366734Y-146049805D01*
X116398225Y-146062424D01*
X116424246Y-146073283D01*
X116426043Y-146074053D01*
X116447571Y-146082041D01*
X116461887Y-146085327D01*
X116469287Y-146086501D01*
X116487039Y-146093249D01*
X116493115Y-146096198D01*
X116515110Y-146105949D01*
X116542098Y-146117170D01*
X116574564Y-146130979D01*
X116609508Y-146149608D01*
X116633674Y-146169719D01*
X116650821Y-146194706D01*
X116664706Y-146227966D01*
X116674741Y-146256169D01*
X116687039Y-146289795D01*
X116696579Y-146314872D01*
X116697496Y-146317202D01*
X116707277Y-146343769D01*
X116714340Y-146365636D01*
X116715073Y-146368470D01*
X116714844Y-146382754D01*
X116703968Y-146383088D01*
X116682340Y-146369484D01*
X116677172Y-146365668D01*
X116664336Y-146357279D01*
X116648208Y-146348535D01*
X116626569Y-146338492D01*
X116597204Y-146326205D01*
X116557893Y-146310727D01*
X116506421Y-146291114D01*
X116440569Y-146266420D01*
X116439063Y-146265858D01*
X116388449Y-146246921D01*
X116342719Y-146229744D01*
X116304790Y-146215426D01*
X116277577Y-146205070D01*
X116263996Y-146199774D01*
X116262293Y-146199068D01*
X116240994Y-146190183D01*
X116215438Y-146179458D01*
X116204464Y-146174972D01*
X116173035Y-146162830D01*
X116140395Y-146150916D01*
X116123738Y-146144748D01*
X116100521Y-146134978D01*
X116087864Y-146128011D01*
X116084306Y-146125524D01*
X116067127Y-146120642D01*
X116066452Y-146120625D01*
X116049541Y-146116844D01*
X116026957Y-146108434D01*
X115998249Y-146096532D01*
X115968236Y-146085038D01*
X115967889Y-146084912D01*
X115938421Y-146073902D01*
X115910850Y-146063115D01*
X115908839Y-146062306D01*
X115885915Y-146053398D01*
X115853577Y-146041153D01*
X115818149Y-146027970D01*
X115813470Y-146026242D01*
X115778085Y-146013018D01*
X115746636Y-146001019D01*
X115725449Y-145992656D01*
X115723442Y-145991837D01*
X115700519Y-145982849D01*
X115668179Y-145970547D01*
X115632748Y-145957341D01*
X115628075Y-145955616D01*
X115592688Y-145942373D01*
X115561236Y-145930334D01*
X115540047Y-145921918D01*
X115529715Y-145917763D01*
X115500751Y-145906750D01*
X115469418Y-145895426D01*
X115452784Y-145889267D01*
X115429552Y-145879409D01*
X115416888Y-145872279D01*
X115412351Y-145869190D01*
X115394816Y-145864557D01*
X115377847Y-145860686D01*
X115355844Y-145851314D01*
X115355324Y-145851043D01*
X115335201Y-145841910D01*
X115321864Y-145838125D01*
X115310414Y-145835266D01*
X115288023Y-145826973D01*
X115261207Y-145815630D01*
X115235985Y-145803652D01*
X115224991Y-145791889D01*
X115215475Y-145771280D01*
X115208409Y-145749534D01*
X115200362Y-145727767D01*
X115200123Y-145727191D01*
X115186518Y-145692297D01*
X115174306Y-145657438D01*
X115164761Y-145626711D01*
X115159158Y-145604213D01*
X115158771Y-145594040D01*
X115160061Y-145593745D01*
X115173687Y-145596566D01*
G37*
G36*
X101591872Y-138305087D02*
G01*
X101594347Y-138312532D01*
X101599008Y-138325008D01*
X101606202Y-138342403D01*
X101617491Y-138368449D01*
X101634435Y-138406878D01*
X101645040Y-138431516D01*
X101653823Y-138453424D01*
X101657309Y-138464264D01*
X101658022Y-138467286D01*
X101664226Y-138483132D01*
X101674667Y-138505939D01*
X101678737Y-138514794D01*
X101688130Y-138539435D01*
X101692024Y-138556704D01*
X101693519Y-138564852D01*
X101701153Y-138572154D01*
X101705920Y-138574687D01*
X101709981Y-138588045D01*
X101711154Y-138596829D01*
X101719524Y-138613480D01*
X101722246Y-138617692D01*
X101721688Y-138633742D01*
X101710841Y-138660746D01*
X101706730Y-138669734D01*
X101694571Y-138701822D01*
X101686904Y-138730219D01*
X101686238Y-138733740D01*
X101680348Y-138756726D01*
X101674187Y-138770893D01*
X101671389Y-138779820D01*
X101667264Y-138805949D01*
X101662489Y-138847768D01*
X101657164Y-138904201D01*
X101651390Y-138974173D01*
X101645266Y-139056608D01*
X101638892Y-139150430D01*
X101637018Y-139178986D01*
X101632590Y-139245565D01*
X101627283Y-139324461D01*
X101621335Y-139412187D01*
X101614984Y-139505259D01*
X101608466Y-139600189D01*
X101602019Y-139693490D01*
X101595882Y-139781677D01*
X101594646Y-139799273D01*
X101587282Y-139901292D01*
X101579864Y-139999452D01*
X101572664Y-140090309D01*
X101565952Y-140170424D01*
X101560002Y-140236352D01*
X101557809Y-140260925D01*
X101553574Y-140315193D01*
X101549644Y-140373268D01*
X101546651Y-140426168D01*
X101545182Y-140453565D01*
X101541559Y-140510378D01*
X101537308Y-140567512D01*
X101533072Y-140615984D01*
X101530943Y-140638215D01*
X101527506Y-140675933D01*
X101523842Y-140718526D01*
X101519827Y-140767587D01*
X101515341Y-140824708D01*
X101510261Y-140891482D01*
X101504464Y-140969502D01*
X101497828Y-141060360D01*
X101490231Y-141165649D01*
X101481551Y-141286961D01*
X101481082Y-141293487D01*
X101476736Y-141351572D01*
X101471897Y-141412694D01*
X101467121Y-141469966D01*
X101462967Y-141516505D01*
X101458813Y-141562152D01*
X101453774Y-141620045D01*
X101448658Y-141680898D01*
X101444107Y-141737221D01*
X101441467Y-141770766D01*
X101435021Y-141852596D01*
X101429542Y-141921965D01*
X101424730Y-141982648D01*
X101420284Y-142038417D01*
X101415904Y-142093044D01*
X101411289Y-142150304D01*
X101406138Y-142213968D01*
X101402232Y-142262264D01*
X101393844Y-142366600D01*
X101386752Y-142456031D01*
X101380823Y-142532458D01*
X101375923Y-142597779D01*
X101371921Y-142653895D01*
X101368682Y-142702705D01*
X101366073Y-142746108D01*
X101363963Y-142786004D01*
X101362217Y-142824293D01*
X101360702Y-142862873D01*
X101359367Y-142897060D01*
X101357295Y-142942933D01*
X101355250Y-142980783D01*
X101353413Y-143007402D01*
X101351962Y-143019582D01*
X101343923Y-143029943D01*
X101331884Y-143025417D01*
X101318570Y-143006339D01*
X101317109Y-143003367D01*
X101304153Y-142971243D01*
X101289926Y-142925856D01*
X101274144Y-142866149D01*
X101256527Y-142791064D01*
X101236792Y-142699543D01*
X101235729Y-142694079D01*
X101230529Y-142654259D01*
X101226492Y-142600449D01*
X101223641Y-142535724D01*
X101221997Y-142463160D01*
X101221581Y-142385830D01*
X101222413Y-142306812D01*
X101224516Y-142229178D01*
X101227909Y-142156005D01*
X101232614Y-142090367D01*
X101235485Y-142057449D01*
X101241590Y-141984488D01*
X101247612Y-141908045D01*
X101253816Y-141824582D01*
X101260469Y-141730562D01*
X101267837Y-141622449D01*
X101268276Y-141615956D01*
X101272405Y-141557865D01*
X101277049Y-141496734D01*
X101281671Y-141439452D01*
X101285734Y-141392904D01*
X101286545Y-141383959D01*
X101290122Y-141341411D01*
X101294415Y-141286715D01*
X101299099Y-141224170D01*
X101303850Y-141158076D01*
X101308345Y-141092731D01*
X101309703Y-141072667D01*
X101314236Y-141008119D01*
X101318882Y-140945147D01*
X101323334Y-140887762D01*
X101327282Y-140839976D01*
X101330418Y-140805800D01*
X101332354Y-140785461D01*
X101336680Y-140733128D01*
X101340684Y-140676534D01*
X101343696Y-140624813D01*
X101344928Y-140601932D01*
X101348459Y-140546808D01*
X101352652Y-140491061D01*
X101356841Y-140443826D01*
X101358057Y-140430945D01*
X101361468Y-140390793D01*
X101365552Y-140338573D01*
X101370019Y-140278142D01*
X101374583Y-140213354D01*
X101378954Y-140148066D01*
X101380840Y-140119449D01*
X101385332Y-140053906D01*
X101389889Y-139990565D01*
X101394223Y-139933281D01*
X101398045Y-139885910D01*
X101401068Y-139852307D01*
X101403319Y-139827966D01*
X101407495Y-139775593D01*
X101411358Y-139719033D01*
X101414294Y-139666905D01*
X101415741Y-139639510D01*
X101419308Y-139582697D01*
X101423493Y-139525562D01*
X101427662Y-139477089D01*
X101428994Y-139462708D01*
X101432927Y-139416352D01*
X101437299Y-139360443D01*
X101441668Y-139300773D01*
X101445588Y-139243130D01*
X101447485Y-139214422D01*
X101451143Y-139161509D01*
X101454695Y-139112972D01*
X101457812Y-139073229D01*
X101460167Y-139046693D01*
X101461618Y-139027767D01*
X101460976Y-139004213D01*
X101456269Y-138995928D01*
X101455854Y-138995974D01*
X101445846Y-139003583D01*
X101429317Y-139021706D01*
X101409624Y-139046693D01*
X101383033Y-139081004D01*
X101356246Y-139112856D01*
X101332061Y-139139170D01*
X101313121Y-139157067D01*
X101302072Y-139163673D01*
X101296927Y-139157401D01*
X101295115Y-139137565D01*
X101297000Y-139107819D01*
X101302038Y-139071930D01*
X101309690Y-139033659D01*
X101319412Y-138996770D01*
X101330663Y-138965028D01*
X101330869Y-138964537D01*
X101337850Y-138943132D01*
X101344201Y-138916760D01*
X101344536Y-138915097D01*
X101350822Y-138890384D01*
X101357441Y-138872617D01*
X101362220Y-138861077D01*
X101370623Y-138836429D01*
X101379838Y-138806113D01*
X101387434Y-138781118D01*
X101395740Y-138757018D01*
X101401408Y-138744312D01*
X101401972Y-138743452D01*
X101408191Y-138727958D01*
X101414325Y-138704873D01*
X101414706Y-138703126D01*
X101421241Y-138678458D01*
X101427805Y-138660730D01*
X101431147Y-138653248D01*
X101439761Y-138630953D01*
X101449587Y-138603054D01*
X101454615Y-138588532D01*
X101466513Y-138556424D01*
X101476855Y-138531091D01*
X101477214Y-138530280D01*
X101485738Y-138506093D01*
X101489265Y-138486506D01*
X101490327Y-138476732D01*
X101496743Y-138461354D01*
X101499787Y-138456236D01*
X101508625Y-138436751D01*
X101520682Y-138407115D01*
X101534265Y-138371387D01*
X101542722Y-138349308D01*
X101559197Y-138312942D01*
X101572747Y-138293604D01*
X101583572Y-138291062D01*
X101591872Y-138305087D01*
G37*
G36*
X115435163Y-141657534D02*
G01*
X115441525Y-141681961D01*
X115442280Y-141686359D01*
X115446654Y-141712103D01*
X115452600Y-141747336D01*
X115459059Y-141785779D01*
X115459500Y-141788408D01*
X115467750Y-141836373D01*
X115477230Y-141889872D01*
X115485975Y-141937807D01*
X115486467Y-141940447D01*
X115492934Y-141976626D01*
X115495861Y-142000621D01*
X115495045Y-142017297D01*
X115490284Y-142031523D01*
X115481374Y-142048165D01*
X115480429Y-142049833D01*
X115458158Y-142090821D01*
X115436319Y-142133810D01*
X115416525Y-142175305D01*
X115400390Y-142211809D01*
X115389526Y-142239826D01*
X115385546Y-142255861D01*
X115385169Y-142260070D01*
X115378210Y-142276210D01*
X115372559Y-142287793D01*
X115364194Y-142311551D01*
X115355144Y-142341983D01*
X115346868Y-142371307D01*
X115337756Y-142401818D01*
X115331044Y-142422358D01*
X115328936Y-142429917D01*
X115325495Y-142457034D01*
X115325416Y-142487746D01*
X115327724Y-142511380D01*
X115333618Y-142527193D01*
X115347108Y-142539314D01*
X115372303Y-142553514D01*
X115381043Y-142557950D01*
X115414236Y-142573172D01*
X115454812Y-142590187D01*
X115495904Y-142606076D01*
X115514738Y-142613018D01*
X115549535Y-142625965D01*
X115577205Y-142636415D01*
X115593019Y-142642589D01*
X115600469Y-142645421D01*
X115623900Y-142653649D01*
X115656804Y-142664775D01*
X115694549Y-142677218D01*
X115716881Y-142684550D01*
X115752369Y-142696451D01*
X115780313Y-142706136D01*
X115796078Y-142712015D01*
X115802523Y-142714695D01*
X115825786Y-142724074D01*
X115853464Y-142734985D01*
X115868950Y-142741170D01*
X115904952Y-142756183D01*
X115939785Y-142771356D01*
X115960145Y-142780291D01*
X115980995Y-142788912D01*
X115990840Y-142792244D01*
X116000171Y-142795966D01*
X116022042Y-142806227D01*
X116053243Y-142821430D01*
X116090582Y-142839979D01*
X116130870Y-142860277D01*
X116170914Y-142880726D01*
X116207524Y-142899730D01*
X116237510Y-142915692D01*
X116241054Y-142917638D01*
X116271326Y-142935240D01*
X116309476Y-142958615D01*
X116351669Y-142985282D01*
X116394071Y-143012761D01*
X116432849Y-143038572D01*
X116464168Y-143060235D01*
X116484195Y-143075270D01*
X116499111Y-143087685D01*
X116534907Y-143117712D01*
X116565872Y-143144287D01*
X116594115Y-143169457D01*
X116621742Y-143195269D01*
X116650863Y-143223768D01*
X116683586Y-143257003D01*
X116722019Y-143297019D01*
X116768269Y-143345862D01*
X116824446Y-143405581D01*
X116846216Y-143428688D01*
X116941638Y-143528363D01*
X117034937Y-143623272D01*
X117124585Y-143711946D01*
X117209055Y-143792917D01*
X117286821Y-143864714D01*
X117356356Y-143925869D01*
X117416134Y-143974913D01*
X117424151Y-143981178D01*
X117450894Y-144002074D01*
X117471607Y-144018261D01*
X117482348Y-144026656D01*
X117487212Y-144030087D01*
X117504420Y-144039811D01*
X117506482Y-144040820D01*
X117524365Y-144050561D01*
X117547065Y-144063861D01*
X117576892Y-144080336D01*
X117645211Y-144108652D01*
X117717822Y-144127912D01*
X117791086Y-144137751D01*
X117861362Y-144137805D01*
X117925011Y-144127708D01*
X117978392Y-144107096D01*
X118005797Y-144089987D01*
X118058614Y-144042687D01*
X118102229Y-143981159D01*
X118137232Y-143904653D01*
X118142338Y-143888612D01*
X118152598Y-143837251D01*
X118158849Y-143774275D01*
X118161139Y-143703687D01*
X118159515Y-143629488D01*
X118154023Y-143555682D01*
X118144710Y-143486272D01*
X118131623Y-143425258D01*
X118118418Y-143377986D01*
X118104245Y-143330158D01*
X118090588Y-143286580D01*
X118078786Y-143251524D01*
X118070178Y-143229262D01*
X118068612Y-143225721D01*
X118060075Y-143205481D01*
X118047757Y-143175535D01*
X118033760Y-143140975D01*
X118027353Y-143125391D01*
X118007991Y-143080605D01*
X117985800Y-143031594D01*
X117964421Y-142986474D01*
X117962206Y-142981929D01*
X117935367Y-142924846D01*
X117917109Y-142881291D01*
X117906941Y-142849765D01*
X117904375Y-142828773D01*
X117908920Y-142816816D01*
X117909968Y-142815857D01*
X117924111Y-142814209D01*
X117943341Y-142828731D01*
X117967743Y-142859543D01*
X117997401Y-142906768D01*
X118032401Y-142970525D01*
X118072828Y-143050936D01*
X118075374Y-143056187D01*
X118093740Y-143094844D01*
X118108690Y-143127672D01*
X118118744Y-143151343D01*
X118122425Y-143162527D01*
X118123712Y-143169961D01*
X118130826Y-143187446D01*
X118138517Y-143202056D01*
X118170251Y-143275296D01*
X118198291Y-143360796D01*
X118221689Y-143454315D01*
X118239496Y-143551609D01*
X118250763Y-143648436D01*
X118254541Y-143740554D01*
X118254383Y-143754564D01*
X118251480Y-143816027D01*
X118245425Y-143880484D01*
X118236843Y-143943803D01*
X118226362Y-144001856D01*
X118214608Y-144050511D01*
X118202207Y-144085640D01*
X118199064Y-144092517D01*
X118188674Y-144115747D01*
X118176562Y-144143250D01*
X118140210Y-144211691D01*
X118083307Y-144286236D01*
X118014319Y-144349851D01*
X117935408Y-144400599D01*
X117848737Y-144436547D01*
X117829096Y-144442655D01*
X117797375Y-144452546D01*
X117773693Y-144459961D01*
X117759005Y-144463760D01*
X117706301Y-144468007D01*
X117645263Y-144461459D01*
X117579657Y-144444719D01*
X117513249Y-144418386D01*
X117454328Y-144386215D01*
X117381078Y-144336557D01*
X117299399Y-144272105D01*
X117209194Y-144192771D01*
X117110361Y-144098466D01*
X117002801Y-143989103D01*
X116886415Y-143864592D01*
X116832750Y-143806354D01*
X116747280Y-143715484D01*
X116666571Y-143632024D01*
X116591693Y-143557019D01*
X116523715Y-143491510D01*
X116463705Y-143436543D01*
X116412733Y-143393159D01*
X116371868Y-143362403D01*
X116366506Y-143358759D01*
X116342401Y-143342386D01*
X116310847Y-143320958D01*
X116277239Y-143298139D01*
X116244510Y-143277217D01*
X116196973Y-143249229D01*
X116142787Y-143219094D01*
X116086283Y-143189105D01*
X116031792Y-143161553D01*
X115983642Y-143138729D01*
X115946165Y-143122925D01*
X115930522Y-143116882D01*
X115901246Y-143104794D01*
X115879950Y-143095022D01*
X115862458Y-143087487D01*
X115846723Y-143083644D01*
X115838570Y-143082328D01*
X115820237Y-143075003D01*
X115813253Y-143071776D01*
X115790687Y-143063019D01*
X115758451Y-143051508D01*
X115721034Y-143038878D01*
X115710627Y-143035453D01*
X115614430Y-143002846D01*
X115534742Y-142973933D01*
X115470929Y-142948474D01*
X115422356Y-142926229D01*
X115418477Y-142924172D01*
X115385568Y-142900220D01*
X115350594Y-142865425D01*
X115317885Y-142824555D01*
X115291772Y-142782381D01*
X115278698Y-142754902D01*
X115257124Y-142701647D01*
X115236371Y-142642157D01*
X115218761Y-142583264D01*
X115206616Y-142531799D01*
X115204051Y-142515314D01*
X115199962Y-142470682D01*
X115197433Y-142415330D01*
X115196453Y-142353874D01*
X115197007Y-142290929D01*
X115199084Y-142231112D01*
X115202668Y-142179037D01*
X115207747Y-142139322D01*
X115224610Y-142064855D01*
X115250940Y-141978480D01*
X115283639Y-141891608D01*
X115320826Y-141808768D01*
X115360622Y-141734488D01*
X115401147Y-141673300D01*
X115412728Y-141659290D01*
X115426201Y-141650114D01*
X115435163Y-141657534D01*
G37*
G36*
X104384555Y-142157129D02*
G01*
X104390010Y-142197661D01*
X104391881Y-142229536D01*
X104390332Y-142258913D01*
X104385530Y-142291949D01*
X104381636Y-142312354D01*
X104359469Y-142386594D01*
X104326575Y-142447252D01*
X104282146Y-142495259D01*
X104225374Y-142531548D01*
X104155452Y-142557049D01*
X104136822Y-142561475D01*
X104114008Y-142565317D01*
X104086868Y-142568021D01*
X104052739Y-142569712D01*
X104008955Y-142570516D01*
X103952852Y-142570560D01*
X103881764Y-142569968D01*
X103665525Y-142567609D01*
X103614698Y-142592310D01*
X103587344Y-142607654D01*
X103551458Y-142636460D01*
X103528156Y-142667756D01*
X103519853Y-142698832D01*
X103523128Y-142713728D01*
X103536902Y-142740947D01*
X103561898Y-142778222D01*
X103598614Y-142826283D01*
X103647549Y-142885861D01*
X103649106Y-142887700D01*
X103673579Y-142915109D01*
X103707532Y-142951333D01*
X103747914Y-142993286D01*
X103791669Y-143037881D01*
X103835746Y-143082029D01*
X103877091Y-143122645D01*
X103912650Y-143156641D01*
X103939371Y-143180929D01*
X103969286Y-143206754D01*
X104018641Y-143249051D01*
X104059637Y-143283632D01*
X104095461Y-143313141D01*
X104129301Y-143340222D01*
X104164343Y-143367519D01*
X104169466Y-143371461D01*
X104263692Y-143441926D01*
X104350352Y-143502466D01*
X104433617Y-143556001D01*
X104450688Y-143566562D01*
X104479131Y-143584487D01*
X104499650Y-143597860D01*
X104508660Y-143604370D01*
X104511890Y-143606864D01*
X104528859Y-143616971D01*
X104557015Y-143632348D01*
X104593171Y-143651369D01*
X104634138Y-143672405D01*
X104676727Y-143693828D01*
X104717751Y-143714010D01*
X104754021Y-143731322D01*
X104782348Y-143744136D01*
X104807587Y-143754601D01*
X104886686Y-143783137D01*
X104969167Y-143807343D01*
X105050364Y-143826090D01*
X105125610Y-143838251D01*
X105190238Y-143842698D01*
X105216625Y-143841840D01*
X105283577Y-143833010D01*
X105353904Y-143815989D01*
X105422363Y-143792461D01*
X105483710Y-143764111D01*
X105532702Y-143732625D01*
X105553560Y-143715110D01*
X105616144Y-143648992D01*
X105669419Y-143571126D01*
X105710668Y-143485292D01*
X105717524Y-143464171D01*
X105728140Y-143412356D01*
X105735394Y-143348972D01*
X105739298Y-143277807D01*
X105739864Y-143202652D01*
X105737103Y-143127295D01*
X105731027Y-143055528D01*
X105721649Y-142991138D01*
X105708978Y-142937917D01*
X105708097Y-142934993D01*
X105701476Y-142911195D01*
X105692691Y-142877706D01*
X105683393Y-142840802D01*
X105678520Y-142821196D01*
X105665381Y-142770469D01*
X105651847Y-142722050D01*
X105636104Y-142669617D01*
X105616340Y-142606843D01*
X105613139Y-142596722D01*
X105600932Y-142556460D01*
X105590276Y-142518960D01*
X105583181Y-142491220D01*
X105579024Y-142465538D01*
X105579266Y-142440734D01*
X105584860Y-142426541D01*
X105595198Y-142426236D01*
X105600308Y-142432224D01*
X105612095Y-142452237D01*
X105627555Y-142482450D01*
X105644929Y-142519235D01*
X105662462Y-142558966D01*
X105678397Y-142598014D01*
X105682944Y-142609707D01*
X105693456Y-142636551D01*
X105700932Y-142655400D01*
X105703552Y-142662367D01*
X105712416Y-142688784D01*
X105723791Y-142725041D01*
X105736168Y-142766079D01*
X105748035Y-142806839D01*
X105757882Y-142842261D01*
X105764199Y-142867287D01*
X105786855Y-142976343D01*
X105807476Y-143098861D01*
X105819769Y-143206876D01*
X105823666Y-143299891D01*
X105822503Y-143339413D01*
X105819133Y-143389755D01*
X105813994Y-143444430D01*
X105807515Y-143500303D01*
X105800131Y-143554239D01*
X105792273Y-143603102D01*
X105784373Y-143643759D01*
X105776863Y-143673073D01*
X105770176Y-143687910D01*
X105766215Y-143694413D01*
X105762327Y-143712802D01*
X105762311Y-143713613D01*
X105757872Y-143734084D01*
X105746784Y-143765700D01*
X105730813Y-143804396D01*
X105711727Y-143846107D01*
X105691292Y-143886767D01*
X105671275Y-143922310D01*
X105642136Y-143967126D01*
X105579089Y-144045177D01*
X105507673Y-144109759D01*
X105425483Y-144163230D01*
X105382183Y-144184405D01*
X105326834Y-144202419D01*
X105263509Y-144212630D01*
X105235755Y-144214380D01*
X105182416Y-144214211D01*
X105123419Y-144210876D01*
X105065830Y-144204835D01*
X105016713Y-144196549D01*
X105013259Y-144195772D01*
X104980611Y-144187131D01*
X104938756Y-144174585D01*
X104894106Y-144160192D01*
X104853075Y-144146009D01*
X104822077Y-144134095D01*
X104803434Y-144125807D01*
X104767542Y-144108945D01*
X104723844Y-144087777D01*
X104676871Y-144064550D01*
X104631157Y-144041510D01*
X104591233Y-144020904D01*
X104561632Y-144004979D01*
X104541034Y-143993048D01*
X104501054Y-143968649D01*
X104454229Y-143939037D01*
X104404211Y-143906614D01*
X104354653Y-143873782D01*
X104309207Y-143842944D01*
X104271525Y-143816503D01*
X104245261Y-143796862D01*
X104222488Y-143778769D01*
X104190055Y-143753160D01*
X104158128Y-143728080D01*
X104156838Y-143727070D01*
X104123149Y-143700604D01*
X104096497Y-143679322D01*
X104072840Y-143659836D01*
X104048136Y-143638757D01*
X104018343Y-143612696D01*
X103979419Y-143578266D01*
X103953165Y-143554723D01*
X103869064Y-143475725D01*
X103788204Y-143394506D01*
X103712828Y-143313537D01*
X103645181Y-143235288D01*
X103587506Y-143162229D01*
X103542049Y-143096832D01*
X103529012Y-143075316D01*
X103506963Y-143035373D01*
X103485946Y-142993647D01*
X103468729Y-142955729D01*
X103458078Y-142927210D01*
X103453777Y-142912674D01*
X103443813Y-142879401D01*
X103433462Y-142845216D01*
X103429023Y-142825166D01*
X103424022Y-142784583D01*
X103420390Y-142732422D01*
X103418128Y-142672187D01*
X103417237Y-142607385D01*
X103417717Y-142541521D01*
X103419569Y-142478102D01*
X103422794Y-142420633D01*
X103427393Y-142372620D01*
X103433365Y-142337569D01*
X103441508Y-142303943D01*
X103450678Y-142265843D01*
X103457791Y-142236040D01*
X103460361Y-142225691D01*
X103468259Y-142198087D01*
X103475252Y-142178654D01*
X103475889Y-142177227D01*
X103476839Y-142174766D01*
X103784712Y-142174766D01*
X103789797Y-142178160D01*
X103808223Y-142182665D01*
X103835477Y-142186359D01*
X103836816Y-142186487D01*
X103866304Y-142188774D01*
X103907783Y-142191354D01*
X103955930Y-142193920D01*
X104005428Y-142196164D01*
X104022526Y-142196839D01*
X104067816Y-142198152D01*
X104100131Y-142197924D01*
X104123019Y-142195898D01*
X104140030Y-142191820D01*
X104154712Y-142185434D01*
X104158421Y-142183435D01*
X104180338Y-142168661D01*
X104194313Y-142154507D01*
X104196421Y-142149919D01*
X104195696Y-142128061D01*
X104183353Y-142101725D01*
X104161848Y-142075049D01*
X104133634Y-142052174D01*
X104127668Y-142048627D01*
X104084188Y-142032907D01*
X104033122Y-142027693D01*
X103980213Y-142033071D01*
X103931206Y-142049128D01*
X103917358Y-142056861D01*
X103891416Y-142074632D01*
X103862339Y-142097159D01*
X103833629Y-142121439D01*
X103808787Y-142144468D01*
X103791314Y-142163245D01*
X103784712Y-142174766D01*
X103476839Y-142174766D01*
X103484215Y-142155658D01*
X103492937Y-142129403D01*
X103496267Y-142120303D01*
X103508932Y-142092654D01*
X103527434Y-142056562D01*
X103549358Y-142016390D01*
X103572291Y-141976501D01*
X103593819Y-141941258D01*
X103611530Y-141915023D01*
X103614124Y-141911546D01*
X103650665Y-141866996D01*
X103693845Y-141820746D01*
X103740226Y-141775965D01*
X103786367Y-141735824D01*
X103828828Y-141703495D01*
X103864170Y-141682147D01*
X103886511Y-141672321D01*
X103925809Y-141658372D01*
X103963238Y-141648472D01*
X103991890Y-141644649D01*
X104010031Y-141646274D01*
X104049631Y-141656753D01*
X104093061Y-141674941D01*
X104134112Y-141698486D01*
X104145997Y-141707203D01*
X104175652Y-141732800D01*
X104208145Y-141764605D01*
X104239353Y-141798268D01*
X104265150Y-141829442D01*
X104281411Y-141853778D01*
X104302834Y-141895337D01*
X104325572Y-141941332D01*
X104342430Y-141979333D01*
X104354924Y-142013643D01*
X104364571Y-142048564D01*
X104372887Y-142088398D01*
X104381388Y-142137448D01*
X104383395Y-142149919D01*
X104384555Y-142157129D01*
G37*
G36*
X106500669Y-138115709D02*
G01*
X106511697Y-138136999D01*
X106525698Y-138170451D01*
X106528922Y-138178256D01*
X106539542Y-138202798D01*
X106547382Y-138219298D01*
X106554305Y-138237047D01*
X106560898Y-138261234D01*
X106561391Y-138263374D01*
X106568052Y-138281993D01*
X106575264Y-138289637D01*
X106579031Y-138291169D01*
X106583391Y-138303000D01*
X106584577Y-138311986D01*
X106591792Y-138331693D01*
X106596139Y-138340099D01*
X106609402Y-138369204D01*
X106622452Y-138401395D01*
X106631388Y-138427260D01*
X106631015Y-138444714D01*
X106624700Y-138473023D01*
X106613628Y-138506718D01*
X106599131Y-138545737D01*
X106584857Y-138587321D01*
X106575202Y-138622096D01*
X106568961Y-138655495D01*
X106564928Y-138692952D01*
X106561899Y-138739898D01*
X106560173Y-138768914D01*
X106556393Y-138823439D01*
X106552122Y-138876851D01*
X106547995Y-138920885D01*
X106546740Y-138933582D01*
X106543328Y-138972569D01*
X106539254Y-139023698D01*
X106534803Y-139083197D01*
X106530261Y-139147297D01*
X106525913Y-139212230D01*
X106524033Y-139240845D01*
X106519554Y-139306389D01*
X106515007Y-139369730D01*
X106510682Y-139427015D01*
X106506865Y-139474386D01*
X106503844Y-139507990D01*
X106501598Y-139532326D01*
X106497455Y-139584699D01*
X106493648Y-139641261D01*
X106490784Y-139693391D01*
X106489427Y-139719934D01*
X106485887Y-139777874D01*
X106481672Y-139836891D01*
X106477425Y-139887621D01*
X106476123Y-139902011D01*
X106472103Y-139949871D01*
X106467620Y-140007133D01*
X106463132Y-140067830D01*
X106459098Y-140125994D01*
X106457916Y-140143726D01*
X106453731Y-140206204D01*
X106449349Y-140271228D01*
X106445224Y-140332075D01*
X106441810Y-140382025D01*
X106434786Y-140484055D01*
X106427545Y-140589061D01*
X106421356Y-140678595D01*
X106416137Y-140753817D01*
X106411807Y-140815890D01*
X106408286Y-140865972D01*
X106405493Y-140905225D01*
X106403346Y-140934810D01*
X106401764Y-140955887D01*
X106400758Y-140969006D01*
X106397232Y-141015532D01*
X106392465Y-141079013D01*
X106386492Y-141158971D01*
X106379349Y-141254932D01*
X106371073Y-141366419D01*
X106366828Y-141423834D01*
X106359312Y-141526301D01*
X106351877Y-141628637D01*
X106344772Y-141727347D01*
X106338250Y-141818935D01*
X106332560Y-141899906D01*
X106327954Y-141966766D01*
X106327642Y-141971343D01*
X106323498Y-142030515D01*
X106318869Y-142094102D01*
X106314298Y-142154758D01*
X106310328Y-142205139D01*
X106307562Y-142241194D01*
X106303345Y-142302733D01*
X106299451Y-142366484D01*
X106296462Y-142423281D01*
X106291232Y-142535478D01*
X106326778Y-142557918D01*
X106338357Y-142565060D01*
X106357565Y-142576034D01*
X106367398Y-142580357D01*
X106372124Y-142581672D01*
X106389458Y-142588542D01*
X106413924Y-142599322D01*
X106429904Y-142606282D01*
X106506353Y-142631976D01*
X106590660Y-142649944D01*
X106678269Y-142659840D01*
X106764630Y-142661314D01*
X106845189Y-142654020D01*
X106915394Y-142637609D01*
X106946894Y-142625311D01*
X106991099Y-142603201D01*
X107031505Y-142578124D01*
X107061491Y-142553875D01*
X107072922Y-142541494D01*
X107106363Y-142495095D01*
X107138580Y-142436461D01*
X107167754Y-142369598D01*
X107192067Y-142298513D01*
X107209703Y-142227211D01*
X107210753Y-142221724D01*
X107217488Y-142183062D01*
X107225751Y-142131126D01*
X107235002Y-142069494D01*
X107244701Y-142001743D01*
X107254310Y-141931452D01*
X107263699Y-141862474D01*
X107283922Y-141723518D01*
X107303962Y-141598799D01*
X107323553Y-141490020D01*
X107327228Y-141470790D01*
X107334713Y-141431201D01*
X107341875Y-141392904D01*
X107346391Y-141369679D01*
X107353707Y-141335258D01*
X107359996Y-141309032D01*
X107360208Y-141308237D01*
X107366393Y-141283444D01*
X107374501Y-141248933D01*
X107382835Y-141211917D01*
X107383394Y-141209378D01*
X107391606Y-141173255D01*
X107399360Y-141140961D01*
X107405046Y-141119217D01*
X107409536Y-141103473D01*
X107418079Y-141073045D01*
X107427318Y-141039759D01*
X107434027Y-141015704D01*
X107446996Y-140970296D01*
X107460757Y-140923191D01*
X107474190Y-140878128D01*
X107486177Y-140838842D01*
X107495599Y-140809073D01*
X107501336Y-140792557D01*
X107504622Y-140784044D01*
X107513414Y-140759702D01*
X107523393Y-140730756D01*
X107528837Y-140714925D01*
X107538779Y-140687491D01*
X107546155Y-140668956D01*
X107549923Y-140660149D01*
X107559767Y-140635890D01*
X107571010Y-140607155D01*
X107574828Y-140597329D01*
X107601112Y-140533980D01*
X107630300Y-140469513D01*
X107658345Y-140412925D01*
X107667296Y-140395892D01*
X107683138Y-140365648D01*
X107695308Y-140342303D01*
X107696265Y-140340468D01*
X107706717Y-140321604D01*
X107713457Y-140311403D01*
X107718116Y-140305136D01*
X107727662Y-140289324D01*
X107732770Y-140281122D01*
X107743775Y-140272796D01*
X107753452Y-140281275D01*
X107762644Y-140306982D01*
X107764489Y-140313777D01*
X107771690Y-140338796D01*
X107777112Y-140355539D01*
X107778786Y-140360655D01*
X107784835Y-140382348D01*
X107793375Y-140415223D01*
X107803382Y-140455165D01*
X107813835Y-140498061D01*
X107823709Y-140539795D01*
X107831983Y-140576255D01*
X107836598Y-140595982D01*
X107843964Y-140623426D01*
X107849859Y-140640858D01*
X107852399Y-140653602D01*
X107847657Y-140676173D01*
X107846368Y-140678835D01*
X107838181Y-140696705D01*
X107828034Y-140720560D01*
X107814856Y-140753031D01*
X107797574Y-140796753D01*
X107775117Y-140854357D01*
X107770173Y-140867323D01*
X107755992Y-140906017D01*
X107739850Y-140951542D01*
X107723777Y-140998054D01*
X107709805Y-141039708D01*
X107699964Y-141070659D01*
X107693768Y-141090907D01*
X107684882Y-141118697D01*
X107678589Y-141136874D01*
X107674834Y-141147525D01*
X107666654Y-141172936D01*
X107657516Y-141203089D01*
X107652359Y-141220455D01*
X107640503Y-141259530D01*
X107629793Y-141293891D01*
X107625417Y-141308348D01*
X107618904Y-141333501D01*
X107616342Y-141349190D01*
X107615269Y-141357855D01*
X107608497Y-141377574D01*
X107606521Y-141382268D01*
X107599543Y-141404453D01*
X107590314Y-141438726D01*
X107579735Y-141481375D01*
X107568710Y-141528687D01*
X107558142Y-141576949D01*
X107548934Y-141622449D01*
X107531760Y-141717224D01*
X107517086Y-141813775D01*
X107507049Y-141903256D01*
X107501088Y-141990800D01*
X107498640Y-142081538D01*
X107498602Y-142085637D01*
X107498097Y-142143255D01*
X107498527Y-142187079D01*
X107500910Y-142220746D01*
X107506266Y-142247895D01*
X107515613Y-142272163D01*
X107529971Y-142297187D01*
X107550359Y-142326605D01*
X107577797Y-142364055D01*
X107592865Y-142383778D01*
X107638118Y-142437185D01*
X107694664Y-142497825D01*
X107760292Y-142563629D01*
X107832791Y-142632522D01*
X107909948Y-142702434D01*
X107989552Y-142771293D01*
X108069392Y-142837026D01*
X108147255Y-142897562D01*
X108156186Y-142904248D01*
X108247140Y-142969137D01*
X108338240Y-143028646D01*
X108426968Y-143081346D01*
X108510802Y-143125811D01*
X108587222Y-143160614D01*
X108653707Y-143184328D01*
X108678078Y-143191653D01*
X108710042Y-143201853D01*
X108733165Y-143209916D01*
X108748145Y-143213346D01*
X108778540Y-143216811D01*
X108817820Y-143219160D01*
X108861180Y-143220015D01*
X108871770Y-143220000D01*
X108914186Y-143219432D01*
X108944707Y-143217482D01*
X108968113Y-143213381D01*
X108989182Y-143206361D01*
X109012692Y-143195653D01*
X109013266Y-143195373D01*
X109053634Y-143172236D01*
X109086819Y-143144468D01*
X109115388Y-143108880D01*
X109141907Y-143062282D01*
X109168942Y-143001487D01*
X109173880Y-142987105D01*
X109183061Y-142943609D01*
X109189264Y-142888045D01*
X109192265Y-142824154D01*
X109191841Y-142755674D01*
X109187768Y-142686346D01*
X109186738Y-142674684D01*
X109182734Y-142631991D01*
X109179063Y-142596731D01*
X109176097Y-142572292D01*
X109174204Y-142562064D01*
X109172244Y-142555602D01*
X109167371Y-142534681D01*
X109160660Y-142503169D01*
X109152951Y-142464902D01*
X109147943Y-142439490D01*
X109139303Y-142395970D01*
X109131594Y-142357522D01*
X109126044Y-142330274D01*
X109121354Y-142302469D01*
X109118102Y-142268347D01*
X109117683Y-142238586D01*
X109120122Y-142217537D01*
X109125438Y-142209554D01*
X109126385Y-142209637D01*
X109138486Y-142218310D01*
X109153056Y-142237422D01*
X109166502Y-142261515D01*
X109175228Y-142285136D01*
X109181272Y-142305404D01*
X109187873Y-142319912D01*
X109193081Y-142330475D01*
X109199389Y-142350812D01*
X109202938Y-142365250D01*
X109210320Y-142393637D01*
X109218998Y-142425855D01*
X109226284Y-142453075D01*
X109244132Y-142526768D01*
X109260252Y-142605325D01*
X109275996Y-142695129D01*
X109285203Y-142752908D01*
X109297694Y-142840485D01*
X109306080Y-142915499D01*
X109310523Y-142980825D01*
X109311189Y-143039339D01*
X109308243Y-143093916D01*
X109301847Y-143147433D01*
X109288957Y-143218461D01*
X109261860Y-143315780D01*
X109225807Y-143398265D01*
X109180519Y-143466307D01*
X109125713Y-143520301D01*
X109061109Y-143560637D01*
X108986425Y-143587711D01*
X108964490Y-143592783D01*
X108889486Y-143601705D01*
X108809017Y-143598401D01*
X108720864Y-143582668D01*
X108622807Y-143554301D01*
X108578849Y-143538174D01*
X108480499Y-143493267D01*
X108375402Y-143434279D01*
X108264820Y-143362115D01*
X108150017Y-143277680D01*
X108032257Y-143181880D01*
X107912801Y-143075619D01*
X107792915Y-142959802D01*
X107725800Y-142890305D01*
X107662365Y-142818529D01*
X107610113Y-142750579D01*
X107567227Y-142683227D01*
X107531894Y-142613244D01*
X107502299Y-142537402D01*
X107476625Y-142452473D01*
X107453060Y-142355226D01*
X107444489Y-142318535D01*
X107435800Y-142288904D01*
X107428572Y-142276255D01*
X107422150Y-142280325D01*
X107415880Y-142300850D01*
X107409107Y-142337569D01*
X107408494Y-142341243D01*
X107402348Y-142372349D01*
X107395665Y-142399370D01*
X107390501Y-142417817D01*
X107382110Y-142449008D01*
X107373151Y-142483242D01*
X107365318Y-142512526D01*
X107357181Y-142540751D01*
X107351424Y-142558285D01*
X107349331Y-142563741D01*
X107341176Y-142585607D01*
X107329608Y-142617042D01*
X107316414Y-142653207D01*
X107287293Y-142727283D01*
X107251394Y-142801523D01*
X107212866Y-142861962D01*
X107170103Y-142910700D01*
X107121499Y-142949839D01*
X107065449Y-142981478D01*
X107002571Y-143006429D01*
X106915884Y-143027982D01*
X106824734Y-143038257D01*
X106731678Y-143037729D01*
X106639276Y-143026877D01*
X106550084Y-143006176D01*
X106466663Y-142976105D01*
X106391568Y-142937139D01*
X106327360Y-142889755D01*
X106276596Y-142834431D01*
X106260597Y-142811406D01*
X106241441Y-142781009D01*
X106228378Y-142756929D01*
X106216540Y-142728489D01*
X106203293Y-142692448D01*
X106190335Y-142653917D01*
X106179190Y-142617634D01*
X106171386Y-142588336D01*
X106168445Y-142570762D01*
X106167267Y-142559456D01*
X106159879Y-142536705D01*
X106156905Y-142528447D01*
X106151995Y-142500606D01*
X106147927Y-142458375D01*
X106144702Y-142403869D01*
X106142322Y-142339203D01*
X106140788Y-142266491D01*
X106140103Y-142187848D01*
X106140267Y-142105390D01*
X106141283Y-142021230D01*
X106143152Y-141937484D01*
X106145875Y-141856267D01*
X106149455Y-141779693D01*
X106153893Y-141709878D01*
X106159191Y-141648935D01*
X106160345Y-141637374D01*
X106164556Y-141591482D01*
X106169257Y-141535860D01*
X106173953Y-141476499D01*
X106178151Y-141419390D01*
X106179193Y-141404543D01*
X106183470Y-141344130D01*
X106187941Y-141281623D01*
X106192135Y-141223590D01*
X106195580Y-141176603D01*
X106198637Y-141135241D01*
X106202629Y-141080969D01*
X106207196Y-141018729D01*
X106211981Y-140953353D01*
X106216632Y-140889672D01*
X106217137Y-140882743D01*
X106221548Y-140822267D01*
X106225828Y-140763613D01*
X106229688Y-140710728D01*
X106232841Y-140667560D01*
X106234998Y-140638056D01*
X106239019Y-140583052D01*
X106246078Y-140486111D01*
X106252111Y-140402634D01*
X106257317Y-140329867D01*
X106261892Y-140265057D01*
X106266035Y-140205452D01*
X106266045Y-140205316D01*
X106269307Y-140158016D01*
X106273427Y-140098298D01*
X106278049Y-140031345D01*
X106282814Y-139962335D01*
X106287365Y-139896450D01*
X106291843Y-139831549D01*
X106296706Y-139760885D01*
X106301468Y-139691557D01*
X106305754Y-139628993D01*
X106309193Y-139578619D01*
X106313237Y-139519417D01*
X106320352Y-139416621D01*
X106326572Y-139328827D01*
X106332024Y-139254305D01*
X106336836Y-139191321D01*
X106341137Y-139138144D01*
X106345054Y-139093043D01*
X106346387Y-139078146D01*
X106352373Y-139005676D01*
X106356725Y-138942828D01*
X106359375Y-138891186D01*
X106360258Y-138852337D01*
X106359307Y-138827865D01*
X106356457Y-138819356D01*
X106356155Y-138819373D01*
X106346543Y-138826798D01*
X106334380Y-138843634D01*
X106331455Y-138848128D01*
X106315538Y-138868713D01*
X106292357Y-138895692D01*
X106265840Y-138924435D01*
X106248860Y-138941773D01*
X106225665Y-138963012D01*
X106210600Y-138972359D01*
X106201894Y-138971108D01*
X106198007Y-138963531D01*
X106194403Y-138941396D01*
X106194047Y-138913018D01*
X106196877Y-138885248D01*
X106202835Y-138864938D01*
X106204569Y-138861072D01*
X106211070Y-138839819D01*
X106216745Y-138812780D01*
X106218531Y-138803360D01*
X106224707Y-138781440D01*
X106231014Y-138770323D01*
X106234753Y-138766348D01*
X106239074Y-138750857D01*
X106241961Y-138737242D01*
X106249715Y-138711275D01*
X106260921Y-138677159D01*
X106274162Y-138639075D01*
X106288021Y-138601208D01*
X106301083Y-138567739D01*
X106301854Y-138565816D01*
X106309091Y-138546836D01*
X106319886Y-138517695D01*
X106332207Y-138483867D01*
X106339930Y-138462622D01*
X106357075Y-138416967D01*
X106373955Y-138374867D01*
X106394312Y-138326859D01*
X106395316Y-138324489D01*
X106403472Y-138301431D01*
X106406818Y-138284804D01*
X106408012Y-138275934D01*
X106415219Y-138256410D01*
X106416067Y-138254827D01*
X106425475Y-138235042D01*
X106436092Y-138210179D01*
X106453874Y-138166551D01*
X106469218Y-138132003D01*
X106481051Y-138112493D01*
X106490994Y-138107301D01*
X106500669Y-138115709D01*
G37*
G36*
X97447212Y-142202170D02*
G01*
X97449089Y-142261462D01*
X97449472Y-142337569D01*
X97449295Y-142372007D01*
X97448558Y-142425670D01*
X97446735Y-142467534D01*
X97443162Y-142501432D01*
X97437175Y-142531198D01*
X97433510Y-142543110D01*
X97428110Y-142560664D01*
X97415301Y-142593663D01*
X97398086Y-142634027D01*
X97397006Y-142638083D01*
X97401279Y-142646169D01*
X97417189Y-142654143D01*
X97447589Y-142663714D01*
X97475032Y-142671614D01*
X97505048Y-142680529D01*
X97525205Y-142686836D01*
X97527346Y-142687472D01*
X97547212Y-142691622D01*
X97579790Y-142697050D01*
X97621073Y-142703125D01*
X97667055Y-142709214D01*
X97712626Y-142714732D01*
X97751221Y-142718500D01*
X97782582Y-142719799D01*
X97812096Y-142718618D01*
X97845148Y-142714946D01*
X97887126Y-142708772D01*
X97923448Y-142702850D01*
X97960013Y-142696147D01*
X97987339Y-142690298D01*
X98001307Y-142686121D01*
X98007343Y-142683136D01*
X98028521Y-142673271D01*
X98054924Y-142661441D01*
X98094200Y-142640608D01*
X98152840Y-142593686D01*
X98203864Y-142531442D01*
X98246938Y-142454411D01*
X98281730Y-142363123D01*
X98307905Y-142258111D01*
X98315443Y-142216162D01*
X98324660Y-142159174D01*
X98334721Y-142092325D01*
X98345037Y-142019528D01*
X98355022Y-141944695D01*
X98358525Y-141918099D01*
X98370363Y-141833847D01*
X98383845Y-141744602D01*
X98398075Y-141655998D01*
X98412156Y-141573673D01*
X98425194Y-141503262D01*
X98439698Y-141429961D01*
X98454925Y-141355968D01*
X98468360Y-141294526D01*
X98480588Y-141242980D01*
X98492193Y-141198674D01*
X98498421Y-141175418D01*
X98507966Y-141137441D01*
X98515194Y-141105974D01*
X98517573Y-141095475D01*
X98525032Y-141068817D01*
X98532027Y-141050914D01*
X98536496Y-141041261D01*
X98540499Y-141025240D01*
X98540923Y-141022158D01*
X98545202Y-141004513D01*
X98553069Y-140976004D01*
X98563260Y-140940874D01*
X98574509Y-140903369D01*
X98585551Y-140867733D01*
X98595121Y-140838209D01*
X98601955Y-140819043D01*
X98602733Y-140817078D01*
X98609989Y-140798082D01*
X98620886Y-140768961D01*
X98633380Y-140735171D01*
X98634281Y-140732727D01*
X98648565Y-140695005D01*
X98662844Y-140658900D01*
X98674154Y-140631919D01*
X98678978Y-140620808D01*
X98687296Y-140600150D01*
X98690586Y-140589533D01*
X98690614Y-140589293D01*
X98694901Y-140578569D01*
X98705434Y-140555524D01*
X98720714Y-140523368D01*
X98739243Y-140485312D01*
X98752867Y-140457702D01*
X98781345Y-140400948D01*
X98803706Y-140358704D01*
X98820925Y-140329918D01*
X98833981Y-140313541D01*
X98843850Y-140308523D01*
X98851509Y-140313815D01*
X98857935Y-140328365D01*
X98864105Y-140351125D01*
X98868949Y-140371264D01*
X98885598Y-140439847D01*
X98898766Y-140492872D01*
X98908790Y-140531663D01*
X98916012Y-140557545D01*
X98920771Y-140571841D01*
X98922643Y-140577160D01*
X98928633Y-140600702D01*
X98933871Y-140629227D01*
X98935735Y-140640114D01*
X98941797Y-140664678D01*
X98948122Y-140679300D01*
X98951493Y-140686468D01*
X98947551Y-140705786D01*
X98939070Y-140723056D01*
X98923964Y-140758232D01*
X98905417Y-140804880D01*
X98884615Y-140859994D01*
X98862745Y-140920572D01*
X98861492Y-140924113D01*
X98848406Y-140960569D01*
X98836095Y-140994043D01*
X98827075Y-141017687D01*
X98821893Y-141031514D01*
X98810962Y-141063531D01*
X98800457Y-141097145D01*
X98794329Y-141117328D01*
X98785332Y-141145157D01*
X98778756Y-141163360D01*
X98774085Y-141176305D01*
X98765706Y-141202743D01*
X98756592Y-141233989D01*
X98749450Y-141258745D01*
X98740797Y-141286781D01*
X98734600Y-141304618D01*
X98732494Y-141310277D01*
X98725154Y-141333739D01*
X98717523Y-141362004D01*
X98706538Y-141406123D01*
X98692772Y-141461261D01*
X98682235Y-141503211D01*
X98674321Y-141534369D01*
X98668426Y-141557130D01*
X98663942Y-141573892D01*
X98651902Y-141623645D01*
X98639629Y-141685663D01*
X98627980Y-141755136D01*
X98617248Y-141829308D01*
X98607724Y-141905422D01*
X98599703Y-141980721D01*
X98593475Y-142052449D01*
X98589334Y-142117849D01*
X98587573Y-142174164D01*
X98588483Y-142218639D01*
X98592357Y-142248515D01*
X98597099Y-142264380D01*
X98620486Y-142316052D01*
X98657350Y-142375040D01*
X98706573Y-142439830D01*
X98767038Y-142508909D01*
X98837628Y-142580766D01*
X98927819Y-142665684D01*
X99037618Y-142763364D01*
X99146924Y-142854660D01*
X99254034Y-142938296D01*
X99357243Y-143012999D01*
X99454846Y-143077493D01*
X99545141Y-143130504D01*
X99626422Y-143170757D01*
X99634061Y-143174110D01*
X99666890Y-143188521D01*
X99694051Y-143200446D01*
X99710294Y-143207579D01*
X99718478Y-143210796D01*
X99742911Y-143219048D01*
X99772095Y-143227835D01*
X99842056Y-143245202D01*
X99931220Y-143258454D01*
X100009628Y-143258254D01*
X100077966Y-143244349D01*
X100136916Y-143216488D01*
X100187164Y-143174418D01*
X100229393Y-143117887D01*
X100264289Y-143046644D01*
X100268962Y-143034280D01*
X100274363Y-143016204D01*
X100278223Y-142995615D01*
X100280811Y-142969484D01*
X100282392Y-142934784D01*
X100283233Y-142888485D01*
X100283603Y-142827559D01*
X100283614Y-142776688D01*
X100282897Y-142722474D01*
X100280945Y-142678239D01*
X100277322Y-142639636D01*
X100271589Y-142602318D01*
X100263309Y-142561936D01*
X100252044Y-142514142D01*
X100242480Y-142470508D01*
X100229158Y-142390835D01*
X100220802Y-142313290D01*
X100219328Y-142288810D01*
X100219564Y-142266915D01*
X100223012Y-142256404D01*
X100230239Y-142253697D01*
X100239404Y-142259472D01*
X100252550Y-142277006D01*
X100265656Y-142300877D01*
X100275720Y-142325525D01*
X100279741Y-142345392D01*
X100280441Y-142351330D01*
X100287380Y-142363320D01*
X100287833Y-142363642D01*
X100294641Y-142375799D01*
X100300511Y-142396948D01*
X100303428Y-142410568D01*
X100311081Y-142441471D01*
X100320151Y-142474413D01*
X100344080Y-142567552D01*
X100366507Y-142679326D01*
X100384879Y-142799062D01*
X100398338Y-142921837D01*
X100403212Y-142998178D01*
X100402557Y-143119767D01*
X100390731Y-143229795D01*
X100367926Y-143327816D01*
X100334334Y-143413389D01*
X100290147Y-143486068D01*
X100235555Y-143545410D01*
X100170751Y-143590971D01*
X100095926Y-143622307D01*
X100072374Y-143626769D01*
X100032462Y-143629819D01*
X99983899Y-143630616D01*
X99931456Y-143629295D01*
X99879907Y-143625988D01*
X99834024Y-143620831D01*
X99798581Y-143613957D01*
X99777488Y-143608116D01*
X99703903Y-143584525D01*
X99632733Y-143556022D01*
X99561019Y-143521072D01*
X99485799Y-143478140D01*
X99404114Y-143425691D01*
X99313005Y-143362192D01*
X99302963Y-143354942D01*
X99274343Y-143333876D01*
X99251761Y-143316675D01*
X99239405Y-143306505D01*
X99235436Y-143302922D01*
X99217719Y-143288361D01*
X99195262Y-143271064D01*
X99191331Y-143268099D01*
X99154734Y-143238593D01*
X99109271Y-143199410D01*
X99057880Y-143153299D01*
X99003500Y-143103011D01*
X98949067Y-143051295D01*
X98897520Y-143000898D01*
X98851796Y-142954572D01*
X98814834Y-142915064D01*
X98796701Y-142894638D01*
X98732223Y-142816543D01*
X98680162Y-142742316D01*
X98638367Y-142667721D01*
X98604687Y-142588523D01*
X98576973Y-142500484D01*
X98553075Y-142399370D01*
X98545234Y-142361922D01*
X98538636Y-142332037D01*
X98533996Y-142314902D01*
X98530436Y-142308066D01*
X98527078Y-142309081D01*
X98523047Y-142315497D01*
X98520093Y-142322330D01*
X98513257Y-142344610D01*
X98506574Y-142372884D01*
X98497754Y-142413071D01*
X98485559Y-142463244D01*
X98472002Y-142514933D01*
X98458136Y-142564389D01*
X98445016Y-142607868D01*
X98433697Y-142641621D01*
X98425233Y-142661902D01*
X98420784Y-142671439D01*
X98416898Y-142685939D01*
X98415819Y-142691641D01*
X98408044Y-142712568D01*
X98394284Y-142743205D01*
X98376342Y-142779801D01*
X98356024Y-142818606D01*
X98335135Y-142855869D01*
X98309882Y-142895637D01*
X98268854Y-142946190D01*
X98221610Y-142987388D01*
X98165310Y-143021166D01*
X98097111Y-143049456D01*
X98014171Y-143074191D01*
X98011867Y-143074744D01*
X97984254Y-143078589D01*
X97943738Y-143081295D01*
X97894522Y-143082865D01*
X97840804Y-143083304D01*
X97786785Y-143082616D01*
X97736666Y-143080806D01*
X97694648Y-143077877D01*
X97664930Y-143073834D01*
X97601171Y-143060278D01*
X97545170Y-143047340D01*
X97495190Y-143034189D01*
X97448124Y-143019712D01*
X97400863Y-143002795D01*
X97350299Y-142982323D01*
X97293325Y-142957183D01*
X97226831Y-142926260D01*
X97147710Y-142888440D01*
X97127508Y-142878806D01*
X97085015Y-142859546D01*
X97055014Y-142847897D01*
X97035411Y-142843111D01*
X97024109Y-142844443D01*
X97020240Y-142846397D01*
X96999320Y-142855980D01*
X96973415Y-142866973D01*
X96965917Y-142870078D01*
X96940558Y-142881167D01*
X96922771Y-142889787D01*
X96913161Y-142894232D01*
X96897619Y-142898188D01*
X96896844Y-142898220D01*
X96881608Y-142902224D01*
X96859977Y-142910882D01*
X96858384Y-142911600D01*
X96829904Y-142922941D01*
X96789640Y-142937232D01*
X96742455Y-142952858D01*
X96693207Y-142968207D01*
X96646756Y-142981666D01*
X96622454Y-142988432D01*
X96590450Y-142997521D01*
X96567298Y-143004304D01*
X96533686Y-143012238D01*
X96481993Y-143019345D01*
X96423565Y-143023310D01*
X96362431Y-143024193D01*
X96302621Y-143022058D01*
X96248163Y-143016968D01*
X96203086Y-143008983D01*
X96171419Y-142998168D01*
X96150017Y-142985768D01*
X96095447Y-142941380D01*
X96044369Y-142881021D01*
X95997505Y-142805785D01*
X95955573Y-142716768D01*
X95919295Y-142615063D01*
X95915983Y-142601420D01*
X95914443Y-142592730D01*
X96009977Y-142592730D01*
X96023447Y-142617078D01*
X96050807Y-142636412D01*
X96066823Y-142642037D01*
X96101859Y-142648604D01*
X96146675Y-142653015D01*
X96196651Y-142655001D01*
X96247169Y-142654291D01*
X96293610Y-142650615D01*
X96333712Y-142644791D01*
X96383216Y-142636059D01*
X96436935Y-142625423D01*
X96491266Y-142613694D01*
X96542605Y-142601682D01*
X96587348Y-142590199D01*
X96621891Y-142580055D01*
X96642631Y-142572063D01*
X96660383Y-142565251D01*
X96684567Y-142558706D01*
X96686676Y-142558217D01*
X96705316Y-142551165D01*
X96712970Y-142543110D01*
X96711098Y-142536464D01*
X96702127Y-142517526D01*
X96688245Y-142493047D01*
X96675889Y-142471726D01*
X96637429Y-142389352D01*
X96606004Y-142293694D01*
X96581032Y-142183068D01*
X96578962Y-142171936D01*
X96717285Y-142171936D01*
X96722153Y-142215291D01*
X96739384Y-142249283D01*
X96753384Y-142265559D01*
X96801724Y-142316076D01*
X96855555Y-142365783D01*
X96907469Y-142407699D01*
X96922140Y-142418407D01*
X96946809Y-142434710D01*
X96967795Y-142443602D01*
X96988995Y-142444987D01*
X97014303Y-142438770D01*
X97047616Y-142424855D01*
X97092830Y-142403147D01*
X97107937Y-142395814D01*
X97137476Y-142381799D01*
X97158877Y-142372096D01*
X97168299Y-142368469D01*
X97179318Y-142363309D01*
X97199381Y-142347886D01*
X97224527Y-142325462D01*
X97251368Y-142299343D01*
X97276516Y-142272838D01*
X97296584Y-142249255D01*
X97308181Y-142231901D01*
X97309510Y-142229014D01*
X97322218Y-142180707D01*
X97321510Y-142127267D01*
X97308029Y-142073845D01*
X97282418Y-142025591D01*
X97269516Y-142009248D01*
X97244094Y-141980670D01*
X97213496Y-141948737D01*
X97181892Y-141917639D01*
X97153448Y-141891564D01*
X97132331Y-141874703D01*
X97102268Y-141855903D01*
X97046967Y-141830973D01*
X96996004Y-141822548D01*
X96947754Y-141830760D01*
X96900596Y-141855744D01*
X96852905Y-141897631D01*
X96850996Y-141899624D01*
X96805790Y-141953408D01*
X96769033Y-142009956D01*
X96741508Y-142066844D01*
X96723997Y-142121646D01*
X96717285Y-142171936D01*
X96578962Y-142171936D01*
X96575672Y-142154241D01*
X96570129Y-142124778D01*
X96566485Y-142105817D01*
X96565440Y-142101291D01*
X96557563Y-142088263D01*
X96543215Y-142089222D01*
X96520137Y-142104083D01*
X96498883Y-142120328D01*
X96466308Y-142144691D01*
X96436884Y-142166149D01*
X96416002Y-142180733D01*
X96402684Y-142189637D01*
X96348263Y-142227318D01*
X96292802Y-142267522D01*
X96239470Y-142307818D01*
X96191434Y-142345775D01*
X96151861Y-142378961D01*
X96123918Y-142404945D01*
X96099687Y-142430382D01*
X96055253Y-142482196D01*
X96025646Y-142526031D01*
X96010632Y-142562629D01*
X96009977Y-142592730D01*
X95914443Y-142592730D01*
X95910481Y-142570370D01*
X95904862Y-142530714D01*
X95899937Y-142487769D01*
X95895694Y-142424217D01*
X95899006Y-142320380D01*
X95915589Y-142225387D01*
X95945148Y-142140243D01*
X95987389Y-142065955D01*
X96042014Y-142003529D01*
X96060953Y-141986236D01*
X96079264Y-141970301D01*
X96098487Y-141954763D01*
X96120934Y-141937946D01*
X96148917Y-141918175D01*
X96184746Y-141893775D01*
X96230735Y-141863070D01*
X96289196Y-141824384D01*
X96300919Y-141816628D01*
X96347577Y-141785487D01*
X96389524Y-141757071D01*
X96424242Y-141733114D01*
X96449215Y-141715348D01*
X96461923Y-141705507D01*
X96476734Y-141694175D01*
X96489881Y-141688664D01*
X96492419Y-141688435D01*
X96502555Y-141681535D01*
X96503777Y-141679832D01*
X96515665Y-141668778D01*
X96537097Y-141651179D01*
X96564544Y-141629974D01*
X96585899Y-141613537D01*
X96621514Y-141584717D01*
X96655707Y-141555546D01*
X96685993Y-141528287D01*
X96709888Y-141505203D01*
X96724909Y-141488554D01*
X96728570Y-141480604D01*
X96725392Y-141479375D01*
X96707860Y-141476437D01*
X96678990Y-141473321D01*
X96643003Y-141470525D01*
X96624698Y-141469144D01*
X96591668Y-141465540D01*
X96567831Y-141461412D01*
X96557411Y-141457406D01*
X96556675Y-141447048D01*
X96568530Y-141432781D01*
X96594836Y-141414727D01*
X96636730Y-141391948D01*
X96637281Y-141391668D01*
X96674929Y-141372272D01*
X96713193Y-141352166D01*
X96743871Y-141335656D01*
X96743905Y-141335638D01*
X96774608Y-141318881D01*
X96812654Y-141298282D01*
X96849814Y-141278295D01*
X96871334Y-141266749D01*
X96925068Y-141237632D01*
X96967556Y-141214022D01*
X97002125Y-141194011D01*
X97032099Y-141175688D01*
X97060805Y-141157145D01*
X97061722Y-141156541D01*
X97088881Y-141140356D01*
X97109815Y-141131030D01*
X97120519Y-141130359D01*
X97121093Y-141131195D01*
X97125047Y-141145230D01*
X97129935Y-141172667D01*
X97135192Y-141209968D01*
X97140251Y-141253594D01*
X97141127Y-141261871D01*
X97145986Y-141304609D01*
X97150595Y-141340392D01*
X97154471Y-141365679D01*
X97157130Y-141376931D01*
X97159799Y-141388181D01*
X97162519Y-141412139D01*
X97164542Y-141443166D01*
X97165340Y-141472853D01*
X97163536Y-141493949D01*
X97157677Y-141507384D01*
X97146509Y-141518387D01*
X97125850Y-141535116D01*
X97159991Y-141574576D01*
X97201088Y-141624739D01*
X97245713Y-141687213D01*
X97288320Y-141756904D01*
X97332125Y-141838751D01*
X97337094Y-141848663D01*
X97355017Y-141886539D01*
X97369944Y-141921251D01*
X97380160Y-141948633D01*
X97383947Y-141964516D01*
X97384320Y-141968722D01*
X97391216Y-141984865D01*
X97394461Y-141989718D01*
X97398587Y-141999068D01*
X97404234Y-142015241D01*
X97412232Y-142040776D01*
X97423407Y-142078215D01*
X97438590Y-142130096D01*
X97438819Y-142130899D01*
X97443803Y-142158910D01*
X97445521Y-142180707D01*
X97447212Y-142202170D01*
G37*
G36*
X113775142Y-142716465D02*
G01*
X113787113Y-142725887D01*
X113793291Y-142727182D01*
X113817513Y-142729413D01*
X113853216Y-142730879D01*
X113896197Y-142731574D01*
X113942253Y-142731486D01*
X113987180Y-142730609D01*
X114026776Y-142728933D01*
X114056836Y-142726450D01*
X114099509Y-142719142D01*
X114169905Y-142699266D01*
X114237406Y-142671565D01*
X114294716Y-142638729D01*
X114335683Y-142604354D01*
X114380903Y-142552074D01*
X114418627Y-142492656D01*
X114444723Y-142431801D01*
X114451860Y-142409799D01*
X114461347Y-142382033D01*
X114468087Y-142364055D01*
X114473372Y-142348365D01*
X114481968Y-142312242D01*
X114491082Y-142263415D01*
X114500294Y-142204819D01*
X114509188Y-142139389D01*
X114517343Y-142070061D01*
X114524342Y-141999770D01*
X114529766Y-141931452D01*
X114532264Y-141893816D01*
X114536668Y-141824909D01*
X114541673Y-141744218D01*
X114547072Y-141655254D01*
X114552655Y-141561525D01*
X114558214Y-141466541D01*
X114563541Y-141373813D01*
X114568427Y-141286850D01*
X114572663Y-141209161D01*
X114575156Y-141162602D01*
X114581309Y-141048556D01*
X114586710Y-140949900D01*
X114591455Y-140864998D01*
X114595638Y-140792212D01*
X114599355Y-140729907D01*
X114602702Y-140676444D01*
X114605772Y-140630187D01*
X114608662Y-140589498D01*
X114612201Y-140536670D01*
X114615944Y-140472171D01*
X114619302Y-140406115D01*
X114621833Y-140346711D01*
X114624144Y-140291515D01*
X114627564Y-140221982D01*
X114631440Y-140152034D01*
X114635299Y-140090680D01*
X114637843Y-140052184D01*
X114641707Y-139990536D01*
X114645842Y-139921689D01*
X114649895Y-139851567D01*
X114653510Y-139786092D01*
X114659322Y-139678348D01*
X114665220Y-139570574D01*
X114671201Y-139463073D01*
X114677514Y-139351368D01*
X114684410Y-139230988D01*
X114692142Y-139097458D01*
X114694078Y-139064088D01*
X114698450Y-138988294D01*
X114702914Y-138910397D01*
X114707188Y-138835329D01*
X114710991Y-138768023D01*
X114714042Y-138713412D01*
X114719498Y-138618613D01*
X114726864Y-138500015D01*
X114734591Y-138384833D01*
X114742355Y-138277812D01*
X114749838Y-138183693D01*
X114752789Y-138145554D01*
X114756783Y-138085904D01*
X114760398Y-138023659D01*
X114763106Y-137967392D01*
X114765142Y-137924380D01*
X114768556Y-137865190D01*
X114772450Y-137807714D01*
X114776317Y-137759919D01*
X114777300Y-137748834D01*
X114780736Y-137706916D01*
X114784872Y-137652933D01*
X114789406Y-137591000D01*
X114794033Y-137525233D01*
X114798452Y-137459745D01*
X114800239Y-137433041D01*
X114804707Y-137369517D01*
X114809248Y-137308948D01*
X114813572Y-137255001D01*
X114817389Y-137211343D01*
X114820409Y-137181643D01*
X114822543Y-137161876D01*
X114826752Y-137115271D01*
X114830666Y-137063275D01*
X114833653Y-137013899D01*
X114835081Y-136988557D01*
X114838639Y-136936795D01*
X114842790Y-136886658D01*
X114846902Y-136846154D01*
X114849920Y-136818191D01*
X114854225Y-136774201D01*
X114859141Y-136720843D01*
X114864271Y-136662452D01*
X114869215Y-136603367D01*
X114873879Y-136548240D01*
X114878909Y-136492895D01*
X114883736Y-136443529D01*
X114887980Y-136404017D01*
X114891262Y-136378236D01*
X114892182Y-136371883D01*
X114896657Y-136334552D01*
X114900966Y-136289748D01*
X114904290Y-136245807D01*
X114904894Y-136236687D01*
X114908567Y-136191843D01*
X114913115Y-136147960D01*
X114917693Y-136113377D01*
X114919980Y-136098073D01*
X114925177Y-136059217D01*
X114930757Y-136013435D01*
X114935850Y-135967705D01*
X114938225Y-135945545D01*
X114943717Y-135896653D01*
X114949248Y-135849981D01*
X114953920Y-135813203D01*
X114956506Y-135793816D01*
X114962135Y-135750930D01*
X114968475Y-135702006D01*
X114974582Y-135654288D01*
X114987316Y-135559912D01*
X115003288Y-135456946D01*
X115021911Y-135352682D01*
X115044496Y-135239342D01*
X115051143Y-135208313D01*
X115061501Y-135165890D01*
X115070477Y-135138993D01*
X115078713Y-135126359D01*
X115086850Y-135126726D01*
X115095528Y-135138829D01*
X115104815Y-135157449D01*
X115116894Y-135183906D01*
X115125949Y-135206142D01*
X115129516Y-135218385D01*
X115131491Y-135225827D01*
X115139108Y-135245759D01*
X115150489Y-135272208D01*
X115169548Y-135314695D01*
X115191029Y-135363572D01*
X115206404Y-135400801D01*
X115216430Y-135428959D01*
X115221867Y-135450626D01*
X115223473Y-135468382D01*
X115222007Y-135484807D01*
X115218229Y-135502480D01*
X115213361Y-135522611D01*
X115199767Y-135581617D01*
X115187205Y-135641081D01*
X115175433Y-135702717D01*
X115164211Y-135768241D01*
X115153296Y-135839367D01*
X115142449Y-135917808D01*
X115131427Y-136005280D01*
X115119990Y-136103498D01*
X115107897Y-136214175D01*
X115094906Y-136339026D01*
X115080776Y-136479766D01*
X115075608Y-136532255D01*
X115067060Y-136620918D01*
X115059448Y-136702935D01*
X115052227Y-136784370D01*
X115044854Y-136871289D01*
X115036783Y-136969755D01*
X115032627Y-137020952D01*
X115028197Y-137075173D01*
X115024235Y-137123327D01*
X115021057Y-137161570D01*
X115018981Y-137186057D01*
X115018865Y-137187389D01*
X115014934Y-137235024D01*
X115010066Y-137297679D01*
X115004436Y-137372839D01*
X114998217Y-137457988D01*
X114991585Y-137550610D01*
X114984714Y-137648189D01*
X114977778Y-137748211D01*
X114970952Y-137848158D01*
X114964411Y-137945516D01*
X114958329Y-138037768D01*
X114952880Y-138122400D01*
X114948238Y-138196895D01*
X114944580Y-138258737D01*
X114938745Y-138359568D01*
X114931933Y-138472808D01*
X114925401Y-138576562D01*
X114919281Y-138668792D01*
X114913705Y-138747460D01*
X114908806Y-138810527D01*
X114908749Y-138811212D01*
X114905119Y-138860735D01*
X114901432Y-138920345D01*
X114898117Y-138982605D01*
X114895602Y-139040072D01*
X114893142Y-139096913D01*
X114889727Y-139162861D01*
X114885892Y-139227580D01*
X114882094Y-139282859D01*
X114879420Y-139320013D01*
X114875590Y-139377536D01*
X114871501Y-139442742D01*
X114867497Y-139510132D01*
X114863919Y-139574204D01*
X114861150Y-139625707D01*
X114857784Y-139687895D01*
X114854370Y-139750454D01*
X114850770Y-139815850D01*
X114846848Y-139886548D01*
X114842467Y-139965013D01*
X114837489Y-140053711D01*
X114831779Y-140155108D01*
X114825199Y-140271667D01*
X114822781Y-140314559D01*
X114818469Y-140391477D01*
X114814113Y-140469657D01*
X114809973Y-140544376D01*
X114806313Y-140610912D01*
X114803394Y-140664542D01*
X114798398Y-140755656D01*
X114791664Y-140874024D01*
X114785045Y-140985492D01*
X114778704Y-141087375D01*
X114772805Y-141176988D01*
X114767513Y-141251646D01*
X114764188Y-141300145D01*
X114760308Y-141364793D01*
X114756809Y-141430955D01*
X114754173Y-141490020D01*
X114751785Y-141542902D01*
X114748369Y-141605001D01*
X114744526Y-141665010D01*
X114740721Y-141715150D01*
X114739032Y-141735651D01*
X114735080Y-141787285D01*
X114730747Y-141847697D01*
X114726453Y-141910968D01*
X114722617Y-141971180D01*
X114715838Y-142079602D01*
X114709532Y-142174729D01*
X114703726Y-142255266D01*
X114698276Y-142322758D01*
X114693037Y-142378748D01*
X114687865Y-142424779D01*
X114682614Y-142462395D01*
X114677141Y-142493140D01*
X114671299Y-142518556D01*
X114659622Y-142563122D01*
X114648722Y-142603444D01*
X114639525Y-142634569D01*
X114630550Y-142660767D01*
X114620313Y-142686310D01*
X114607335Y-142715469D01*
X114590132Y-142752515D01*
X114565591Y-142800827D01*
X114534632Y-142849999D01*
X114497789Y-142895860D01*
X114451859Y-142942336D01*
X114393639Y-142993355D01*
X114377357Y-143005656D01*
X114336372Y-143030483D01*
X114288409Y-143053897D01*
X114238788Y-143073661D01*
X114192828Y-143087540D01*
X114155849Y-143093298D01*
X114130837Y-143095903D01*
X114105393Y-143101783D01*
X114089313Y-143104442D01*
X114056411Y-143105971D01*
X114010162Y-143106005D01*
X113952819Y-143104663D01*
X113886633Y-143102062D01*
X113813859Y-143098319D01*
X113736748Y-143093552D01*
X113657555Y-143087878D01*
X113578531Y-143081414D01*
X113501929Y-143074278D01*
X113430002Y-143066587D01*
X113374308Y-143059833D01*
X113287972Y-143048260D01*
X113200136Y-143035341D01*
X113115568Y-143021818D01*
X113039042Y-143008432D01*
X112975327Y-142995924D01*
X112964670Y-142993671D01*
X112927540Y-142985892D01*
X112891455Y-142978411D01*
X112878384Y-142975643D01*
X112844363Y-142967900D01*
X112816412Y-142960876D01*
X112793661Y-142954941D01*
X112759842Y-142946513D01*
X112723711Y-142937801D01*
X112689842Y-142929490D01*
X112659537Y-142921527D01*
X112639839Y-142915753D01*
X112638287Y-142915238D01*
X112617489Y-142908732D01*
X112586547Y-142899439D01*
X112551552Y-142889192D01*
X112536299Y-142884720D01*
X112492776Y-142871476D01*
X112445818Y-142856660D01*
X112400517Y-142841917D01*
X112361964Y-142828894D01*
X112335251Y-142819238D01*
X112330422Y-142817375D01*
X112309089Y-142809229D01*
X112278161Y-142797475D01*
X112242550Y-142783982D01*
X112214892Y-142773517D01*
X112189336Y-142763727D01*
X112167642Y-142755081D01*
X112146504Y-142746132D01*
X112122619Y-142735431D01*
X112092683Y-142721532D01*
X112053390Y-142702985D01*
X112001436Y-142678344D01*
X111990586Y-142673176D01*
X111898560Y-142627018D01*
X111821580Y-142582942D01*
X111757800Y-142538806D01*
X111705377Y-142492468D01*
X111662467Y-142441785D01*
X111627228Y-142384616D01*
X111597814Y-142318817D01*
X111572382Y-142242247D01*
X111552020Y-142164023D01*
X111695174Y-142164023D01*
X111696244Y-142167208D01*
X111708706Y-142179085D01*
X111735535Y-142196637D01*
X111777216Y-142220143D01*
X111834230Y-142249881D01*
X111907062Y-142286129D01*
X111939200Y-142301827D01*
X111986120Y-142324530D01*
X112023805Y-142342350D01*
X112056447Y-142357218D01*
X112088236Y-142371065D01*
X112123363Y-142385823D01*
X112125954Y-142386906D01*
X112147510Y-142396107D01*
X112173255Y-142407298D01*
X112179265Y-142409863D01*
X112201418Y-142418114D01*
X112215311Y-142421441D01*
X112222745Y-142422642D01*
X112240463Y-142429487D01*
X112248358Y-142433121D01*
X112271550Y-142442239D01*
X112299936Y-142452244D01*
X112315757Y-142457607D01*
X112343197Y-142467314D01*
X112361737Y-142474398D01*
X112362062Y-142474534D01*
X112380278Y-142480965D01*
X112411972Y-142491039D01*
X112453711Y-142503746D01*
X112502057Y-142518079D01*
X112553575Y-142533031D01*
X112604830Y-142547594D01*
X112652387Y-142560760D01*
X112692811Y-142571521D01*
X112693572Y-142571716D01*
X112718359Y-142577684D01*
X112752886Y-142585526D01*
X112789926Y-142593600D01*
X112791505Y-142593936D01*
X112828593Y-142602109D01*
X112862848Y-142610085D01*
X112887041Y-142616185D01*
X112891692Y-142617441D01*
X112905760Y-142620936D01*
X112922614Y-142624547D01*
X112944699Y-142628697D01*
X112974459Y-142633814D01*
X113014340Y-142640323D01*
X113066787Y-142648648D01*
X113134243Y-142659217D01*
X113137973Y-142659800D01*
X113187580Y-142667570D01*
X113235743Y-142675152D01*
X113277129Y-142681702D01*
X113306401Y-142686380D01*
X113318653Y-142688172D01*
X113357006Y-142692600D01*
X113402476Y-142696712D01*
X113447659Y-142699804D01*
X113468572Y-142701026D01*
X113511168Y-142703889D01*
X113548669Y-142706864D01*
X113574804Y-142709472D01*
X113613662Y-142714269D01*
X113596876Y-142687875D01*
X113591681Y-142679938D01*
X113566534Y-142644653D01*
X113532210Y-142599698D01*
X113490854Y-142547673D01*
X113444613Y-142491177D01*
X113395635Y-142432808D01*
X113346065Y-142375167D01*
X113298051Y-142320850D01*
X113253739Y-142272459D01*
X113227157Y-142245331D01*
X113191965Y-142211203D01*
X113151837Y-142173472D01*
X113110269Y-142135344D01*
X113070757Y-142100025D01*
X113036796Y-142070721D01*
X113011883Y-142050638D01*
X113008391Y-142048018D01*
X112982202Y-142028189D01*
X112959010Y-142010386D01*
X112957344Y-142009097D01*
X112880426Y-141956786D01*
X112791554Y-141908269D01*
X112696268Y-141866276D01*
X112600110Y-141833539D01*
X112556871Y-141824792D01*
X112499936Y-141819155D01*
X112436647Y-141817148D01*
X112372601Y-141818779D01*
X112313394Y-141824059D01*
X112264622Y-141832996D01*
X112132204Y-141874422D01*
X112003634Y-141931057D01*
X111883636Y-142002213D01*
X111770218Y-142088921D01*
X111755825Y-142101254D01*
X111727816Y-142125505D01*
X111710061Y-142141590D01*
X111700247Y-142151826D01*
X111696056Y-142158531D01*
X111695174Y-142164023D01*
X111552020Y-142164023D01*
X111549089Y-142152764D01*
X111540193Y-142081814D01*
X111546781Y-142004281D01*
X111569150Y-141926102D01*
X111606535Y-141848840D01*
X111658169Y-141774060D01*
X111723285Y-141703327D01*
X111801118Y-141638205D01*
X111810332Y-141631485D01*
X111859079Y-141598364D01*
X111908606Y-141569433D01*
X111962225Y-141543187D01*
X112023248Y-141518118D01*
X112094985Y-141492720D01*
X112180749Y-141465487D01*
X112184386Y-141464489D01*
X112214166Y-141459971D01*
X112255977Y-141457377D01*
X112305132Y-141456627D01*
X112356944Y-141457644D01*
X112406725Y-141460349D01*
X112449789Y-141464664D01*
X112481447Y-141470510D01*
X112487816Y-141472260D01*
X112543492Y-141489603D01*
X112602871Y-141511174D01*
X112661805Y-141535199D01*
X112716146Y-141559906D01*
X112761746Y-141583521D01*
X112794457Y-141604273D01*
X112801852Y-141609806D01*
X112822997Y-141625537D01*
X112851872Y-141646964D01*
X112884464Y-141671107D01*
X112932095Y-141708190D01*
X113008773Y-141774159D01*
X113089855Y-141850602D01*
X113172467Y-141934774D01*
X113253734Y-142023929D01*
X113265938Y-142037772D01*
X113282534Y-142055741D01*
X113290785Y-142062106D01*
X113292792Y-142058052D01*
X113290660Y-142044768D01*
X113288627Y-142031383D01*
X113285062Y-142001878D01*
X113280645Y-141961100D01*
X113275749Y-141912515D01*
X113270748Y-141859590D01*
X113268212Y-141831051D01*
X113263566Y-141769778D01*
X113261117Y-141716212D01*
X113260772Y-141664034D01*
X113262438Y-141606928D01*
X113266023Y-141538577D01*
X113268387Y-141498294D01*
X113271940Y-141436326D01*
X113275301Y-141376206D01*
X113278175Y-141323193D01*
X113280271Y-141282546D01*
X113281202Y-141264967D01*
X113284653Y-141210523D01*
X113288878Y-141154285D01*
X113293169Y-141105974D01*
X113296259Y-141073192D01*
X113300539Y-141024873D01*
X113305402Y-140967764D01*
X113310458Y-140906453D01*
X113315317Y-140845529D01*
X113319959Y-140787855D01*
X113324954Y-140728890D01*
X113329771Y-140674822D01*
X113334032Y-140629889D01*
X113337359Y-140598327D01*
X113338348Y-140589564D01*
X113342889Y-140543573D01*
X113347229Y-140491786D01*
X113350544Y-140443826D01*
X113351175Y-140433615D01*
X113354802Y-140383919D01*
X113359267Y-140332614D01*
X113363746Y-140289324D01*
X113365829Y-140270637D01*
X113370150Y-140228955D01*
X113375221Y-140177449D01*
X113380574Y-140120925D01*
X113385738Y-140064194D01*
X113388813Y-140030235D01*
X113394277Y-139972292D01*
X113399726Y-139917077D01*
X113404667Y-139869544D01*
X113408606Y-139834649D01*
X113409783Y-139824961D01*
X113414423Y-139786638D01*
X113418451Y-139753178D01*
X113421104Y-139730913D01*
X113421366Y-139728480D01*
X113421428Y-139709855D01*
X113417807Y-139702220D01*
X113413343Y-139705385D01*
X113399535Y-139719835D01*
X113379387Y-139743308D01*
X113355503Y-139772849D01*
X113327843Y-139806788D01*
X113304419Y-139831705D01*
X113288720Y-139842122D01*
X113279780Y-139838231D01*
X113276635Y-139820226D01*
X113278322Y-139788299D01*
X113281399Y-139762652D01*
X113286841Y-139729964D01*
X113292496Y-139706634D01*
X113294470Y-139700622D01*
X113302017Y-139677377D01*
X113313612Y-139641497D01*
X113328356Y-139595770D01*
X113345350Y-139542982D01*
X113363695Y-139485918D01*
X113373408Y-139455765D01*
X113390999Y-139401588D01*
X113406726Y-139353690D01*
X113419716Y-139314707D01*
X113429093Y-139287275D01*
X113433984Y-139274031D01*
X113437478Y-139265561D01*
X113446552Y-139241207D01*
X113456585Y-139212230D01*
X113462091Y-139196240D01*
X113471956Y-139169821D01*
X113479342Y-139152757D01*
X113483536Y-139143239D01*
X113487688Y-139126271D01*
X113488321Y-139122294D01*
X113494494Y-139103887D01*
X113505046Y-139079801D01*
X113509148Y-139070889D01*
X113518519Y-139046471D01*
X113522403Y-139029557D01*
X113523612Y-139021806D01*
X113531531Y-139009171D01*
X113536306Y-139003480D01*
X113540360Y-138986579D01*
X113540989Y-138981104D01*
X113549515Y-138970767D01*
X113562381Y-138971902D01*
X113572338Y-138984893D01*
X113573239Y-138987682D01*
X113576925Y-138998268D01*
X113582330Y-139012049D01*
X113591208Y-139033364D01*
X113605313Y-139066558D01*
X113620868Y-139103350D01*
X113642666Y-139156287D01*
X113658994Y-139197886D01*
X113669239Y-139226569D01*
X113672790Y-139240756D01*
X113673381Y-139244957D01*
X113680842Y-139251959D01*
X113682428Y-139252532D01*
X113689020Y-139263860D01*
X113694498Y-139285125D01*
X113695699Y-139309009D01*
X113690188Y-139339574D01*
X113676608Y-139380033D01*
X113675382Y-139383250D01*
X113665568Y-139408693D01*
X113657503Y-139429780D01*
X113650844Y-139448502D01*
X113645251Y-139466850D01*
X113640383Y-139486815D01*
X113635898Y-139510387D01*
X113631455Y-139539558D01*
X113626713Y-139576318D01*
X113621330Y-139622658D01*
X113614965Y-139680568D01*
X113607278Y-139752040D01*
X113597926Y-139839064D01*
X113596780Y-139849687D01*
X113590786Y-139905337D01*
X113584755Y-139961431D01*
X113579330Y-140011969D01*
X113575158Y-140050951D01*
X113571509Y-140086097D01*
X113565456Y-140147071D01*
X113558641Y-140218080D01*
X113551475Y-140294724D01*
X113544368Y-140372601D01*
X113537729Y-140447311D01*
X113531969Y-140514455D01*
X113528913Y-140549532D01*
X113524849Y-140592673D01*
X113521100Y-140628962D01*
X113518201Y-140653023D01*
X113518183Y-140653153D01*
X113515458Y-140676519D01*
X113511941Y-140712562D01*
X113508083Y-140756391D01*
X113504336Y-140803110D01*
X113502746Y-140823893D01*
X113498441Y-140879408D01*
X113493431Y-140943276D01*
X113488215Y-141009145D01*
X113483293Y-141070659D01*
X113481368Y-141094673D01*
X113476092Y-141161281D01*
X113470631Y-141231218D01*
X113465525Y-141297508D01*
X113461318Y-141353176D01*
X113460738Y-141360879D01*
X113456414Y-141414577D01*
X113451676Y-141468148D01*
X113447060Y-141515762D01*
X113443100Y-141551588D01*
X113438845Y-141594202D01*
X113435641Y-141642815D01*
X113434416Y-141684821D01*
X113433354Y-141724133D01*
X113430321Y-141772716D01*
X113426009Y-141817483D01*
X113423853Y-141839199D01*
X113420790Y-141881485D01*
X113417895Y-141933499D01*
X113415417Y-141990618D01*
X113413603Y-142048223D01*
X113409604Y-142209137D01*
X113555225Y-142410197D01*
X113594384Y-142464464D01*
X113632915Y-142518245D01*
X113668168Y-142567824D01*
X113698360Y-142610682D01*
X113721710Y-142644306D01*
X113736438Y-142666178D01*
X113738307Y-142669037D01*
X113757680Y-142696109D01*
X113773258Y-142714269D01*
X113775142Y-142716465D01*
G37*
D12*
%TO.C,S38*%
X159482733Y-65405422D02*
X159482733Y-61805422D01*
X159482733Y-61805422D02*
X168482733Y-61805422D01*
X168482733Y-65405422D02*
X168482733Y-61805422D01*
D13*
%TO.C,D15*%
X91530733Y-82818797D02*
X89530733Y-82818797D01*
X91530733Y-82818797D02*
X91530733Y-78808797D01*
X89530733Y-82818797D02*
X89530733Y-78808797D01*
%TO.C,D12*%
X148528733Y-65067422D02*
X146528733Y-65067422D01*
X148528733Y-65067422D02*
X148528733Y-61057422D01*
X146528733Y-65067422D02*
X146528733Y-61057422D01*
%TO.C,D14*%
X72446733Y-84135422D02*
X70446733Y-84135422D01*
X72446733Y-84135422D02*
X72446733Y-80125422D01*
X70446733Y-84135422D02*
X70446733Y-80125422D01*
%TO.C,D3*%
X91530733Y-44708797D02*
X89530733Y-44708797D01*
X91530733Y-44708797D02*
X91530733Y-40698797D01*
X89530733Y-44708797D02*
X89530733Y-40698797D01*
%TO.C,JP14*%
X175392733Y-81760422D02*
X175392733Y-78960422D01*
X173392733Y-81760422D02*
X175392733Y-81760422D01*
X175392733Y-78960422D02*
X173392733Y-78960422D01*
X173392733Y-78960422D02*
X173392733Y-81760422D01*
%TO.C,D32*%
X129444733Y-122017422D02*
X127444733Y-122017422D01*
X129444733Y-122017422D02*
X129444733Y-118007422D01*
X127444733Y-122017422D02*
X127444733Y-118007422D01*
%TO.C,D19*%
X51362733Y-103203422D02*
X51362733Y-99193422D01*
X53362733Y-103203422D02*
X53362733Y-99193422D01*
X53362733Y-103203422D02*
X51362733Y-103203422D01*
%TO.C,D11*%
X129672733Y-65067422D02*
X127672733Y-65067422D01*
X129672733Y-65067422D02*
X129672733Y-61057422D01*
X127672733Y-65067422D02*
X127672733Y-61057422D01*
%TO.C,D22*%
X70446733Y-103203422D02*
X70446733Y-99193422D01*
X72446733Y-103203422D02*
X72446733Y-99193422D01*
X72446733Y-103203422D02*
X70446733Y-103203422D01*
%TO.C,D16*%
X110360733Y-81500172D02*
X108360733Y-81500172D01*
X110360733Y-81500172D02*
X110360733Y-77490172D01*
X108360733Y-81500172D02*
X108360733Y-77490172D01*
%TO.C,D34*%
X146274733Y-103203422D02*
X146274733Y-99193422D01*
X148274733Y-103203422D02*
X148274733Y-99193422D01*
X148274733Y-103203422D02*
X146274733Y-103203422D01*
%TO.C,D7*%
X53362733Y-64813422D02*
X51362733Y-64813422D01*
X53362733Y-64813422D02*
X53362733Y-60803422D01*
X51362733Y-64813422D02*
X51362733Y-60803422D01*
%TO.C,D35*%
X148274733Y-122017422D02*
X146274733Y-122017422D01*
X148274733Y-122017422D02*
X148274733Y-118007422D01*
X146274733Y-122017422D02*
X146274733Y-118007422D01*
%TO.C,D31*%
X127444733Y-103203422D02*
X127444733Y-99193422D01*
X129444733Y-103203422D02*
X129444733Y-99193422D01*
X129444733Y-103203422D02*
X127444733Y-103203422D01*
%TO.C,JP1*%
X162628733Y-73357422D02*
X159828733Y-73357422D01*
X162628733Y-75357422D02*
X162628733Y-73357422D01*
X159828733Y-73357422D02*
X159828733Y-75357422D01*
X159828733Y-75357422D02*
X162628733Y-75357422D01*
%TO.C,D9*%
X91530733Y-63876797D02*
X89530733Y-63876797D01*
X91530733Y-63876797D02*
X91530733Y-59866797D01*
X89530733Y-63876797D02*
X89530733Y-59866797D01*
%TO.C,D1*%
X53218733Y-45899422D02*
X51218733Y-45899422D01*
X53218733Y-45899422D02*
X53218733Y-41889422D01*
X51218733Y-45899422D02*
X51218733Y-41889422D01*
%TO.C,D23*%
X72700733Y-122017422D02*
X70700733Y-122017422D01*
X72700733Y-122017422D02*
X72700733Y-118007422D01*
X70700733Y-122017422D02*
X70700733Y-118007422D01*
%TO.C,D17*%
X129444733Y-84135422D02*
X127444733Y-84135422D01*
X129444733Y-84135422D02*
X129444733Y-80125422D01*
X127444733Y-84135422D02*
X127444733Y-80125422D01*
%TO.C,JP39*%
X166961539Y-98623711D02*
X164161539Y-98623711D01*
X166961539Y-100623711D02*
X166961539Y-98623711D01*
X164161539Y-98623711D02*
X164161539Y-100623711D01*
X164161539Y-100623711D02*
X166961539Y-100623711D01*
%TO.C,D24*%
X72700733Y-141085422D02*
X70700733Y-141085422D01*
X72700733Y-141085422D02*
X72700733Y-137075422D01*
X70700733Y-141085422D02*
X70700733Y-137075422D01*
%TO.C,D26*%
X91530733Y-120826797D02*
X89530733Y-120826797D01*
X91530733Y-120826797D02*
X91530733Y-116816797D01*
X89530733Y-120826797D02*
X89530733Y-116816797D01*
%TO.C,D8*%
X72446733Y-65067422D02*
X70446733Y-65067422D01*
X72446733Y-65067422D02*
X72446733Y-61057422D01*
X70446733Y-65067422D02*
X70446733Y-61057422D01*
%TO.C,JP38*%
X162516539Y-95448711D02*
X159716539Y-95448711D01*
X162516539Y-97448711D02*
X162516539Y-95448711D01*
X159716539Y-95448711D02*
X159716539Y-97448711D01*
X159716539Y-97448711D02*
X162516539Y-97448711D01*
%TO.C,D10*%
X110614733Y-62432172D02*
X108614733Y-62432172D01*
X110614733Y-62432172D02*
X110614733Y-58422172D01*
X108614733Y-62432172D02*
X108614733Y-58422172D01*
%TO.C,D27*%
X91530733Y-139894797D02*
X89530733Y-139894797D01*
X91530733Y-139894797D02*
X91530733Y-135884797D01*
X89530733Y-139894797D02*
X89530733Y-135884797D01*
D14*
%TO.C,U1*%
X154748733Y-71325422D02*
X154748733Y-104345422D01*
X154748733Y-104345422D02*
X172528733Y-104345422D01*
X157288733Y-73865422D02*
X154748733Y-73865422D01*
X157288733Y-73865422D02*
X157288733Y-76405422D01*
X157288733Y-76405422D02*
X154748733Y-76405422D01*
X172528733Y-71325422D02*
X154748733Y-71325422D01*
X172528733Y-104345422D02*
X172528733Y-71325422D01*
D13*
%TO.C,D20*%
X53362733Y-122017422D02*
X51362733Y-122017422D01*
X53362733Y-122017422D02*
X53362733Y-118007422D01*
X51362733Y-122017422D02*
X51362733Y-118007422D01*
%TO.C,D13*%
X53362733Y-84009422D02*
X51362733Y-84009422D01*
X53362733Y-84009422D02*
X53362733Y-79999422D01*
X51362733Y-84009422D02*
X51362733Y-79999422D01*
%TO.C,D2*%
X72428733Y-45899422D02*
X70428733Y-45899422D01*
X72428733Y-45899422D02*
X72428733Y-41889422D01*
X70428733Y-45899422D02*
X70428733Y-41889422D01*
%TO.C,JP30*%
X162643539Y-87701711D02*
X159843539Y-87701711D01*
X162643539Y-89701711D02*
X162643539Y-87701711D01*
X159843539Y-87701711D02*
X159843539Y-89701711D01*
X159843539Y-89701711D02*
X162643539Y-89701711D01*
%TO.C,JP37*%
X162516539Y-99258711D02*
X159716539Y-99258711D01*
X162516539Y-101258711D02*
X162516539Y-99258711D01*
X159716539Y-99258711D02*
X159716539Y-101258711D01*
X159716539Y-101258711D02*
X162516539Y-101258711D01*
%TO.C,D18*%
X147766733Y-84135422D02*
X145766733Y-84135422D01*
X147766733Y-84135422D02*
X147766733Y-80125422D01*
X145766733Y-84135422D02*
X145766733Y-80125422D01*
%TO.C,D28*%
X110360733Y-100568172D02*
X108360733Y-100568172D01*
X110360733Y-100568172D02*
X110360733Y-96558172D01*
X108360733Y-100568172D02*
X108360733Y-96558172D01*
%TO.C,D6*%
X148782733Y-46017422D02*
X146782733Y-46017422D01*
X148782733Y-46017422D02*
X148782733Y-42007422D01*
X146782733Y-46017422D02*
X146782733Y-42007422D01*
%TO.C,JP29*%
X159843539Y-85891711D02*
X162643539Y-85891711D01*
X159843539Y-83891711D02*
X159843539Y-85891711D01*
X162643539Y-85891711D02*
X162643539Y-83891711D01*
X162643539Y-83891711D02*
X159843539Y-83891711D01*
%TO.C,D29*%
X110360733Y-119636172D02*
X108360733Y-119636172D01*
X110360733Y-119636172D02*
X110360733Y-115626172D01*
X108360733Y-119636172D02*
X108360733Y-115626172D01*
%TO.C,D4*%
X110614733Y-43382172D02*
X108614733Y-43382172D01*
X110614733Y-43382172D02*
X110614733Y-39372172D01*
X108614733Y-43382172D02*
X108614733Y-39372172D01*
%TO.C,JP40*%
X164161539Y-96813711D02*
X166961539Y-96813711D01*
X164161539Y-94813711D02*
X164161539Y-96813711D01*
X166961539Y-96813711D02*
X166961539Y-94813711D01*
X166961539Y-94813711D02*
X164161539Y-94813711D01*
%TO.C,D5*%
X129698733Y-46017422D02*
X127698733Y-46017422D01*
X129698733Y-46017422D02*
X129698733Y-42007422D01*
X127698733Y-46017422D02*
X127698733Y-42007422D01*
%TO.C,D25*%
X89530733Y-102012797D02*
X89530733Y-98002797D01*
X91530733Y-102012797D02*
X91530733Y-98002797D01*
X91530733Y-102012797D02*
X89530733Y-102012797D01*
%TO.C,JP41*%
X166902733Y-93171422D02*
X166902733Y-91171422D01*
X166902733Y-91171422D02*
X164102733Y-91171422D01*
X164102733Y-93171422D02*
X166902733Y-93171422D01*
X164102733Y-91171422D02*
X164102733Y-93171422D01*
%TO.C,JP44*%
X164288539Y-79700711D02*
X164288539Y-81700711D01*
X164288539Y-81700711D02*
X167088539Y-81700711D01*
X167088539Y-79700711D02*
X164288539Y-79700711D01*
X167088539Y-81700711D02*
X167088539Y-79700711D01*
%TO.C,JP47*%
X167200733Y-77770422D02*
X167200733Y-75770422D01*
X167200733Y-75770422D02*
X164400733Y-75770422D01*
X164400733Y-77770422D02*
X167200733Y-77770422D01*
X164400733Y-75770422D02*
X164400733Y-77770422D01*
%TO.C,JP48*%
X167200733Y-73960422D02*
X167200733Y-71960422D01*
X167200733Y-71960422D02*
X164400733Y-71960422D01*
X164400733Y-73960422D02*
X167200733Y-73960422D01*
X164400733Y-71960422D02*
X164400733Y-73960422D01*
%TO.C,JP42*%
X164356733Y-87615422D02*
X164356733Y-89615422D01*
X164356733Y-89615422D02*
X167156733Y-89615422D01*
X167156733Y-87615422D02*
X164356733Y-87615422D01*
X167156733Y-89615422D02*
X167156733Y-87615422D01*
%TO.C,JP43*%
X164161539Y-83383711D02*
X164161539Y-85383711D01*
X164161539Y-85383711D02*
X166961539Y-85383711D01*
X166961539Y-83383711D02*
X164161539Y-83383711D01*
X166961539Y-85383711D02*
X166961539Y-83383711D01*
%TD*%
%LPC*%
D15*
%TO.C,S38*%
X161482733Y-66355422D03*
X163982733Y-66355422D03*
X166482733Y-66355422D03*
%TD*%
D16*
%TO.C,S25*%
X75278736Y-101648797D03*
D17*
X80778736Y-101648797D03*
D16*
X86278736Y-101648797D03*
D18*
X80778736Y-95748797D03*
X85778736Y-97848797D03*
%TD*%
D16*
%TO.C,S2*%
X56328733Y-45689422D03*
D17*
X61828733Y-45689422D03*
D16*
X67328733Y-45689422D03*
D18*
X61828733Y-39789422D03*
X66828733Y-41889422D03*
%TD*%
D16*
%TO.C,S32*%
X113178733Y-121889422D03*
D17*
X118678733Y-121889422D03*
D16*
X124178733Y-121889422D03*
D18*
X118678733Y-115989422D03*
X123678733Y-118089422D03*
%TD*%
D19*
%TO.C,GND*%
X157288733Y-66880422D03*
%TD*%
D16*
%TO.C,S31*%
X113178733Y-102839422D03*
D17*
X118678733Y-102839422D03*
D16*
X124178733Y-102839422D03*
D18*
X118678733Y-96939422D03*
X123678733Y-99039422D03*
%TD*%
D20*
%TO.C,D15*%
X90530733Y-82108797D03*
X90530733Y-78808797D03*
%TD*%
D16*
%TO.C,S16*%
X94228729Y-81208172D03*
D17*
X99728729Y-81208172D03*
D16*
X105228729Y-81208172D03*
D18*
X99728729Y-75308172D03*
X104728729Y-77408172D03*
%TD*%
D16*
%TO.C,S30*%
X127558547Y-149290612D03*
D17*
X132952866Y-148217615D03*
D16*
X138347185Y-147144618D03*
D18*
X131801833Y-142430982D03*
X137115449Y-143515179D03*
%TD*%
D16*
%TO.C,S12*%
X132328735Y-64739422D03*
D17*
X137828735Y-64739422D03*
D16*
X143328735Y-64739422D03*
D18*
X137828735Y-58839422D03*
X142828735Y-60939422D03*
%TD*%
D20*
%TO.C,D12*%
X147528733Y-64357422D03*
X147528733Y-61057422D03*
%TD*%
%TO.C,D14*%
X71446733Y-83425422D03*
X71446733Y-80125422D03*
%TD*%
D16*
%TO.C,S34*%
X132128732Y-102839422D03*
D17*
X137628732Y-102839422D03*
D16*
X143128732Y-102839422D03*
D18*
X137628732Y-96939422D03*
X142628732Y-99039422D03*
%TD*%
D16*
%TO.C,S26*%
X75278736Y-120698797D03*
D17*
X80778736Y-120698797D03*
D16*
X86278736Y-120698797D03*
D18*
X80778736Y-114798797D03*
X85778736Y-116898797D03*
%TD*%
D16*
%TO.C,S19*%
X37278733Y-102839422D03*
D17*
X42778733Y-102839422D03*
D16*
X48278733Y-102839422D03*
D18*
X42778733Y-96939422D03*
X47778733Y-99039422D03*
%TD*%
D16*
%TO.C,S23*%
X56328732Y-121889422D03*
D17*
X61828732Y-121889422D03*
D16*
X67328732Y-121889422D03*
D18*
X61828732Y-115989422D03*
X66828732Y-118089422D03*
%TD*%
D16*
%TO.C,S4*%
X94428733Y-43308172D03*
D17*
X99928733Y-43308172D03*
D16*
X105428733Y-43308172D03*
D18*
X99928733Y-37408172D03*
X104928733Y-39508172D03*
%TD*%
D20*
%TO.C,D3*%
X90530733Y-43998797D03*
X90530733Y-40698797D03*
%TD*%
D21*
%TO.C,JP14*%
X174392733Y-81085422D03*
D22*
X174392733Y-79635422D03*
%TD*%
D20*
%TO.C,D32*%
X128444733Y-121307422D03*
X128444733Y-118007422D03*
%TD*%
%TO.C,D19*%
X52362733Y-99193422D03*
X52362733Y-102493422D03*
%TD*%
%TO.C,D11*%
X128672733Y-64357422D03*
X128672733Y-61057422D03*
%TD*%
%TO.C,D22*%
X71446733Y-99193422D03*
X71446733Y-102493422D03*
%TD*%
%TO.C,D16*%
X109360733Y-80790172D03*
X109360733Y-77490172D03*
%TD*%
%TO.C,D34*%
X147274733Y-99193422D03*
X147274733Y-102493422D03*
%TD*%
D16*
%TO.C,S11*%
X113378736Y-64739422D03*
D17*
X118878736Y-64739422D03*
D16*
X124378736Y-64739422D03*
D18*
X118878736Y-58839422D03*
X123878736Y-60939422D03*
%TD*%
D20*
%TO.C,D7*%
X52362733Y-64103422D03*
X52362733Y-60803422D03*
%TD*%
%TO.C,D35*%
X147274733Y-121307422D03*
X147274733Y-118007422D03*
%TD*%
D16*
%TO.C,S8*%
X56328732Y-64739422D03*
D17*
X61828732Y-64739422D03*
D16*
X67328732Y-64739422D03*
D18*
X61828732Y-58839422D03*
X66828732Y-60939422D03*
%TD*%
D16*
%TO.C,S36*%
X170930809Y-132129403D03*
D17*
X174819896Y-128240316D03*
D16*
X178708983Y-124351229D03*
D18*
X170647966Y-124068386D03*
X175668424Y-122017776D03*
%TD*%
D20*
%TO.C,D31*%
X128444733Y-99193422D03*
X128444733Y-102493422D03*
%TD*%
D16*
%TO.C,S17*%
X113178733Y-83789422D03*
D17*
X118678733Y-83789422D03*
D16*
X124178733Y-83789422D03*
D18*
X118678733Y-77889422D03*
X123678733Y-79989422D03*
%TD*%
D23*
%TO.C,JP1*%
X161953733Y-74357422D03*
D24*
X160503733Y-74357422D03*
%TD*%
D20*
%TO.C,D21*%
X52616733Y-140375422D03*
X52616733Y-137075422D03*
%TD*%
%TO.C,D9*%
X90530733Y-63166797D03*
X90530733Y-59866797D03*
%TD*%
D16*
%TO.C,S21*%
X37278733Y-140939422D03*
D17*
X42778733Y-140939422D03*
D16*
X48278733Y-140939422D03*
D18*
X42778733Y-135039422D03*
X47778733Y-137139422D03*
%TD*%
D16*
%TO.C,S13*%
X37278733Y-83789422D03*
D17*
X42778733Y-83789422D03*
D16*
X48278733Y-83789422D03*
D18*
X42778733Y-77889422D03*
X47778733Y-79989422D03*
%TD*%
D20*
%TO.C,D1*%
X52218733Y-45189422D03*
X52218733Y-41889422D03*
%TD*%
%TO.C,D23*%
X71700733Y-121307422D03*
X71700733Y-118007422D03*
%TD*%
D25*
%TO.C,D33*%
X163532055Y-136280777D03*
X162269199Y-133231975D03*
%TD*%
D16*
%TO.C,S7*%
X37278733Y-64739422D03*
D17*
X42778733Y-64739422D03*
D16*
X48278733Y-64739422D03*
D18*
X42778733Y-58839422D03*
X47778733Y-60939422D03*
%TD*%
D20*
%TO.C,D17*%
X128444733Y-83425422D03*
X128444733Y-80125422D03*
%TD*%
D26*
%TO.C,JP39*%
X166286539Y-99623711D03*
D27*
X164836539Y-99623711D03*
%TD*%
D16*
%TO.C,S18*%
X132128732Y-83789422D03*
D17*
X137628732Y-83789422D03*
D16*
X143128732Y-83789422D03*
D18*
X137628732Y-77889422D03*
X142628732Y-79989422D03*
%TD*%
D20*
%TO.C,D24*%
X71700733Y-140375422D03*
X71700733Y-137075422D03*
%TD*%
D16*
%TO.C,S3*%
X75378733Y-44498797D03*
D17*
X80878733Y-44498797D03*
D16*
X86378733Y-44498797D03*
D18*
X80878733Y-38598797D03*
X85878733Y-40698797D03*
%TD*%
D20*
%TO.C,D26*%
X90530733Y-120116797D03*
X90530733Y-116816797D03*
%TD*%
%TO.C,D8*%
X71446733Y-64357422D03*
X71446733Y-61057422D03*
%TD*%
D23*
%TO.C,JP38*%
X161841539Y-96448711D03*
D24*
X160391539Y-96448711D03*
%TD*%
D16*
%TO.C,S20*%
X37278733Y-121889422D03*
D17*
X42778733Y-121889422D03*
D16*
X48278733Y-121889422D03*
D18*
X42778733Y-115989422D03*
X47778733Y-118089422D03*
%TD*%
D28*
%TO.C,D36*%
X181241838Y-121020753D03*
X178908386Y-118687301D03*
%TD*%
D16*
%TO.C,S5*%
X113478733Y-45689422D03*
D17*
X118978733Y-45689422D03*
D16*
X124478733Y-45689422D03*
D18*
X118978733Y-39789422D03*
X123978733Y-41889422D03*
%TD*%
D20*
%TO.C,D10*%
X109614733Y-61722172D03*
X109614733Y-58422172D03*
%TD*%
D16*
%TO.C,S9*%
X75378732Y-63548797D03*
D17*
X80878732Y-63548797D03*
D16*
X86378732Y-63548797D03*
D18*
X80878732Y-57648797D03*
X85878732Y-59748797D03*
%TD*%
D20*
%TO.C,D27*%
X90530733Y-139184797D03*
X90530733Y-135884797D03*
%TD*%
D16*
%TO.C,S10*%
X94428732Y-62158172D03*
D17*
X99928732Y-62158172D03*
D16*
X105428732Y-62158172D03*
D18*
X99928732Y-56258172D03*
X104928732Y-58358172D03*
%TD*%
D29*
%TO.C,U1*%
X156018733Y-75135422D03*
D30*
X156018733Y-77675422D03*
X156018733Y-80215422D03*
X156018733Y-82755422D03*
X156018733Y-85295422D03*
X156018733Y-87835422D03*
X156018733Y-90375422D03*
X156018733Y-92915422D03*
X156018733Y-95455422D03*
X156018733Y-97995422D03*
X156018733Y-100535422D03*
X156018733Y-103075422D03*
X171258733Y-103075422D03*
X171258733Y-100535422D03*
X171258733Y-97995422D03*
X171258733Y-95455422D03*
X171258733Y-92915422D03*
X171258733Y-90375422D03*
X171258733Y-87835422D03*
X171258733Y-85295422D03*
X171258733Y-82755422D03*
X171258733Y-80215422D03*
X171258733Y-77675422D03*
X171258733Y-75135422D03*
%TD*%
D31*
%TO.C,D30*%
X141684981Y-142744905D03*
X142328779Y-145981497D03*
%TD*%
D32*
%TO.C,S37*%
X167382733Y-63605422D03*
X160582733Y-63605422D03*
%TD*%
D16*
%TO.C,S6*%
X132528733Y-45689422D03*
D17*
X138028733Y-45689422D03*
D16*
X143528733Y-45689422D03*
D18*
X138028733Y-39789422D03*
X143028733Y-41889422D03*
%TD*%
D20*
%TO.C,D20*%
X52362733Y-121307422D03*
X52362733Y-118007422D03*
%TD*%
D16*
%TO.C,S28*%
X94228729Y-100258172D03*
D17*
X99728729Y-100258172D03*
D16*
X105228729Y-100258172D03*
D18*
X99728729Y-94358172D03*
X104728729Y-96458172D03*
%TD*%
D20*
%TO.C,D13*%
X52362733Y-83299422D03*
X52362733Y-79999422D03*
%TD*%
%TO.C,D2*%
X71428733Y-45189422D03*
X71428733Y-41889422D03*
%TD*%
D16*
%TO.C,S22*%
X56328732Y-102839422D03*
D17*
X61828732Y-102839422D03*
D16*
X67328732Y-102839422D03*
D18*
X61828732Y-96939422D03*
X66828732Y-99039422D03*
%TD*%
D23*
%TO.C,JP30*%
X161968539Y-88701711D03*
D24*
X160518539Y-88701711D03*
%TD*%
D16*
%TO.C,S29*%
X94228729Y-119308172D03*
D17*
X99728729Y-119308172D03*
D16*
X105228729Y-119308172D03*
D18*
X99728729Y-113408172D03*
X104728729Y-115508172D03*
%TD*%
D16*
%TO.C,S24*%
X56328732Y-140939422D03*
D17*
X61828732Y-140939422D03*
D16*
X67328732Y-140939422D03*
D18*
X61828732Y-135039422D03*
X66828732Y-137139422D03*
%TD*%
D16*
%TO.C,S33*%
X149741145Y-142878556D03*
D17*
X154822482Y-140773797D03*
D16*
X159903819Y-138669038D03*
D18*
X152564650Y-135322908D03*
X157987683Y-135349638D03*
%TD*%
D23*
%TO.C,JP37*%
X161841539Y-100258711D03*
D24*
X160391539Y-100258711D03*
%TD*%
D20*
%TO.C,D18*%
X146766733Y-83425422D03*
X146766733Y-80125422D03*
%TD*%
%TO.C,D28*%
X109360733Y-99858172D03*
X109360733Y-96558172D03*
%TD*%
D16*
%TO.C,S1*%
X37278733Y-45689422D03*
D17*
X42778733Y-45689422D03*
D16*
X48278733Y-45689422D03*
D18*
X42778733Y-39789422D03*
X47778733Y-41889422D03*
%TD*%
D16*
%TO.C,S27*%
X75278736Y-139748797D03*
D17*
X80778736Y-139748797D03*
D16*
X86278736Y-139748797D03*
D18*
X80778736Y-133848797D03*
X85778736Y-135948797D03*
%TD*%
D20*
%TO.C,D6*%
X147782733Y-45307422D03*
X147782733Y-42007422D03*
%TD*%
D24*
%TO.C,JP29*%
X160518539Y-84891711D03*
D23*
X161968539Y-84891711D03*
%TD*%
D20*
%TO.C,D29*%
X109360733Y-118926172D03*
X109360733Y-115626172D03*
%TD*%
D16*
%TO.C,S15*%
X75278736Y-82598797D03*
D17*
X80778736Y-82598797D03*
D16*
X86278736Y-82598797D03*
D18*
X80778736Y-76698797D03*
X85778736Y-78798797D03*
%TD*%
D20*
%TO.C,D4*%
X109614733Y-42672172D03*
X109614733Y-39372172D03*
%TD*%
D16*
%TO.C,S35*%
X132128732Y-121889422D03*
D17*
X137628732Y-121889422D03*
D16*
X143128732Y-121889422D03*
D18*
X137628732Y-115989422D03*
X142628732Y-118089422D03*
%TD*%
D27*
%TO.C,JP40*%
X164836539Y-95813711D03*
D26*
X166286539Y-95813711D03*
%TD*%
D16*
%TO.C,S14*%
X56328732Y-83789422D03*
D17*
X61828732Y-83789422D03*
D16*
X67328732Y-83789422D03*
D18*
X61828732Y-77889422D03*
X66828732Y-79989422D03*
%TD*%
D20*
%TO.C,D5*%
X128698733Y-45307422D03*
X128698733Y-42007422D03*
%TD*%
%TO.C,D25*%
X90530733Y-98002797D03*
X90530733Y-101302797D03*
%TD*%
D26*
%TO.C,JP41*%
X166227733Y-92171422D03*
D27*
X164777733Y-92171422D03*
%TD*%
%TO.C,JP44*%
X164963539Y-80700711D03*
D26*
X166413539Y-80700711D03*
%TD*%
%TO.C,JP47*%
X166525733Y-76770422D03*
D27*
X165075733Y-76770422D03*
%TD*%
D26*
%TO.C,JP48*%
X166525733Y-72960422D03*
D27*
X165075733Y-72960422D03*
%TD*%
%TO.C,JP42*%
X165031733Y-88615422D03*
D26*
X166481733Y-88615422D03*
%TD*%
D27*
%TO.C,JP43*%
X164836539Y-84383711D03*
D26*
X166286539Y-84383711D03*
%TD*%
%LPD*%
M02*
