M48
INCH
T1C0.0394
T2C0.0748
T3C0.1358
%
G90
G05
T1
X6.3222Y-2.5042
X6.5899Y-2.5042
T2
X1.4677Y-1.7988
X1.4677Y-2.5488
X1.4677Y-3.2988
X1.4677Y-4.0488
X1.4677Y-4.7988
X1.4677Y-5.5488
X1.9007Y-1.7988
X1.9007Y-2.5488
X1.9007Y-3.2988
X1.9007Y-4.0488
X1.9007Y-4.7988
X1.9007Y-5.5488
X2.2177Y-2.5488
X2.2177Y-3.2988
X2.2177Y-4.0488
X2.2177Y-4.7988
X2.2177Y-5.5488
X2.2177Y-1.7988
X2.6507Y-2.5488
X2.6507Y-3.2988
X2.6507Y-4.0488
X2.6507Y-4.7988
X2.6507Y-5.5488
X2.6507Y-1.7988
X2.9637Y-3.2519
X2.9637Y-4.0019
X2.9637Y-4.7519
X2.9637Y-5.5019
X2.9677Y-2.5019
X2.9677Y-1.7519
X3.3968Y-3.2519
X3.3968Y-4.0019
X3.3968Y-4.7519
X3.3968Y-5.5019
X3.4007Y-2.5019
X3.4007Y-1.7519
X3.7098Y-3.1972
X3.7098Y-3.9472
X3.7098Y-4.6972
X3.7177Y-2.4472
X3.7177Y-1.705
X4.1429Y-3.1972
X4.1429Y-3.9472
X4.1429Y-4.6972
X4.1507Y-2.4472
X4.1507Y-1.705
X4.4559Y-3.2988
X4.4559Y-4.0488
X4.4559Y-4.7988
X4.4637Y-2.5488
X4.4677Y-1.7988
X4.8889Y-3.2988
X4.8889Y-4.0488
X4.8889Y-4.7988
X4.8968Y-2.5488
X4.9007Y-1.7988
X5.022Y-5.8776
X5.2019Y-3.2988
X5.2019Y-4.0488
X5.2019Y-4.7988
X5.2098Y-2.5488
X5.2177Y-1.7988
X5.4467Y-5.7931
X5.635Y-3.2988
X5.635Y-4.0488
X5.635Y-4.7988
X5.6429Y-2.5488
X5.6507Y-1.7988
X5.8953Y-5.6251
X6.2954Y-5.4594
X6.7296Y-5.2019
X7.0358Y-4.8957
T3
X1.6842Y-1.7988
X1.6842Y-2.5488
X1.6842Y-3.2988
X1.6842Y-4.0488
X1.6842Y-4.7988
X1.6842Y-5.5488
X2.4342Y-2.5488
X2.4342Y-3.2988
X2.4342Y-4.0488
X2.4342Y-4.7988
X2.4342Y-5.5488
X2.4342Y-1.7988
X3.1803Y-3.2519
X3.1803Y-4.0019
X3.1803Y-4.7519
X3.1803Y-5.5019
X3.1842Y-2.5019
X3.1842Y-1.7519
X3.9263Y-3.1972
X3.9263Y-3.9472
X3.9263Y-4.6972
X3.9342Y-2.4472
X3.9342Y-1.705
X4.6724Y-3.2988
X4.6724Y-4.0488
X4.6724Y-4.7988
X4.6803Y-2.5488
X4.6842Y-1.7988
X5.2344Y-5.8353
X5.4185Y-3.2988
X5.4185Y-4.0488
X5.4185Y-4.7988
X5.4263Y-2.5488
X5.4342Y-1.7988
X6.0954Y-5.5423
X6.8827Y-5.0488
M30
