M48
INCH
T1C0.0118
T2C0.0157
T3C0.0430
T4C0.0472
%
G90
G05
T1
X2.0559Y-1.6492
X2.0559Y-1.7791
X2.0615Y-2.3938
X2.0615Y-2.5238
X2.0615Y-3.1496
X2.0615Y-3.2795
X2.0615Y-3.9053
X2.0615Y-4.0352
X2.0615Y-4.646
X2.0615Y-4.7759
X2.0715Y-5.3967
X2.0715Y-5.5266
X2.8122Y-1.6492
X2.8122Y-1.7791
X2.8129Y-2.4038
X2.8129Y-2.5338
X2.8129Y-3.1545
X2.8129Y-3.2845
X2.8129Y-3.9053
X2.8129Y-4.0352
X2.8229Y-4.646
X2.8229Y-4.7759
X2.8229Y-5.3967
X2.8229Y-5.5266
X3.5642Y-1.6023
X3.5642Y-1.7322
X3.5642Y-2.357
X3.5642Y-2.4869
X3.5642Y-3.1027
X3.5642Y-3.2326
X3.5642Y-3.8584
X3.5642Y-3.9883
X3.5642Y-4.5991
X3.5642Y-4.729
X3.5642Y-5.3498
X3.5642Y-5.4797
X4.3055Y-3.0508
X4.3055Y-3.1807
X4.3055Y-3.8015
X4.3055Y-3.9314
X4.3055Y-4.5522
X4.3055Y-4.6821
X4.3155Y-1.5501
X4.3155Y-1.68
X4.3155Y-2.3001
X4.3155Y-2.43
X5.0569Y-3.1545
X5.0569Y-3.2845
X5.0569Y-3.9053
X5.0569Y-4.0352
X5.0569Y-4.646
X5.0569Y-4.7759
X5.0659Y-2.4038
X5.0659Y-2.5338
X5.0669Y-1.6538
X5.0669Y-1.7838
X5.5781Y-5.6199
X5.6035Y-5.7473
X5.7782Y-3.1545
X5.7782Y-3.2845
X5.7982Y-3.9053
X5.7982Y-4.0352
X5.7982Y-4.646
X5.7982Y-4.7759
X5.8082Y-2.4038
X5.8082Y-2.5338
X5.8182Y-1.6538
X5.8182Y-1.7838
X6.1925Y-2.6331
X6.3886Y-5.2454
X6.4383Y-5.3654
X7.0436Y-4.6727
X7.1355Y-4.7646
T2
X5.8349Y-3.9797
X5.8743Y-3.9797
X5.9138Y-3.9783
X6.2009Y-2.7738
X6.2159Y-2.8888
X6.3088Y-4.2083
X6.4288Y-3.6183
X6.4288Y-3.7783
X6.4288Y-3.8533
X6.4288Y-3.9233
X6.4288Y-3.9783
X6.4338Y-3.0233
X6.4338Y-3.1733
X6.4338Y-3.3283
X6.4338Y-3.3983
X6.4338Y-3.4683
X6.4338Y-3.5383
X6.4388Y-2.8733
X6.5311Y-3.6854
X6.5538Y-3.4333
X6.5587Y-3.7136
X6.6038Y-4.2083
X6.6038Y-4.2477
X6.6088Y-4.2933
X6.6488Y-3.6833
X6.6488Y-3.7227
T3
X6.1425Y-2.9581
X6.1425Y-3.0581
X6.1425Y-3.1581
X6.1425Y-3.2581
X6.1425Y-3.3581
X6.1425Y-3.4581
X6.1425Y-3.5581
X6.1425Y-3.6581
X6.1425Y-3.7581
X6.1425Y-3.8581
X6.1425Y-3.9581
X6.1425Y-4.0581
X6.7425Y-2.9581
X6.7425Y-3.0581
X6.7425Y-3.1581
X6.7425Y-3.2581
X6.7425Y-3.3581
X6.7425Y-3.4581
X6.7425Y-3.5581
X6.7425Y-3.6581
X6.7425Y-3.7581
X6.7425Y-3.8581
X6.7425Y-3.9581
X6.7425Y-4.0581
T4
X1.6842Y-1.5665
X1.6842Y-2.3165
X1.6842Y-3.0665
X1.6842Y-3.8165
X1.6842Y-4.5665
X1.6842Y-5.3165
X1.8811Y-1.6492
X1.8811Y-2.3992
X1.8811Y-3.1492
X1.8811Y-3.8992
X1.8811Y-4.6492
X1.8811Y-5.3992
X2.4342Y-2.3165
X2.4342Y-3.0665
X2.4342Y-3.8165
X2.4342Y-4.5665
X2.4342Y-5.3165
X2.4342Y-1.5665
X2.6311Y-2.3992
X2.6311Y-3.1492
X2.6311Y-3.8992
X2.6311Y-4.6492
X2.6311Y-5.3992
X2.6311Y-1.6492
X3.1803Y-3.0196
X3.1803Y-3.7696
X3.1803Y-4.5196
X3.1803Y-5.2696
X3.1842Y-2.2696
X3.1842Y-1.5196
X3.3771Y-3.1023
X3.3771Y-3.8523
X3.3771Y-4.6023
X3.3771Y-5.3523
X3.3811Y-2.3523
X3.3811Y-1.6023
X3.9263Y-2.9649
X3.9263Y-3.7149
X3.9263Y-4.4649
X3.9342Y-2.2149
X3.9342Y-1.4728
X4.1232Y-3.0476
X4.1232Y-3.7976
X4.1232Y-4.5476
X4.1311Y-2.2976
X4.1311Y-1.5554
X4.6724Y-3.0665
X4.6724Y-3.8165
X4.6724Y-4.5665
X4.6803Y-2.3165
X4.6842Y-1.5665
X4.8692Y-3.1492
X4.8692Y-3.8992
X4.8692Y-4.6492
X4.8771Y-2.3992
X4.8811Y-1.6492
X5.189Y-5.6075
X5.3982Y-5.6502
X5.4185Y-3.0665
X5.4185Y-3.8165
X5.4185Y-4.5665
X5.4263Y-2.3165
X5.4342Y-1.5665
X5.6153Y-3.1492
X5.6153Y-3.8992
X5.6153Y-4.6492
X5.6232Y-2.3992
X5.6311Y-1.6492
X6.0065Y-5.3277
X6.22Y-5.3287
X6.7184Y-4.8846
X6.9161Y-4.8038
M30
